<svg xmlns="http://www.w3.org/2000/svg" xmlns:xlink="http://www.w3.org/1999/xlink" width="1024" zoomAndPan="magnify" viewBox="0 0 768 767.999994" height="1024" preserveAspectRatio="xMidYMid meet" version="1.0"><defs><g/><linearGradient x1="0" gradientTransform="matrix(0.75, 0, 0, 0.75, 0.000003, 0.00002)" y1="512" x2="1023.999957" gradientUnits="userSpaceOnUse" y2="512" id="60ce5ae567"><stop stop-opacity="1" stop-color="rgb(100%, 34.098816%, 34.098816%)" offset="0"/><stop stop-opacity="1" stop-color="rgb(99.822998%, 34.091187%, 34.356689%)" offset="0.00390625"/><stop stop-opacity="1" stop-color="rgb(99.647522%, 34.085083%, 34.614563%)" offset="0.0078125"/><stop stop-opacity="1" stop-color="rgb(99.47052%, 34.077454%, 34.870911%)" offset="0.0117188"/><stop stop-opacity="1" stop-color="rgb(99.295044%, 34.069824%, 35.128784%)" offset="0.015625"/><stop stop-opacity="1" stop-color="rgb(99.118042%, 34.062195%, 35.385132%)" offset="0.0195312"/><stop stop-opacity="1" stop-color="rgb(98.942566%, 34.054565%, 35.643005%)" offset="0.0234375"/><stop stop-opacity="1" stop-color="rgb(98.765564%, 34.046936%, 35.900879%)" offset="0.0273438"/><stop stop-opacity="1" stop-color="rgb(98.590088%, 34.039307%, 36.158752%)" offset="0.03125"/><stop stop-opacity="1" stop-color="rgb(98.413086%, 34.031677%, 36.4151%)" offset="0.0351562"/><stop stop-opacity="1" stop-color="rgb(98.23761%, 34.025574%, 36.672974%)" offset="0.0390625"/><stop stop-opacity="1" stop-color="rgb(98.060608%, 34.017944%, 36.930847%)" offset="0.0429688"/><stop stop-opacity="1" stop-color="rgb(97.885132%, 34.010315%, 37.188721%)" offset="0.046875"/><stop stop-opacity="1" stop-color="rgb(97.70813%, 34.002686%, 37.445068%)" offset="0.0507812"/><stop stop-opacity="1" stop-color="rgb(97.532654%, 33.995056%, 37.702942%)" offset="0.0546875"/><stop stop-opacity="1" stop-color="rgb(97.355652%, 33.987427%, 37.960815%)" offset="0.0585938"/><stop stop-opacity="1" stop-color="rgb(97.180176%, 33.979797%, 38.218689%)" offset="0.0625"/><stop stop-opacity="1" stop-color="rgb(97.003174%, 33.972168%, 38.475037%)" offset="0.0664062"/><stop stop-opacity="1" stop-color="rgb(96.827698%, 33.966064%, 38.73291%)" offset="0.0703125"/><stop stop-opacity="1" stop-color="rgb(96.650696%, 33.958435%, 38.989258%)" offset="0.0742188"/><stop stop-opacity="1" stop-color="rgb(96.47522%, 33.950806%, 39.247131%)" offset="0.078125"/><stop stop-opacity="1" stop-color="rgb(96.298218%, 33.943176%, 39.505005%)" offset="0.0820312"/><stop stop-opacity="1" stop-color="rgb(96.122742%, 33.935547%, 39.762878%)" offset="0.0859375"/><stop stop-opacity="1" stop-color="rgb(95.947266%, 33.927917%, 40.019226%)" offset="0.0898438"/><stop stop-opacity="1" stop-color="rgb(95.77179%, 33.921814%, 40.2771%)" offset="0.09375"/><stop stop-opacity="1" stop-color="rgb(95.594788%, 33.914185%, 40.534973%)" offset="0.0976562"/><stop stop-opacity="1" stop-color="rgb(95.419312%, 33.906555%, 40.792847%)" offset="0.101562"/><stop stop-opacity="1" stop-color="rgb(95.24231%, 33.898926%, 41.049194%)" offset="0.105469"/><stop stop-opacity="1" stop-color="rgb(95.066833%, 33.891296%, 41.307068%)" offset="0.109375"/><stop stop-opacity="1" stop-color="rgb(94.889832%, 33.883667%, 41.563416%)" offset="0.113281"/><stop stop-opacity="1" stop-color="rgb(94.714355%, 33.876038%, 41.821289%)" offset="0.117188"/><stop stop-opacity="1" stop-color="rgb(94.537354%, 33.868408%, 42.079163%)" offset="0.121094"/><stop stop-opacity="1" stop-color="rgb(94.361877%, 33.862305%, 42.337036%)" offset="0.125"/><stop stop-opacity="1" stop-color="rgb(94.184875%, 33.854675%, 42.593384%)" offset="0.128906"/><stop stop-opacity="1" stop-color="rgb(94.009399%, 33.847046%, 42.851257%)" offset="0.132812"/><stop stop-opacity="1" stop-color="rgb(93.832397%, 33.839417%, 43.109131%)" offset="0.136719"/><stop stop-opacity="1" stop-color="rgb(93.656921%, 33.831787%, 43.367004%)" offset="0.140625"/><stop stop-opacity="1" stop-color="rgb(93.479919%, 33.824158%, 43.623352%)" offset="0.144531"/><stop stop-opacity="1" stop-color="rgb(93.304443%, 33.816528%, 43.881226%)" offset="0.148438"/><stop stop-opacity="1" stop-color="rgb(93.127441%, 33.808899%, 44.137573%)" offset="0.152344"/><stop stop-opacity="1" stop-color="rgb(92.951965%, 33.802795%, 44.395447%)" offset="0.15625"/><stop stop-opacity="1" stop-color="rgb(92.774963%, 33.795166%, 44.65332%)" offset="0.160156"/><stop stop-opacity="1" stop-color="rgb(92.599487%, 33.787537%, 44.911194%)" offset="0.164062"/><stop stop-opacity="1" stop-color="rgb(92.422485%, 33.779907%, 45.167542%)" offset="0.167969"/><stop stop-opacity="1" stop-color="rgb(92.247009%, 33.772278%, 45.425415%)" offset="0.171875"/><stop stop-opacity="1" stop-color="rgb(92.071533%, 33.764648%, 45.683289%)" offset="0.175781"/><stop stop-opacity="1" stop-color="rgb(91.896057%, 33.758545%, 45.941162%)" offset="0.179688"/><stop stop-opacity="1" stop-color="rgb(91.719055%, 33.750916%, 46.19751%)" offset="0.183594"/><stop stop-opacity="1" stop-color="rgb(91.543579%, 33.743286%, 46.455383%)" offset="0.1875"/><stop stop-opacity="1" stop-color="rgb(91.366577%, 33.735657%, 46.711731%)" offset="0.191406"/><stop stop-opacity="1" stop-color="rgb(91.191101%, 33.728027%, 46.969604%)" offset="0.195312"/><stop stop-opacity="1" stop-color="rgb(91.014099%, 33.720398%, 47.227478%)" offset="0.199219"/><stop stop-opacity="1" stop-color="rgb(90.838623%, 33.712769%, 47.485352%)" offset="0.203125"/><stop stop-opacity="1" stop-color="rgb(90.661621%, 33.705139%, 47.741699%)" offset="0.207031"/><stop stop-opacity="1" stop-color="rgb(90.486145%, 33.699036%, 47.999573%)" offset="0.210938"/><stop stop-opacity="1" stop-color="rgb(90.309143%, 33.691406%, 48.257446%)" offset="0.214844"/><stop stop-opacity="1" stop-color="rgb(90.133667%, 33.683777%, 48.51532%)" offset="0.21875"/><stop stop-opacity="1" stop-color="rgb(89.956665%, 33.676147%, 48.771667%)" offset="0.222656"/><stop stop-opacity="1" stop-color="rgb(89.781189%, 33.668518%, 49.029541%)" offset="0.226562"/><stop stop-opacity="1" stop-color="rgb(89.604187%, 33.660889%, 49.287415%)" offset="0.230469"/><stop stop-opacity="1" stop-color="rgb(89.428711%, 33.653259%, 49.545288%)" offset="0.234375"/><stop stop-opacity="1" stop-color="rgb(89.251709%, 33.64563%, 49.801636%)" offset="0.238281"/><stop stop-opacity="1" stop-color="rgb(89.076233%, 33.639526%, 50.059509%)" offset="0.242188"/><stop stop-opacity="1" stop-color="rgb(88.899231%, 33.631897%, 50.315857%)" offset="0.246094"/><stop stop-opacity="1" stop-color="rgb(88.723755%, 33.624268%, 50.57373%)" offset="0.25"/><stop stop-opacity="1" stop-color="rgb(88.546753%, 33.616638%, 50.831604%)" offset="0.253906"/><stop stop-opacity="1" stop-color="rgb(88.371277%, 33.609009%, 51.089478%)" offset="0.257812"/><stop stop-opacity="1" stop-color="rgb(88.194275%, 33.601379%, 51.345825%)" offset="0.261719"/><stop stop-opacity="1" stop-color="rgb(88.018799%, 33.595276%, 51.603699%)" offset="0.265625"/><stop stop-opacity="1" stop-color="rgb(87.843323%, 33.587646%, 51.861572%)" offset="0.269531"/><stop stop-opacity="1" stop-color="rgb(87.667847%, 33.580017%, 52.119446%)" offset="0.273438"/><stop stop-opacity="1" stop-color="rgb(87.490845%, 33.572388%, 52.375793%)" offset="0.277344"/><stop stop-opacity="1" stop-color="rgb(87.315369%, 33.564758%, 52.633667%)" offset="0.28125"/><stop stop-opacity="1" stop-color="rgb(87.138367%, 33.557129%, 52.890015%)" offset="0.285156"/><stop stop-opacity="1" stop-color="rgb(86.962891%, 33.5495%, 53.147888%)" offset="0.289062"/><stop stop-opacity="1" stop-color="rgb(86.785889%, 33.54187%, 53.405762%)" offset="0.292969"/><stop stop-opacity="1" stop-color="rgb(86.610413%, 33.535767%, 53.663635%)" offset="0.296875"/><stop stop-opacity="1" stop-color="rgb(86.433411%, 33.528137%, 53.919983%)" offset="0.300781"/><stop stop-opacity="1" stop-color="rgb(86.257935%, 33.520508%, 54.177856%)" offset="0.304688"/><stop stop-opacity="1" stop-color="rgb(86.080933%, 33.512878%, 54.43573%)" offset="0.308594"/><stop stop-opacity="1" stop-color="rgb(85.905457%, 33.505249%, 54.693604%)" offset="0.3125"/><stop stop-opacity="1" stop-color="rgb(85.728455%, 33.49762%, 54.949951%)" offset="0.316406"/><stop stop-opacity="1" stop-color="rgb(85.552979%, 33.48999%, 55.207825%)" offset="0.320312"/><stop stop-opacity="1" stop-color="rgb(85.375977%, 33.482361%, 55.464172%)" offset="0.324219"/><stop stop-opacity="1" stop-color="rgb(85.2005%, 33.476257%, 55.722046%)" offset="0.328125"/><stop stop-opacity="1" stop-color="rgb(85.023499%, 33.468628%, 55.979919%)" offset="0.332031"/><stop stop-opacity="1" stop-color="rgb(84.848022%, 33.460999%, 56.237793%)" offset="0.335938"/><stop stop-opacity="1" stop-color="rgb(84.671021%, 33.453369%, 56.494141%)" offset="0.339844"/><stop stop-opacity="1" stop-color="rgb(84.495544%, 33.44574%, 56.752014%)" offset="0.34375"/><stop stop-opacity="1" stop-color="rgb(84.318542%, 33.43811%, 57.009888%)" offset="0.347656"/><stop stop-opacity="1" stop-color="rgb(84.143066%, 33.432007%, 57.267761%)" offset="0.351562"/><stop stop-opacity="1" stop-color="rgb(83.96759%, 33.424377%, 57.524109%)" offset="0.355469"/><stop stop-opacity="1" stop-color="rgb(83.792114%, 33.416748%, 57.781982%)" offset="0.359375"/><stop stop-opacity="1" stop-color="rgb(83.615112%, 33.409119%, 58.03833%)" offset="0.363281"/><stop stop-opacity="1" stop-color="rgb(83.439636%, 33.401489%, 58.296204%)" offset="0.367188"/><stop stop-opacity="1" stop-color="rgb(83.262634%, 33.39386%, 58.554077%)" offset="0.371094"/><stop stop-opacity="1" stop-color="rgb(83.087158%, 33.38623%, 58.811951%)" offset="0.375"/><stop stop-opacity="1" stop-color="rgb(82.910156%, 33.378601%, 59.068298%)" offset="0.378906"/><stop stop-opacity="1" stop-color="rgb(82.73468%, 33.372498%, 59.326172%)" offset="0.382812"/><stop stop-opacity="1" stop-color="rgb(82.557678%, 33.364868%, 59.584045%)" offset="0.386719"/><stop stop-opacity="1" stop-color="rgb(82.382202%, 33.357239%, 59.841919%)" offset="0.390625"/><stop stop-opacity="1" stop-color="rgb(82.2052%, 33.349609%, 60.098267%)" offset="0.394531"/><stop stop-opacity="1" stop-color="rgb(82.029724%, 33.34198%, 60.35614%)" offset="0.398438"/><stop stop-opacity="1" stop-color="rgb(81.852722%, 33.334351%, 60.612488%)" offset="0.402344"/><stop stop-opacity="1" stop-color="rgb(81.677246%, 33.326721%, 60.870361%)" offset="0.40625"/><stop stop-opacity="1" stop-color="rgb(81.500244%, 33.319092%, 61.128235%)" offset="0.410156"/><stop stop-opacity="1" stop-color="rgb(81.324768%, 33.312988%, 61.386108%)" offset="0.414062"/><stop stop-opacity="1" stop-color="rgb(81.147766%, 33.305359%, 61.642456%)" offset="0.417969"/><stop stop-opacity="1" stop-color="rgb(80.97229%, 33.297729%, 61.90033%)" offset="0.421875"/><stop stop-opacity="1" stop-color="rgb(80.795288%, 33.2901%, 62.158203%)" offset="0.425781"/><stop stop-opacity="1" stop-color="rgb(80.619812%, 33.282471%, 62.416077%)" offset="0.429688"/><stop stop-opacity="1" stop-color="rgb(80.44281%, 33.274841%, 62.672424%)" offset="0.433594"/><stop stop-opacity="1" stop-color="rgb(80.267334%, 33.268738%, 62.930298%)" offset="0.4375"/><stop stop-opacity="1" stop-color="rgb(80.091858%, 33.261108%, 63.188171%)" offset="0.441406"/><stop stop-opacity="1" stop-color="rgb(79.916382%, 33.253479%, 63.446045%)" offset="0.445312"/><stop stop-opacity="1" stop-color="rgb(79.73938%, 33.24585%, 63.702393%)" offset="0.449219"/><stop stop-opacity="1" stop-color="rgb(79.563904%, 33.23822%, 63.960266%)" offset="0.453125"/><stop stop-opacity="1" stop-color="rgb(79.386902%, 33.230591%, 64.216614%)" offset="0.457031"/><stop stop-opacity="1" stop-color="rgb(79.211426%, 33.222961%, 64.474487%)" offset="0.460938"/><stop stop-opacity="1" stop-color="rgb(79.034424%, 33.215332%, 64.732361%)" offset="0.464844"/><stop stop-opacity="1" stop-color="rgb(78.858948%, 33.209229%, 64.990234%)" offset="0.46875"/><stop stop-opacity="1" stop-color="rgb(78.681946%, 33.201599%, 65.246582%)" offset="0.472656"/><stop stop-opacity="1" stop-color="rgb(78.50647%, 33.19397%, 65.504456%)" offset="0.476562"/><stop stop-opacity="1" stop-color="rgb(78.329468%, 33.18634%, 65.762329%)" offset="0.480469"/><stop stop-opacity="1" stop-color="rgb(78.153992%, 33.178711%, 66.020203%)" offset="0.484375"/><stop stop-opacity="1" stop-color="rgb(77.97699%, 33.171082%, 66.27655%)" offset="0.488281"/><stop stop-opacity="1" stop-color="rgb(77.801514%, 33.163452%, 66.534424%)" offset="0.492188"/><stop stop-opacity="1" stop-color="rgb(77.624512%, 33.155823%, 66.790771%)" offset="0.496094"/><stop stop-opacity="1" stop-color="rgb(77.449036%, 33.149719%, 67.048645%)" offset="0.5"/><stop stop-opacity="1" stop-color="rgb(77.272034%, 33.14209%, 67.306519%)" offset="0.503906"/><stop stop-opacity="1" stop-color="rgb(77.096558%, 33.13446%, 67.564392%)" offset="0.507812"/><stop stop-opacity="1" stop-color="rgb(76.919556%, 33.126831%, 67.82074%)" offset="0.511719"/><stop stop-opacity="1" stop-color="rgb(76.74408%, 33.119202%, 68.078613%)" offset="0.515625"/><stop stop-opacity="1" stop-color="rgb(76.567078%, 33.111572%, 68.336487%)" offset="0.519531"/><stop stop-opacity="1" stop-color="rgb(76.391602%, 33.105469%, 68.59436%)" offset="0.523438"/><stop stop-opacity="1" stop-color="rgb(76.2146%, 33.097839%, 68.850708%)" offset="0.527344"/><stop stop-opacity="1" stop-color="rgb(76.039124%, 33.09021%, 69.108582%)" offset="0.53125"/><stop stop-opacity="1" stop-color="rgb(75.863647%, 33.082581%, 69.364929%)" offset="0.535156"/><stop stop-opacity="1" stop-color="rgb(75.688171%, 33.074951%, 69.622803%)" offset="0.539062"/><stop stop-opacity="1" stop-color="rgb(75.511169%, 33.067322%, 69.880676%)" offset="0.542969"/><stop stop-opacity="1" stop-color="rgb(75.335693%, 33.059692%, 70.13855%)" offset="0.546875"/><stop stop-opacity="1" stop-color="rgb(75.158691%, 33.052063%, 70.394897%)" offset="0.550781"/><stop stop-opacity="1" stop-color="rgb(74.983215%, 33.045959%, 70.652771%)" offset="0.554688"/><stop stop-opacity="1" stop-color="rgb(74.806213%, 33.03833%, 70.910645%)" offset="0.558594"/><stop stop-opacity="1" stop-color="rgb(74.630737%, 33.030701%, 71.168518%)" offset="0.5625"/><stop stop-opacity="1" stop-color="rgb(74.453735%, 33.023071%, 71.424866%)" offset="0.566406"/><stop stop-opacity="1" stop-color="rgb(74.278259%, 33.015442%, 71.682739%)" offset="0.570312"/><stop stop-opacity="1" stop-color="rgb(74.101257%, 33.007812%, 71.939087%)" offset="0.574219"/><stop stop-opacity="1" stop-color="rgb(73.925781%, 33.000183%, 72.19696%)" offset="0.578125"/><stop stop-opacity="1" stop-color="rgb(73.748779%, 32.992554%, 72.454834%)" offset="0.582031"/><stop stop-opacity="1" stop-color="rgb(73.573303%, 32.98645%, 72.712708%)" offset="0.585938"/><stop stop-opacity="1" stop-color="rgb(73.396301%, 32.978821%, 72.969055%)" offset="0.589844"/><stop stop-opacity="1" stop-color="rgb(73.220825%, 32.971191%, 73.226929%)" offset="0.59375"/><stop stop-opacity="1" stop-color="rgb(73.043823%, 32.963562%, 73.484802%)" offset="0.597656"/><stop stop-opacity="1" stop-color="rgb(72.868347%, 32.955933%, 73.742676%)" offset="0.601562"/><stop stop-opacity="1" stop-color="rgb(72.691345%, 32.948303%, 73.999023%)" offset="0.605469"/><stop stop-opacity="1" stop-color="rgb(72.515869%, 32.940674%, 74.256897%)" offset="0.609375"/><stop stop-opacity="1" stop-color="rgb(72.338867%, 32.933044%, 74.514771%)" offset="0.613281"/><stop stop-opacity="1" stop-color="rgb(72.163391%, 32.926941%, 74.772644%)" offset="0.617188"/><stop stop-opacity="1" stop-color="rgb(71.987915%, 32.919312%, 75.028992%)" offset="0.621094"/><stop stop-opacity="1" stop-color="rgb(71.812439%, 32.911682%, 75.286865%)" offset="0.625"/><stop stop-opacity="1" stop-color="rgb(71.635437%, 32.904053%, 75.543213%)" offset="0.628906"/><stop stop-opacity="1" stop-color="rgb(71.459961%, 32.896423%, 75.801086%)" offset="0.632812"/><stop stop-opacity="1" stop-color="rgb(71.282959%, 32.888794%, 76.05896%)" offset="0.636719"/><stop stop-opacity="1" stop-color="rgb(71.107483%, 32.88269%, 76.316833%)" offset="0.640625"/><stop stop-opacity="1" stop-color="rgb(70.930481%, 32.875061%, 76.573181%)" offset="0.644531"/><stop stop-opacity="1" stop-color="rgb(70.755005%, 32.867432%, 76.831055%)" offset="0.648438"/><stop stop-opacity="1" stop-color="rgb(70.578003%, 32.859802%, 77.088928%)" offset="0.652344"/><stop stop-opacity="1" stop-color="rgb(70.402527%, 32.852173%, 77.346802%)" offset="0.65625"/><stop stop-opacity="1" stop-color="rgb(70.225525%, 32.844543%, 77.603149%)" offset="0.660156"/><stop stop-opacity="1" stop-color="rgb(70.050049%, 32.836914%, 77.861023%)" offset="0.664062"/><stop stop-opacity="1" stop-color="rgb(69.873047%, 32.829285%, 78.117371%)" offset="0.667969"/><stop stop-opacity="1" stop-color="rgb(69.697571%, 32.823181%, 78.375244%)" offset="0.671875"/><stop stop-opacity="1" stop-color="rgb(69.520569%, 32.815552%, 78.633118%)" offset="0.675781"/><stop stop-opacity="1" stop-color="rgb(69.345093%, 32.807922%, 78.890991%)" offset="0.679688"/><stop stop-opacity="1" stop-color="rgb(69.168091%, 32.800293%, 79.147339%)" offset="0.683594"/><stop stop-opacity="1" stop-color="rgb(68.992615%, 32.792664%, 79.405212%)" offset="0.6875"/><stop stop-opacity="1" stop-color="rgb(68.815613%, 32.785034%, 79.663086%)" offset="0.691406"/><stop stop-opacity="1" stop-color="rgb(68.640137%, 32.777405%, 79.920959%)" offset="0.695312"/><stop stop-opacity="1" stop-color="rgb(68.463135%, 32.769775%, 80.177307%)" offset="0.699219"/><stop stop-opacity="1" stop-color="rgb(68.287659%, 32.763672%, 80.435181%)" offset="0.703125"/><stop stop-opacity="1" stop-color="rgb(68.112183%, 32.756042%, 80.691528%)" offset="0.707031"/><stop stop-opacity="1" stop-color="rgb(67.936707%, 32.748413%, 80.949402%)" offset="0.710938"/><stop stop-opacity="1" stop-color="rgb(67.759705%, 32.740784%, 81.207275%)" offset="0.714844"/><stop stop-opacity="1" stop-color="rgb(67.584229%, 32.733154%, 81.465149%)" offset="0.71875"/><stop stop-opacity="1" stop-color="rgb(67.407227%, 32.725525%, 81.721497%)" offset="0.722656"/><stop stop-opacity="1" stop-color="rgb(67.23175%, 32.719421%, 81.97937%)" offset="0.726562"/><stop stop-opacity="1" stop-color="rgb(67.054749%, 32.711792%, 82.237244%)" offset="0.730469"/><stop stop-opacity="1" stop-color="rgb(66.879272%, 32.704163%, 82.495117%)" offset="0.734375"/><stop stop-opacity="1" stop-color="rgb(66.702271%, 32.696533%, 82.751465%)" offset="0.738281"/><stop stop-opacity="1" stop-color="rgb(66.526794%, 32.688904%, 83.009338%)" offset="0.742188"/><stop stop-opacity="1" stop-color="rgb(66.349792%, 32.681274%, 83.265686%)" offset="0.746094"/><stop stop-opacity="1" stop-color="rgb(66.174316%, 32.673645%, 83.52356%)" offset="0.75"/><stop stop-opacity="1" stop-color="rgb(65.997314%, 32.666016%, 83.781433%)" offset="0.753906"/><stop stop-opacity="1" stop-color="rgb(65.821838%, 32.659912%, 84.039307%)" offset="0.757812"/><stop stop-opacity="1" stop-color="rgb(65.644836%, 32.652283%, 84.295654%)" offset="0.761719"/><stop stop-opacity="1" stop-color="rgb(65.46936%, 32.644653%, 84.553528%)" offset="0.765625"/><stop stop-opacity="1" stop-color="rgb(65.292358%, 32.637024%, 84.811401%)" offset="0.769531"/><stop stop-opacity="1" stop-color="rgb(65.116882%, 32.629395%, 85.069275%)" offset="0.773438"/><stop stop-opacity="1" stop-color="rgb(64.93988%, 32.621765%, 85.325623%)" offset="0.777344"/><stop stop-opacity="1" stop-color="rgb(64.764404%, 32.614136%, 85.583496%)" offset="0.78125"/><stop stop-opacity="1" stop-color="rgb(64.587402%, 32.606506%, 85.839844%)" offset="0.785156"/><stop stop-opacity="1" stop-color="rgb(64.411926%, 32.600403%, 86.097717%)" offset="0.789062"/><stop stop-opacity="1" stop-color="rgb(64.234924%, 32.592773%, 86.355591%)" offset="0.792969"/><stop stop-opacity="1" stop-color="rgb(64.059448%, 32.585144%, 86.613464%)" offset="0.796875"/><stop stop-opacity="1" stop-color="rgb(63.883972%, 32.577515%, 86.869812%)" offset="0.800781"/><stop stop-opacity="1" stop-color="rgb(63.708496%, 32.569885%, 87.127686%)" offset="0.804688"/><stop stop-opacity="1" stop-color="rgb(63.531494%, 32.562256%, 87.385559%)" offset="0.808594"/><stop stop-opacity="1" stop-color="rgb(63.356018%, 32.556152%, 87.643433%)" offset="0.8125"/><stop stop-opacity="1" stop-color="rgb(63.179016%, 32.548523%, 87.89978%)" offset="0.816406"/><stop stop-opacity="1" stop-color="rgb(63.00354%, 32.540894%, 88.157654%)" offset="0.820312"/><stop stop-opacity="1" stop-color="rgb(62.826538%, 32.533264%, 88.415527%)" offset="0.824219"/><stop stop-opacity="1" stop-color="rgb(62.651062%, 32.525635%, 88.673401%)" offset="0.828125"/><stop stop-opacity="1" stop-color="rgb(62.47406%, 32.518005%, 88.929749%)" offset="0.832031"/><stop stop-opacity="1" stop-color="rgb(62.298584%, 32.510376%, 89.187622%)" offset="0.835938"/><stop stop-opacity="1" stop-color="rgb(62.121582%, 32.502747%, 89.44397%)" offset="0.839844"/><stop stop-opacity="1" stop-color="rgb(61.946106%, 32.496643%, 89.701843%)" offset="0.84375"/><stop stop-opacity="1" stop-color="rgb(61.769104%, 32.489014%, 89.959717%)" offset="0.847656"/><stop stop-opacity="1" stop-color="rgb(61.593628%, 32.481384%, 90.21759%)" offset="0.851562"/><stop stop-opacity="1" stop-color="rgb(61.416626%, 32.473755%, 90.473938%)" offset="0.855469"/><stop stop-opacity="1" stop-color="rgb(61.24115%, 32.466125%, 90.731812%)" offset="0.859375"/><stop stop-opacity="1" stop-color="rgb(61.064148%, 32.458496%, 90.989685%)" offset="0.863281"/><stop stop-opacity="1" stop-color="rgb(60.888672%, 32.450867%, 91.247559%)" offset="0.867188"/><stop stop-opacity="1" stop-color="rgb(60.71167%, 32.443237%, 91.503906%)" offset="0.871094"/><stop stop-opacity="1" stop-color="rgb(60.536194%, 32.437134%, 91.76178%)" offset="0.875"/><stop stop-opacity="1" stop-color="rgb(60.359192%, 32.429504%, 92.018127%)" offset="0.878906"/><stop stop-opacity="1" stop-color="rgb(60.183716%, 32.421875%, 92.276001%)" offset="0.882812"/><stop stop-opacity="1" stop-color="rgb(60.00824%, 32.414246%, 92.533875%)" offset="0.886719"/><stop stop-opacity="1" stop-color="rgb(59.832764%, 32.406616%, 92.791748%)" offset="0.890625"/><stop stop-opacity="1" stop-color="rgb(59.655762%, 32.398987%, 93.048096%)" offset="0.894531"/><stop stop-opacity="1" stop-color="rgb(59.480286%, 32.392883%, 93.305969%)" offset="0.898438"/><stop stop-opacity="1" stop-color="rgb(59.303284%, 32.385254%, 93.563843%)" offset="0.902344"/><stop stop-opacity="1" stop-color="rgb(59.127808%, 32.377625%, 93.821716%)" offset="0.90625"/><stop stop-opacity="1" stop-color="rgb(58.950806%, 32.369995%, 94.078064%)" offset="0.910156"/><stop stop-opacity="1" stop-color="rgb(58.77533%, 32.362366%, 94.335938%)" offset="0.914062"/><stop stop-opacity="1" stop-color="rgb(58.598328%, 32.354736%, 94.592285%)" offset="0.917969"/><stop stop-opacity="1" stop-color="rgb(58.422852%, 32.347107%, 94.850159%)" offset="0.921875"/><stop stop-opacity="1" stop-color="rgb(58.24585%, 32.339478%, 95.108032%)" offset="0.925781"/><stop stop-opacity="1" stop-color="rgb(58.070374%, 32.333374%, 95.365906%)" offset="0.929688"/><stop stop-opacity="1" stop-color="rgb(57.893372%, 32.325745%, 95.622253%)" offset="0.933594"/><stop stop-opacity="1" stop-color="rgb(57.717896%, 32.318115%, 95.880127%)" offset="0.9375"/><stop stop-opacity="1" stop-color="rgb(57.540894%, 32.310486%, 96.138%)" offset="0.941406"/><stop stop-opacity="1" stop-color="rgb(57.365417%, 32.302856%, 96.395874%)" offset="0.945312"/><stop stop-opacity="1" stop-color="rgb(57.188416%, 32.295227%, 96.652222%)" offset="0.949219"/><stop stop-opacity="1" stop-color="rgb(57.012939%, 32.287598%, 96.910095%)" offset="0.953125"/><stop stop-opacity="1" stop-color="rgb(56.835938%, 32.279968%, 97.166443%)" offset="0.957031"/><stop stop-opacity="1" stop-color="rgb(56.660461%, 32.273865%, 97.424316%)" offset="0.960938"/><stop stop-opacity="1" stop-color="rgb(56.483459%, 32.266235%, 97.68219%)" offset="0.964844"/><stop stop-opacity="1" stop-color="rgb(56.307983%, 32.258606%, 97.940063%)" offset="0.96875"/><stop stop-opacity="1" stop-color="rgb(56.132507%, 32.250977%, 98.196411%)" offset="0.972656"/><stop stop-opacity="1" stop-color="rgb(55.957031%, 32.243347%, 98.454285%)" offset="0.976562"/><stop stop-opacity="1" stop-color="rgb(55.780029%, 32.235718%, 98.712158%)" offset="0.980469"/><stop stop-opacity="1" stop-color="rgb(55.604553%, 32.229614%, 98.970032%)" offset="0.984375"/><stop stop-opacity="1" stop-color="rgb(55.427551%, 32.221985%, 99.226379%)" offset="0.988281"/><stop stop-opacity="1" stop-color="rgb(55.252075%, 32.214355%, 99.484253%)" offset="0.992188"/><stop stop-opacity="1" stop-color="rgb(55.075073%, 32.206726%, 99.740601%)" offset="0.996094"/><stop stop-opacity="1" stop-color="rgb(54.899597%, 32.199097%, 99.998474%)" offset="1"/></linearGradient><clipPath id="63b76683dd"><path d="M 224 63.003906 L 544 63.003906 L 544 585 L 224 585 Z M 224 63.003906 " clip-rule="nonzero"/></clipPath></defs><rect x="-76.8" width="921.6" fill="#ffffff" y="-76.799999" height="921.599993" fill-opacity="1"/><rect x="-76.8" fill="url(#60ce5ae567)" width="921.6" y="-76.799999" height="921.599993"/><g clip-path="url(#63b76683dd)"><path fill="#ffffff" d="M 410.882812 63.035156 C 400.9375 73.550781 389.4375 93.398438 399.375 116.140625 C 395.46875 114.164062 390.8125 116.1875 387.972656 108.855469 C 383.660156 98.527344 388.960938 90.613281 390.402344 81.722656 C 386.726562 89.316406 380.460938 93.390625 380.371094 106.007812 C 370.640625 100.078125 366.679688 89.542969 363.269531 74.542969 C 363.269531 93.59375 361.75 103.527344 380.160156 114.347656 C 381.585938 120.980469 380.855469 127.792969 378.261719 134.828125 L 369.816406 127.542969 C 364.660156 122.605469 359.617188 114.804688 356.722656 102.207031 C 354.601562 92.972656 352.660156 80.339844 352.394531 69.792969 C 347.152344 79.042969 344.707031 92.148438 348.171875 106.007812 C 349.886719 112.875 353.472656 118.824219 356.617188 127.542969 C 332.695312 126.433594 315.066406 118.382812 304.882812 92.28125 C 304.980469 113.425781 308.394531 123.21875 328.429688 131.554688 C 334.820312 134.214844 342.050781 134.402344 352.5 137.785156 C 361.875 140.769531 371.429688 144.539062 379.527344 153.515625 C 370.851562 159.589844 362.925781 161.382812 351.65625 160.589844 C 361.816406 169.300781 368.3125 166.535156 381.957031 162.597656 C 384.597656 161.867188 387.210938 161.300781 389.769531 160.90625 C 414.757812 157.074219 435.925781 168.917969 457.339844 189.097656 C 459.796875 195.351562 458.71875 199.910156 458.5 204.828125 C 452.183594 194.722656 448.863281 187.953125 436.855469 184.34375 C 434.964844 196.71875 436.464844 199.8125 442.242188 209.050781 C 428.554688 225.09375 419.304688 233.925781 419.648438 256.246094 C 409.597656 265.71875 403.519531 277.078125 399.378906 297.101562 C 391.003906 305.402344 386.519531 312.015625 382.484375 326.664062 C 371.367188 339.71875 359.820312 352.574219 343.949219 364.039062 L 315.546875 374.914062 L 291.476562 389.378906 L 278.804688 404.476562 L 268.671875 403.210938 C 265.804688 418.023438 265.238281 422.816406 274.582031 435.835938 L 273.949219 462.441406 C 273.949219 462.441406 268.144531 458.367188 262.230469 461.804688 C 257.699219 464.441406 259.328125 478.703125 257.902344 487.039062 C 253.808594 507.773438 250.269531 528.269531 241.324219 547.640625 C 241.324219 547.640625 235.753906 547.640625 233.195312 548.0625 C 230.636719 548.488281 233.617188 555.242188 233.617188 555.242188 L 228.550781 554.398438 C 225.453125 563.65625 223.808594 571.644531 225.488281 580.476562 C 225.488281 580.476562 233.679688 586.421875 236.574219 583.855469 C 241.363281 579.613281 252.367188 564.140625 255.367188 563.375 C 257.214844 562.902344 281.867188 548.488281 281.867188 548.488281 C 281.867188 548.488281 281.011719 542.46875 281.445312 539.511719 C 283.804688 523.402344 297.597656 493.375 297.597656 493.375 C 335.035156 493.71875 347.707031 479.679688 370.128906 443.753906 C 370.128906 443.753906 402.082031 439.183594 416.269531 432.878906 C 430.042969 426.757812 440.84375 414.746094 454.910156 409.332031 C 461.980469 406.617188 473.671875 406.921875 477.292969 405.109375 C 480.914062 403.300781 495.980469 393.074219 495.980469 393.074219 L 502.632812 400.886719 C 501.441406 413.925781 504.152344 427.632812 498.621094 439.953125 L 491.441406 445.863281 L 493.550781 450.722656 L 488.90625 450.828125 L 488.589844 455.15625 L 486.585938 455.261719 L 485.949219 462.230469 C 486.433594 466.652344 484.894531 474.230469 487.957031 476.378906 C 491.902344 479.140625 505.261719 468.308594 508.96875 465.398438 L 512.875 460.644531 C 526.5625 455.296875 534.726562 450.773438 541.484375 436.679688 C 541.484375 436.679688 543.792969 431.992188 543.914062 429.5 C 544.09375 425.785156 541.824219 423.320312 541.378906 418.730469 L 532.195312 379.769531 C 532.195312 379.769531 533.570312 369.445312 531.347656 365.097656 C 529.527344 361.527344 525.769531 356.484375 522.058594 357.601562 C 508.902344 361.554688 504.605469 362.832031 500.625 363.300781 C 505.660156 331.25 504.550781 309.324219 482.359375 280.210938 C 481 273.847656 481.878906 266.890625 483.3125 259.730469 C 491.441406 259.414062 494.746094 259.964844 502 264.585938 C 505.96875 267.117188 509.570312 267.058594 512.871094 264.902344 C 513.558594 264.453125 513.886719 262.320312 514.667969 261.628906 C 518.507812 262.28125 521.726562 260.582031 523.113281 257.617188 C 524.582031 254.480469 524.035156 249.953125 522.480469 244.628906 C 522.480469 244.628906 512.902344 237.355469 508.648438 233.121094 C 504.199219 228.691406 501.164062 222.875 496.507812 218.660156 C 491.464844 214.089844 479.617188 207.257812 479.617188 207.257812 C 478.574219 201.761719 478.179688 196.300781 479.933594 191.207031 C 492.730469 192.183594 496.875 187.378906 503.792969 177.695312 C 495.300781 181.269531 489.636719 183.683594 480.25 181.285156 C 486.230469 177.472656 486.128906 172.527344 488.0625 167.980469 C 484.089844 170.699219 481.820312 174.242188 474.230469 175.265625 C 464.195312 173.710938 458.128906 163.585938 451.109375 155.628906 C 447.9375 154.523438 447.6875 137.929688 448.257812 130.710938 C 445.265625 134.28125 439.273438 140.839844 443.507812 152.355469 C 437.425781 149.75 431.949219 144.566406 428.726562 136.835938 C 420.953125 118.171875 427.167969 102 438.652344 81.089844 C 426.847656 92.171875 417.855469 100.832031 412.890625 124.90625 C 404.742188 102.765625 401.671875 84.664062 410.882812 63.035156 Z M 519.523438 403.738281 C 519.890625 403.667969 527.515625 416.980469 525.753906 425.699219 C 522.773438 431.859375 517.414062 434.992188 517.414062 434.992188 C 520.714844 425.234375 519.203125 414.242188 519.523438 403.738281 Z M 519.523438 403.738281 " fill-opacity="1" fill-rule="nonzero"/></g><g fill="#ffffff" fill-opacity="1"><g transform="translate(193.521116, 662.773221)"><g><path d="M 59.796875 -81.40625 C 60.066406 -83.09375 60.46875 -84.507812 61 -85.65625 C 61.789062 -87.425781 62.847656 -88.753906 64.171875 -89.640625 C 65.328125 -90.515625 66.609375 -91.128906 68.015625 -91.484375 C 68.816406 -91.753906 69.65625 -91.976562 70.53125 -92.15625 C 71.414062 -92.332031 72.347656 -92.460938 73.328125 -92.546875 C 74.035156 -92.640625 74.785156 -92.707031 75.578125 -92.75 C 76.367188 -92.789062 77.207031 -92.8125 78.09375 -92.8125 L 84.46875 -92.8125 C 83.050781 -91.488281 81.988281 -90.5625 81.28125 -90.03125 C 80.925781 -89.675781 80.613281 -89.363281 80.34375 -89.09375 C 80.082031 -88.832031 79.863281 -88.570312 79.6875 -88.3125 C 79.332031 -87.863281 79.023438 -87.285156 78.765625 -86.578125 C 78.765625 -86.140625 78.628906 -85.390625 78.359375 -84.328125 L 75.96875 -65.640625 L 70.140625 -23.609375 L 69.484375 -18.703125 C 69.210938 -16.398438 68.941406 -14.453125 68.671875 -12.859375 C 68.410156 -11.265625 68.191406 -10.070312 68.015625 -9.28125 C 67.484375 -6.445312 66.734375 -4.414062 65.765625 -3.1875 C 64.617188 -1.59375 62.320312 -0.617188 58.875 -0.265625 C 57.988281 -0.171875 56.660156 -0.101562 54.890625 -0.0625 C 53.117188 -0.0195312 50.910156 0 48.265625 0 L 18.4375 0 C 16.21875 0 14.359375 -0.0195312 12.859375 -0.0625 C 11.359375 -0.101562 10.210938 -0.125 9.421875 -0.125 C 5.347656 -0.394531 2.867188 -1.457031 1.984375 -3.3125 C 1.546875 -4.375 1.328125 -5.65625 1.328125 -7.15625 C 1.328125 -7.601562 1.347656 -8.023438 1.390625 -8.421875 C 1.429688 -8.816406 1.453125 -9.234375 1.453125 -9.671875 C 1.628906 -11.359375 2.03125 -14.367188 2.65625 -18.703125 C 2.914062 -20.460938 3.222656 -22.601562 3.578125 -25.125 C 3.929688 -27.644531 4.328125 -30.539062 4.765625 -33.8125 C 5.296875 -37.164062 5.71875 -39.925781 6.03125 -42.09375 C 6.34375 -44.257812 6.539062 -45.921875 6.625 -47.078125 C 7.332031 -52.285156 7.863281 -55.640625 8.21875 -57.140625 C 8.925781 -60.148438 9.851562 -62.1875 11 -63.25 C 12.0625 -64.3125 13.785156 -64.972656 16.171875 -65.234375 C 18.023438 -65.503906 21.382812 -65.640625 26.25 -65.640625 L 57.140625 -65.640625 Z M 30.890625 -47.078125 C 30.628906 -47.078125 30.273438 -47.078125 29.828125 -47.078125 C 29.390625 -47.078125 28.816406 -47.03125 28.109375 -46.9375 C 27.492188 -46.9375 27.097656 -46.894531 26.921875 -46.8125 C 26.648438 -46.8125 26.335938 -46.632812 25.984375 -46.28125 C 25.722656 -46.007812 25.457031 -45.476562 25.1875 -44.6875 C 25.1875 -44.332031 25.054688 -43.492188 24.796875 -42.171875 L 21.484375 -18.703125 L 48.125 -18.703125 C 49.101562 -18.867188 49.722656 -19.128906 49.984375 -19.484375 C 50.253906 -19.753906 50.476562 -20.195312 50.65625 -20.8125 C 50.832031 -21.082031 50.960938 -21.457031 51.046875 -21.9375 C 51.140625 -22.425781 51.226562 -22.984375 51.3125 -23.609375 L 54.5 -47.078125 Z M 30.890625 -47.078125 "/></g></g></g><g fill="#ffffff" fill-opacity="1"><g transform="translate(269.895171, 662.773221)"><g><path d="M 60.46875 -65.765625 C 64.351562 -65.765625 67.09375 -65.632812 68.6875 -65.375 C 70.625 -65.101562 71.945312 -64.660156 72.65625 -64.046875 C 73.988281 -63.160156 74.65625 -61.300781 74.65625 -58.46875 C 74.65625 -58.207031 74.65625 -57.941406 74.65625 -57.671875 C 74.65625 -57.410156 74.609375 -57.0625 74.515625 -56.625 C 74.515625 -55.820312 74.425781 -54.625 74.25 -53.03125 C 74.070312 -51.445312 73.804688 -49.460938 73.453125 -47.078125 L 71.328125 -32.21875 L 69.484375 -18.703125 C 69.128906 -15.515625 68.75 -12.925781 68.34375 -10.9375 C 67.945312 -8.945312 67.570312 -7.46875 67.21875 -6.5 C 66.6875 -4.644531 65.804688 -3.226562 64.578125 -2.25 C 63.597656 -1.539062 62.140625 -0.96875 60.203125 -0.53125 C 59.316406 -0.4375 57.8125 -0.320312 55.6875 -0.1875 C 53.5625 -0.0625 50.820312 0 47.46875 0 L 18.703125 0 C 15.515625 0 12.90625 -0.0625 10.875 -0.1875 C 8.84375 -0.320312 7.335938 -0.4375 6.359375 -0.53125 C 4.503906 -0.96875 3.179688 -1.628906 2.390625 -2.515625 C 1.679688 -3.492188 1.328125 -5.039062 1.328125 -7.15625 L 1.328125 -7.953125 C 1.503906 -9.804688 1.898438 -13.390625 2.515625 -18.703125 L 3.3125 -23.609375 C 3.664062 -25.992188 3.972656 -27.976562 4.234375 -29.5625 C 4.503906 -31.15625 4.679688 -32.347656 4.765625 -33.140625 C 5.390625 -36.242188 6.273438 -38.367188 7.421875 -39.515625 C 8.660156 -40.753906 10.382812 -41.503906 12.59375 -41.765625 C 14.445312 -42.035156 17.851562 -42.171875 22.8125 -42.171875 L 50.515625 -42.171875 C 51.046875 -42.171875 51.507812 -42.191406 51.90625 -42.234375 C 52.300781 -42.273438 52.546875 -42.296875 52.640625 -42.296875 C 53.078125 -42.390625 53.472656 -42.609375 53.828125 -42.953125 C 54.097656 -43.222656 54.234375 -43.625 54.234375 -44.15625 C 54.410156 -44.6875 54.539062 -45.660156 54.625 -47.078125 L 25.453125 -47.078125 C 23.066406 -47.078125 21.054688 -47.097656 19.421875 -47.140625 C 17.785156 -47.179688 16.570312 -47.242188 15.78125 -47.328125 C 13.476562 -47.679688 11.84375 -48.476562 10.875 -49.71875 C 10.070312 -50.957031 9.539062 -52.992188 9.28125 -55.828125 C 9.28125 -56.617188 9.257812 -57.675781 9.21875 -59 C 9.175781 -60.332031 9.15625 -61.835938 9.15625 -63.515625 L 9.15625 -65.765625 Z M 25.1875 -23.609375 C 24.039062 -23.609375 23.378906 -23.5625 23.203125 -23.46875 C 22.941406 -23.46875 22.632812 -23.289062 22.28125 -22.9375 C 22.101562 -22.757812 21.925781 -22.097656 21.75 -20.953125 C 21.75 -20.503906 21.613281 -19.753906 21.34375 -18.703125 L 47.328125 -18.703125 C 47.859375 -18.703125 48.320312 -18.722656 48.71875 -18.765625 C 49.125 -18.804688 49.367188 -18.828125 49.453125 -18.828125 C 49.984375 -18.910156 50.296875 -19.085938 50.390625 -19.359375 C 50.566406 -19.535156 50.742188 -19.976562 50.921875 -20.6875 C 51.097656 -21.21875 51.226562 -22.191406 51.3125 -23.609375 Z M 25.1875 -23.609375 "/></g></g></g><g fill="#ffffff" fill-opacity="1"><g transform="translate(345.738854, 662.773221)"><g><path d="M 6.5 -47.078125 C 7.289062 -52.734375 7.953125 -56.488281 8.484375 -58.34375 C 9.109375 -60.8125 10.125 -62.625 11.53125 -63.78125 C 12.6875 -64.664062 14.457031 -65.238281 16.84375 -65.5 C 17.8125 -65.675781 19.113281 -65.765625 20.75 -65.765625 C 22.382812 -65.765625 24.394531 -65.765625 26.78125 -65.765625 L 75.96875 -65.765625 C 75.175781 -59.753906 74.425781 -55.734375 73.71875 -53.703125 C 72.925781 -51.222656 71.601562 -49.5 69.75 -48.53125 C 69.21875 -48.257812 68.617188 -48.054688 67.953125 -47.921875 C 67.285156 -47.796875 66.46875 -47.644531 65.5 -47.46875 C 63.90625 -47.207031 60.945312 -47.078125 56.625 -47.078125 L 30.625 -47.078125 C 29.738281 -47.078125 28.960938 -47.078125 28.296875 -47.078125 C 27.640625 -47.078125 27.179688 -47.03125 26.921875 -46.9375 C 26.296875 -46.9375 25.851562 -46.71875 25.59375 -46.28125 C 25.414062 -46.101562 25.238281 -45.703125 25.0625 -45.078125 C 25.0625 -44.722656 24.925781 -43.796875 24.65625 -42.296875 L 53.828125 -42.296875 C 56.484375 -42.296875 58.671875 -42.296875 60.390625 -42.296875 C 62.117188 -42.296875 63.378906 -42.207031 64.171875 -42.03125 C 67.003906 -41.769531 68.90625 -41.0625 69.875 -39.90625 C 70.757812 -38.9375 71.203125 -37.210938 71.203125 -34.734375 L 71.203125 -33.9375 C 71.203125 -33.144531 71.113281 -31.882812 70.9375 -30.15625 C 70.757812 -28.4375 70.492188 -26.253906 70.140625 -23.609375 L 69.484375 -18.703125 C 69.128906 -15.773438 68.75 -13.363281 68.34375 -11.46875 C 67.945312 -9.570312 67.617188 -8.132812 67.359375 -7.15625 C 66.828125 -5.300781 66.207031 -3.929688 65.5 -3.046875 C 64.4375 -1.984375 62.9375 -1.1875 61 -0.65625 C 60.113281 -0.570312 58.5625 -0.460938 56.34375 -0.328125 C 54.132812 -0.191406 51.351562 -0.125 48 -0.125 L 18.828125 -0.125 C 15.378906 -0.125 12.59375 -0.191406 10.46875 -0.328125 C 8.351562 -0.460938 6.804688 -0.570312 5.828125 -0.65625 C 4.148438 -1.1875 2.957031 -1.894531 2.25 -2.78125 C 1.632812 -3.757812 1.328125 -5.265625 1.328125 -7.296875 C 1.328125 -9.054688 1.722656 -12.859375 2.515625 -18.703125 L 46.140625 -18.703125 C 46.929688 -18.703125 47.59375 -18.722656 48.125 -18.765625 C 48.65625 -18.804688 49.007812 -18.828125 49.1875 -18.828125 C 49.632812 -18.910156 50.035156 -19.128906 50.390625 -19.484375 C 50.742188 -20.015625 50.921875 -20.546875 50.921875 -21.078125 C 51.097656 -21.609375 51.226562 -22.453125 51.3125 -23.609375 L 18.828125 -23.609375 C 17.054688 -23.609375 15.507812 -23.628906 14.1875 -23.671875 C 12.863281 -23.710938 11.800781 -23.773438 11 -23.859375 C 8.53125 -24.128906 6.71875 -24.75 5.5625 -25.71875 C 4.6875 -26.78125 4.25 -28.285156 4.25 -30.234375 L 4.25 -31.828125 C 4.425781 -32.703125 4.644531 -34 4.90625 -35.71875 C 5.164062 -37.445312 5.472656 -39.640625 5.828125 -42.296875 Z M 6.5 -47.078125 "/></g></g></g><g fill="#ffffff" fill-opacity="1"><g transform="translate(421.052165, 662.773221)"><g><path d="M 9.015625 -92.8125 L 22.671875 -92.8125 C 24.796875 -92.8125 26.519531 -92.59375 27.84375 -92.15625 C 29.34375 -91.882812 30.40625 -91.304688 31.03125 -90.421875 C 31.820312 -89.546875 32.21875 -88.085938 32.21875 -86.046875 C 32.21875 -85.960938 32.21875 -85.804688 32.21875 -85.578125 C 32.21875 -85.359375 32.175781 -85.117188 32.09375 -84.859375 C 32.09375 -83.972656 31.957031 -82.644531 31.6875 -80.875 C 31.425781 -79.113281 31.070312 -76.863281 30.625 -74.125 L 29.4375 -65.765625 L 60.859375 -65.765625 C 62.984375 -65.765625 64.773438 -65.765625 66.234375 -65.765625 C 67.691406 -65.765625 68.816406 -65.675781 69.609375 -65.5 C 72.085938 -65.238281 73.8125 -64.53125 74.78125 -63.375 C 75.570312 -62.488281 75.96875 -60.851562 75.96875 -58.46875 L 75.96875 -57.140625 C 75.96875 -55.460938 75.570312 -52.109375 74.78125 -47.078125 L 70.8125 -18.703125 C 70.539062 -16.398438 70.296875 -14.453125 70.078125 -12.859375 C 69.859375 -11.265625 69.660156 -10.070312 69.484375 -9.28125 C 68.953125 -6.894531 68.285156 -5.039062 67.484375 -3.71875 C 66.429688 -2.03125 64.269531 -0.921875 61 -0.390625 C 59.132812 -0.128906 55.6875 0 50.65625 0 L 49.328125 0 L 51.984375 -18.703125 L 55.953125 -47.078125 L 26.78125 -47.078125 L 22.8125 -18.703125 C 22.457031 -16.046875 22.125 -13.832031 21.8125 -12.0625 C 21.5 -10.300781 21.210938 -8.929688 20.953125 -7.953125 C 20.421875 -5.390625 19.535156 -3.578125 18.296875 -2.515625 C 16.972656 -1.367188 15.070312 -0.660156 12.59375 -0.390625 C 10.738281 -0.128906 7.378906 0 2.515625 0 L 1.328125 0 L 3.984375 -18.703125 L 8.890625 -54.09375 L 13.125 -84.46875 C 13.394531 -85.695312 13.53125 -86.445312 13.53125 -86.71875 C 13.53125 -87.6875 13.441406 -88.304688 13.265625 -88.578125 C 12.992188 -89.109375 12.460938 -89.769531 11.671875 -90.5625 C 11.492188 -90.820312 11.179688 -91.128906 10.734375 -91.484375 C 10.296875 -91.835938 9.722656 -92.28125 9.015625 -92.8125 Z M 9.015625 -92.8125 "/></g></g></g><g fill="#ffffff" fill-opacity="1"><g transform="translate(498.35438, 662.773221)"><g><path d="M 7.421875 -47.078125 C 7.867188 -49.640625 8.222656 -51.757812 8.484375 -53.4375 C 8.753906 -55.113281 8.929688 -56.347656 9.015625 -57.140625 C 9.722656 -60.148438 10.648438 -62.1875 11.796875 -63.25 C 12.859375 -64.3125 14.363281 -64.972656 16.3125 -65.234375 C 17.28125 -65.410156 18.5625 -65.539062 20.15625 -65.625 C 21.75 -65.71875 23.691406 -65.765625 25.984375 -65.765625 L 76.90625 -65.765625 C 76.550781 -63.023438 76.21875 -60.75 75.90625 -58.9375 C 75.601562 -57.125 75.316406 -55.734375 75.046875 -54.765625 C 74.335938 -52.109375 73.363281 -50.296875 72.125 -49.328125 C 71.507812 -48.796875 70.710938 -48.375 69.734375 -48.0625 C 68.765625 -47.75 67.578125 -47.503906 66.171875 -47.328125 C 65.285156 -47.242188 63.957031 -47.179688 62.1875 -47.140625 C 60.414062 -47.097656 58.117188 -47.078125 55.296875 -47.078125 L 32.75 -47.078125 C 31.78125 -47.078125 30.960938 -47.078125 30.296875 -47.078125 C 29.628906 -47.078125 29.117188 -47.03125 28.765625 -46.9375 C 28.066406 -46.9375 27.453125 -46.757812 26.921875 -46.40625 C 26.648438 -46.144531 26.382812 -45.613281 26.125 -44.8125 C 26.03125 -44.632812 25.9375 -44.28125 25.84375 -43.75 C 25.757812 -43.21875 25.628906 -42.515625 25.453125 -41.640625 L 22.28125 -18.703125 C 21.925781 -16.046875 21.613281 -13.832031 21.34375 -12.0625 C 21.082031 -10.300781 20.816406 -8.929688 20.546875 -7.953125 C 20.015625 -5.828125 19.351562 -4.238281 18.5625 -3.1875 C 17.5 -2.03125 15.953125 -1.1875 13.921875 -0.65625 C 13.304688 -0.570312 12.46875 -0.484375 11.40625 -0.390625 C 10.34375 -0.304688 9.101562 -0.21875 7.6875 -0.125 C 7.070312 -0.125 6.273438 -0.101562 5.296875 -0.0625 C 4.328125 -0.0195312 3.09375 0 1.59375 0 L -3.984375 0 C -3.003906 -0.96875 -2.25 -1.738281 -1.71875 -2.3125 C -1.1875 -2.894531 -0.789062 -3.363281 -0.53125 -3.71875 C 0.613281 -4.863281 1.273438 -5.742188 1.453125 -6.359375 C 1.628906 -6.628906 1.738281 -6.914062 1.78125 -7.21875 C 1.832031 -7.53125 1.898438 -7.863281 1.984375 -8.21875 C 2.160156 -8.75 2.296875 -9.722656 2.390625 -11.140625 Z M 7.421875 -47.078125 "/></g></g></g></svg>