<svg xmlns="http://www.w3.org/2000/svg" xmlns:xlink="http://www.w3.org/1999/xlink" width="500" zoomAndPan="magnify" viewBox="0 0 375 374.999991" height="500" preserveAspectRatio="xMidYMid meet" version="1.0"><rect x="-37.5" width="450" fill="#ffffff" y="-37.499999" height="449.999989" fill-opacity="1"/><rect x="-37.5" width="450" fill="#ffffff" y="-37.499999" height="449.999989" fill-opacity="1"/><path fill="#000000" d="M 238.820312 190.71875 C 235.875 192.75 232.605469 193.765625 229.085938 194.0625 C 227.898438 194.164062 226.785156 194.039062 225.867188 193.195312 C 224.902344 192.304688 224.53125 190.820312 225.074219 189.605469 C 225.71875 188.121094 226.980469 187.648438 228.542969 187.550781 C 233.992188 187.253906 237.757812 184.453125 239.785156 179.449219 C 241.667969 174.769531 240.40625 169.394531 236.617188 165.976562 C 234.957031 164.464844 234.710938 162.980469 235.425781 160.949219 C 237.929688 153.9375 233.199219 146.011719 225.84375 144.722656 C 218.113281 143.386719 211.328125 148.960938 211.003906 156.910156 C 210.929688 158.992188 209.667969 160.277344 207.734375 160.277344 C 205.855469 160.253906 204.566406 158.867188 204.566406 156.835938 C 204.539062 154.261719 205.085938 151.757812 206.152344 149.457031 C 209.074219 143.261719 213.878906 139.449219 220.691406 138.332031 C 221.308594 138.234375 221.804688 138.109375 222.078125 137.367188 C 223.710938 133.109375 221.136719 127.980469 216.726562 126.839844 C 212.886719 125.851562 209.320312 127.386719 207.390625 130.929688 C 206.375 132.785156 204.539062 133.40625 202.855469 132.488281 C 201.296875 131.621094 200.75 129.839844 201.570312 128.152344 C 203.078125 125.03125 205.507812 122.878906 208.554688 121.34375 C 206.050781 119.386719 199.191406 117.28125 196.144531 117.503906 C 193.445312 117.703125 190.917969 119.855469 190.867188 122.457031 C 190.769531 131.078125 190.820312 139.722656 190.820312 148.390625 C 191.710938 148.066406 192.527344 147.695312 193.394531 147.5 C 194.261719 147.277344 195.179688 147.175781 196.070312 147.125 C 198.101562 147.003906 199.585938 148.214844 199.734375 150.074219 C 199.882812 152.03125 198.570312 153.417969 196.464844 153.566406 C 192.875 153.839844 190.769531 156.117188 190.769531 159.785156 C 190.769531 175.140625 190.769531 190.496094 190.769531 205.855469 C 190.769531 206.175781 190.621094 206.570312 190.941406 206.917969 C 191.191406 206.695312 191.4375 206.496094 191.6875 206.273438 C 194.089844 204.21875 196.8125 202.78125 199.859375 201.941406 C 201.691406 201.445312 203.351562 202.3125 203.898438 203.996094 C 204.464844 205.804688 203.648438 207.363281 201.765625 208.058594 C 200.703125 208.453125 199.613281 208.824219 198.597656 209.347656 C 192.75 212.367188 189.582031 219.328125 191.089844 225.769531 C 191.734375 228.441406 193.121094 230.871094 194.980469 232.777344 C 197.605469 235.425781 201.148438 237.113281 204.9375 237.160156 C 209.496094 237.234375 213.183594 235.773438 216.035156 232.777344 C 216.902344 231.886719 217.667969 230.84375 218.363281 229.679688 C 218.90625 228.765625 219.5 227.972656 220.566406 227.675781 C 227.949219 225.769531 232.828125 218.140625 231.316406 210.585938 C 230.945312 208.703125 231.613281 207.539062 233.347656 206.71875 C 236.367188 205.285156 238.523438 203.003906 239.738281 199.910156 C 240.976562 196.738281 240.925781 193.542969 239.515625 190.324219 C 239.21875 190.449219 239.019531 190.570312 238.820312 190.71875 Z M 196.441406 165.628906 C 197.777344 164.242188 199.710938 164.367188 201.347656 165.851562 C 205.210938 169.371094 209.667969 170.433594 214.523438 168.503906 C 219.601562 166.496094 222.300781 162.582031 222.546875 157.082031 C 222.648438 154.929688 223.933594 153.589844 225.867188 153.640625 C 227.847656 153.691406 229.0625 155.078125 229.039062 157.234375 C 228.9375 165.503906 223.414062 173.109375 215.414062 175.265625 C 214.992188 175.386719 214.421875 175.511719 213.855469 175.660156 C 215.339844 178.757812 217.71875 180.515625 221.210938 180.613281 C 222.621094 180.664062 223.636719 181.308594 224.230469 182.546875 C 224.777344 183.710938 224.605469 184.875 223.785156 185.890625 C 223.09375 186.730469 222.199219 187.105469 221.085938 187.105469 C 214.894531 187.128906 208.925781 182.621094 207.363281 176.625 C 207.167969 175.882812 206.871094 175.585938 206.101562 175.4375 C 202.535156 174.695312 199.414062 173.058594 196.8125 170.507812 C 195.253906 168.972656 195.105469 167.015625 196.441406 165.628906 Z M 222.027344 212.988281 C 217.050781 213.210938 213.285156 215.4375 210.882812 219.847656 C 209.941406 221.582031 209.570312 223.441406 209.46875 225.394531 C 209.371094 227.453125 208.109375 228.789062 206.226562 228.789062 C 204.292969 228.765625 202.957031 227.328125 203.03125 225.222656 C 203.328125 217.765625 206.84375 212.269531 213.359375 208.703125 C 214.152344 208.257812 214.347656 207.808594 214.300781 206.992188 C 213.753906 200.132812 208.777344 195.351562 201.839844 195.054688 C 199.859375 194.980469 198.449219 193.542969 198.496094 191.710938 C 198.570312 189.878906 199.933594 188.613281 201.914062 188.589844 C 210.1875 188.464844 218.089844 194.582031 220.097656 202.609375 C 220.417969 203.871094 220.640625 205.160156 220.789062 206.597656 C 221.261719 206.597656 221.632812 206.597656 222.003906 206.597656 C 223.859375 206.644531 225.222656 207.984375 225.246094 209.742188 C 225.296875 211.550781 223.960938 212.914062 222.027344 212.988281 Z M 222.027344 212.988281 " fill-opacity="1" fill-rule="nonzero"/><path fill="#000000" d="M 199.933594 279.664062 C 199.933594 280.480469 199.855469 281.289062 199.695312 282.089844 C 199.535156 282.890625 199.300781 283.667969 198.988281 284.421875 C 198.675781 285.175781 198.292969 285.894531 197.839844 286.574219 C 197.386719 287.25 196.871094 287.878906 196.292969 288.457031 C 195.714844 289.035156 195.085938 289.550781 194.40625 290.003906 C 193.730469 290.457031 193.011719 290.839844 192.257812 291.152344 C 191.503906 291.464844 190.726562 291.699219 189.925781 291.859375 C 189.125 292.019531 188.316406 292.097656 187.5 292.097656 C 186.683594 292.097656 185.875 292.019531 185.074219 291.859375 C 184.273438 291.699219 183.496094 291.464844 182.742188 291.152344 C 181.988281 290.839844 181.269531 290.457031 180.59375 290.003906 C 179.914062 289.550781 179.285156 289.035156 178.707031 288.457031 C 178.128906 287.878906 177.613281 287.25 177.160156 286.574219 C 176.707031 285.894531 176.324219 285.175781 176.011719 284.421875 C 175.699219 283.667969 175.464844 282.890625 175.304688 282.089844 C 175.144531 281.289062 175.066406 280.480469 175.066406 279.664062 C 175.066406 278.847656 175.144531 278.039062 175.304688 277.238281 C 175.464844 276.4375 175.699219 275.660156 176.011719 274.90625 C 176.324219 274.152344 176.707031 273.4375 177.160156 272.757812 C 177.613281 272.078125 178.128906 271.449219 178.707031 270.871094 C 179.285156 270.296875 179.914062 269.78125 180.59375 269.328125 C 181.269531 268.871094 181.988281 268.488281 182.742188 268.175781 C 183.496094 267.863281 184.273438 267.628906 185.074219 267.46875 C 185.875 267.308594 186.683594 267.230469 187.5 267.230469 C 188.316406 267.230469 189.125 267.308594 189.925781 267.46875 C 190.726562 267.628906 191.503906 267.863281 192.257812 268.175781 C 193.011719 268.488281 193.730469 268.871094 194.40625 269.328125 C 195.085938 269.78125 195.714844 270.296875 196.292969 270.871094 C 196.871094 271.449219 197.386719 272.078125 197.839844 272.757812 C 198.292969 273.4375 198.675781 274.152344 198.988281 274.90625 C 199.300781 275.660156 199.535156 276.4375 199.695312 277.238281 C 199.855469 278.039062 199.933594 278.847656 199.933594 279.664062 Z M 199.933594 279.664062 " fill-opacity="1" fill-rule="nonzero"/><path fill="#000000" d="M 184.253906 222.425781 C 184.179688 215.265625 184.230469 208.109375 184.230469 200.925781 C 184.230469 184.179688 184.230469 167.4375 184.230469 150.695312 C 184.230469 147.050781 182.050781 144.675781 178.535156 144.5 C 176.527344 144.402344 175.214844 143.015625 175.289062 141.109375 C 175.339844 139.300781 176.75 138.0625 178.730469 138.0625 C 180.640625 138.0625 182.421875 138.582031 184.207031 139.398438 C 184.207031 133.703125 184.230469 128.179688 184.179688 122.65625 C 184.15625 120.945312 183.265625 119.632812 181.925781 118.617188 C 180.242188 117.355469 178.335938 117.304688 176.304688 117.628906 C 172.789062 118.171875 169.566406 119.484375 166.347656 121.195312 C 166.890625 121.515625 167.3125 121.738281 167.734375 121.988281 C 170.261719 123.496094 172.21875 125.527344 173.503906 128.179688 C 174.519531 130.332031 172.984375 132.835938 170.632812 132.808594 C 169.195312 132.808594 168.230469 132.019531 167.535156 130.753906 C 165.503906 127.039062 161.195312 125.480469 157.457031 127.039062 C 153.566406 128.675781 151.609375 132.785156 152.75 136.824219 C 152.996094 137.714844 153.441406 137.988281 154.410156 138.285156 C 155.425781 138.582031 156.5625 138.707031 157.628906 139.050781 C 165.085938 141.429688 170.683594 149.257812 170.460938 157.007812 C 170.410156 158.867188 169.097656 160.203125 167.289062 160.230469 C 165.457031 160.253906 164.144531 158.992188 164.019531 157.132812 C 163.96875 156.441406 163.921875 155.746094 163.796875 155.054688 C 162.953125 150.199219 160.179688 146.855469 155.574219 145.21875 C 150.644531 143.484375 146.136719 144.574219 142.496094 148.289062 C 138.953125 151.90625 138.035156 156.292969 139.648438 161.097656 C 140.265625 162.980469 140.019531 164.390625 138.484375 165.800781 C 135.0625 168.972656 133.75 172.960938 134.667969 177.59375 C 135.808594 183.289062 141.132812 187.550781 146.78125 187.523438 C 148.8125 187.523438 150.171875 188.984375 150.148438 190.820312 C 150.125 192.703125 148.613281 194.089844 146.53125 194.015625 C 144.773438 193.941406 143.039062 193.667969 141.332031 193.171875 C 139.226562 192.527344 137.320312 191.464844 135.484375 190.25 C 132.660156 195.972656 135.3125 203.425781 141.132812 206.398438 C 143.558594 207.636719 143.957031 208.429688 143.558594 211.078125 C 142.445312 218.3125 146.828125 225.347656 153.863281 227.453125 C 155.101562 227.824219 155.917969 228.46875 156.5625 229.558594 C 157.257812 230.722656 158.050781 231.785156 158.941406 232.703125 C 162.605469 236.417969 167.832031 237.953125 172.984375 236.691406 C 175.636719 236.046875 178.011719 234.609375 179.894531 232.703125 C 182.644531 229.980469 184.28125 226.238281 184.253906 222.425781 Z M 172.9375 194.957031 C 166.273438 195.128906 160.875 200.527344 160.699219 207.117188 C 160.675781 207.859375 160.847656 208.257812 161.566406 208.628906 C 168.03125 212.167969 171.574219 217.59375 171.894531 225 C 171.996094 227.203125 170.707031 228.714844 168.773438 228.765625 C 166.890625 228.8125 165.503906 227.304688 165.457031 225.148438 C 165.28125 218.78125 160.328125 213.558594 153.964844 213.0625 C 153.46875 213.011719 152.972656 213.011719 152.5 212.9375 C 150.695312 212.640625 149.605469 211.277344 149.726562 209.496094 C 149.828125 207.859375 151.164062 206.597656 152.898438 206.523438 C 153.269531 206.496094 153.640625 206.523438 154.1875 206.523438 C 154.410156 204.09375 154.855469 201.742188 155.917969 199.613281 C 159.414062 192.652344 165.011719 188.863281 172.863281 188.566406 C 174.992188 188.492188 176.429688 189.828125 176.453125 191.710938 C 176.503906 193.59375 175.089844 194.90625 172.9375 194.957031 Z M 178.484375 170.210938 C 175.832031 172.910156 172.664062 174.695312 168.949219 175.414062 C 168.230469 175.5625 167.882812 175.785156 167.636719 176.550781 C 165.605469 182.894531 160.578125 186.832031 154.210938 187.105469 C 152.847656 187.179688 151.683594 186.78125 150.941406 185.566406 C 150.296875 184.503906 150.273438 183.386719 150.867188 182.296875 C 151.558594 181.058594 152.699219 180.6875 154.0625 180.613281 C 157.082031 180.441406 159.289062 178.929688 160.800781 176.355469 C 160.949219 176.105469 160.996094 175.832031 161.144531 175.511719 C 157.007812 174.519531 153.492188 172.5625 150.71875 169.394531 C 147.695312 165.925781 146.136719 161.914062 145.960938 157.332031 C 145.886719 155.226562 147.152344 153.714844 149.058594 153.617188 C 150.941406 153.515625 152.304688 154.902344 152.453125 157.035156 C 152.800781 162.929688 155.96875 167.214844 161.46875 168.847656 C 166.101562 170.210938 170.261719 169.070312 173.804688 165.753906 C 175.460938 164.191406 177.566406 164.292969 178.832031 165.949219 C 179.820312 167.289062 179.722656 168.972656 178.484375 170.210938 Z M 178.484375 170.210938 " fill-opacity="1" fill-rule="nonzero"/><path fill="#000000" d="M 360.289062 114.507812 C 350.851562 92.191406 337.328125 72.125 320.113281 54.914062 C 302.875 37.699219 282.835938 24.175781 260.492188 14.710938 C 237.382812 4.953125 212.8125 -0.0234375 187.5 -0.0234375 C 162.1875 -0.0234375 137.640625 4.953125 114.53125 14.710938 C 92.191406 24.175781 72.125 37.699219 54.914062 54.914062 C 37.699219 72.125 24.175781 92.191406 14.738281 114.507812 C 4.953125 137.640625 0 162.1875 0 187.5 C 0 212.8125 4.953125 237.359375 14.738281 260.492188 C 24.175781 282.808594 37.699219 302.875 54.914062 320.085938 C 72.125 337.300781 92.191406 350.824219 114.53125 360.289062 C 137.640625 370.046875 162.1875 375.023438 187.5 375.023438 C 212.8125 375.023438 237.382812 370.046875 260.492188 360.289062 C 282.835938 350.824219 302.875 337.300781 320.113281 320.085938 C 337.328125 302.875 350.851562 282.808594 360.289062 260.492188 C 370.070312 237.359375 375.023438 212.8125 375.023438 187.5 C 375.023438 162.1875 370.070312 137.640625 360.289062 114.507812 Z M 243.800781 114.132812 L 267.082031 90.851562 C 268 89.9375 269.210938 89.441406 270.5 89.441406 C 271.789062 89.441406 273.003906 89.9375 273.917969 90.851562 C 274.835938 91.769531 275.332031 92.980469 275.332031 94.269531 C 275.332031 95.558594 274.835938 96.773438 273.917969 97.6875 L 250.636719 120.972656 C 249.71875 121.886719 248.503906 122.382812 247.21875 122.382812 C 245.929688 122.382812 244.714844 121.886719 243.800781 120.972656 C 241.917969 119.089844 241.917969 116.015625 243.800781 114.132812 Z M 182.671875 59.890625 C 182.671875 57.214844 184.851562 55.0625 187.5 55.0625 C 190.175781 55.0625 192.328125 57.242188 192.328125 59.890625 L 192.328125 92.808594 C 192.328125 95.484375 190.148438 97.640625 187.5 97.640625 C 184.824219 97.640625 182.671875 95.460938 182.671875 92.808594 Z M 101.082031 90.851562 C 101.996094 89.9375 103.210938 89.441406 104.5 89.441406 C 105.789062 89.441406 107 89.9375 107.917969 90.851562 L 131.199219 114.132812 C 133.082031 116.015625 133.082031 119.089844 131.199219 120.972656 C 130.285156 121.886719 129.070312 122.382812 127.78125 122.382812 C 126.496094 122.382812 125.28125 121.886719 124.363281 120.972656 L 101.082031 97.6875 C 99.175781 95.804688 99.175781 92.734375 101.082031 90.851562 Z M 65.265625 177.296875 C 65.265625 174.621094 67.445312 172.464844 70.097656 172.464844 L 103.011719 172.464844 C 105.6875 172.464844 107.84375 174.644531 107.84375 177.296875 C 107.84375 179.96875 105.664062 182.125 103.011719 182.125 L 70.097656 182.125 C 67.445312 182.125 65.265625 179.945312 65.265625 177.296875 Z M 131.199219 240.429688 L 107.917969 263.714844 C 107 264.628906 105.789062 265.125 104.5 265.125 C 103.210938 265.125 101.996094 264.628906 101.082031 263.714844 C 99.199219 261.832031 99.199219 258.761719 101.082031 256.878906 L 124.363281 233.59375 C 125.28125 232.679688 126.496094 232.183594 127.78125 232.183594 C 129.070312 232.183594 130.285156 232.679688 131.199219 233.59375 C 132.117188 234.511719 132.613281 235.726562 132.613281 237.011719 C 132.613281 238.324219 132.09375 239.539062 131.199219 240.429688 Z M 238.769531 210.980469 C 238.152344 211.425781 237.980469 211.847656 238.003906 212.566406 C 238.152344 222.078125 233.125 229.605469 224.257812 233.199219 C 223.8125 233.371094 223.515625 233.644531 223.242188 234.039062 C 221.433594 236.816406 219.15625 238.96875 216.578125 240.53125 L 216.578125 286.425781 C 216.578125 287.714844 216.132812 288.953125 215.289062 289.917969 L 191.613281 318.007812 C 189.433594 320.582031 185.46875 320.582031 183.3125 318.007812 L 159.636719 289.917969 C 158.816406 288.929688 158.347656 287.691406 158.347656 286.425781 L 158.347656 240.503906 C 155.871094 238.996094 153.664062 236.9375 151.90625 234.386719 C 151.484375 233.742188 150.964844 233.347656 150.246094 233.050781 C 142.296875 229.929688 136.574219 221.828125 136.945312 212.738281 C 136.972656 211.945312 136.824219 211.425781 136.105469 210.929688 C 127.957031 205.183594 125.527344 194.734375 130.332031 186.015625 C 130.65625 185.417969 130.707031 185.023438 130.332031 184.378906 C 126.394531 177.296875 127.210938 168.996094 132.4375 162.730469 C 132.882812 162.210938 132.960938 161.765625 132.835938 161.097656 C 130.855469 150.964844 136.253906 141.925781 146.109375 138.804688 C 146.1875 138.78125 144.054688 132.214844 149.207031 125.304688 C 149.925781 124.414062 150.71875 123.523438 151.683594 122.953125 C 155.671875 120.625 159.1875 117.578125 163.324219 115.449219 C 166.890625 113.589844 170.609375 112.078125 174.570312 111.359375 C 179.375 110.492188 183.808594 111.136719 187.402344 114.925781 C 188.835938 113.566406 190.375 112.449219 192.179688 111.78125 C 196.046875 110.394531 199.859375 111.0625 203.625 112.179688 C 209.347656 113.863281 214.421875 116.785156 219.15625 120.375 C 219.847656 120.898438 220.566406 121.34375 221.308594 121.761719 C 227.15625 124.957031 230.003906 131.273438 228.589844 137.738281 C 228.542969 138.011719 228.492188 138.285156 228.394531 138.679688 C 230.054688 139.175781 231.636719 139.796875 233.097656 140.664062 C 240.207031 144.921875 243.625 152.699219 242.015625 161.070312 C 241.890625 161.714844 241.941406 162.1875 242.386719 162.730469 C 247.664062 169.023438 248.457031 177.34375 244.46875 184.476562 C 244.171875 185 244.144531 185.34375 244.445312 185.890625 C 249.445312 194.683594 247.042969 205.160156 238.769531 210.980469 Z M 273.917969 263.714844 C 273.003906 264.628906 271.789062 265.125 270.5 265.125 C 269.210938 265.125 268 264.628906 267.082031 263.714844 L 243.800781 240.429688 C 241.917969 238.546875 241.917969 235.476562 243.800781 233.59375 C 244.714844 232.679688 245.929688 232.183594 247.21875 232.183594 C 248.503906 232.183594 249.71875 232.679688 250.636719 233.59375 L 273.917969 256.878906 C 274.835938 257.792969 275.332031 259.007812 275.332031 260.296875 C 275.355469 261.582031 274.835938 262.796875 273.917969 263.714844 Z M 304.902344 182.125 L 271.960938 182.125 C 269.285156 182.125 267.132812 179.945312 267.132812 177.296875 C 267.132812 174.621094 269.3125 172.464844 271.960938 172.464844 L 304.878906 172.464844 C 307.554688 172.464844 309.710938 174.644531 309.710938 177.296875 C 309.734375 179.945312 307.554688 182.125 304.902344 182.125 Z M 304.902344 182.125 " fill-opacity="1" fill-rule="nonzero"/></svg>