<svg xmlns="http://www.w3.org/2000/svg" xmlns:xlink="http://www.w3.org/1999/xlink" width="500" zoomAndPan="magnify" viewBox="0 0 375 374.999991" height="500" preserveAspectRatio="xMidYMid meet" version="1.0"><defs><g/><clipPath id="0d5b618528"><path d="M 1 14.0625 L 374 14.0625 L 374 169 L 1 169 Z M 1 14.0625 " clip-rule="nonzero"/></clipPath><clipPath id="3e9dc86026"><path d="M 52 38 L 321 38 L 321 191 L 52 191 Z M 52 38 " clip-rule="nonzero"/></clipPath><clipPath id="bda9a8fb61"><path d="M 329.597656 179.605469 L 187.46875 321.734375 L 45.339844 179.605469 L 187.46875 37.476562 Z M 329.597656 179.605469 " clip-rule="nonzero"/></clipPath><clipPath id="69eafccaa3"><path d="M 329.597656 179.605469 L 187.46875 321.734375 L 45.339844 179.605469 L 187.46875 37.476562 Z M 329.597656 179.605469 " clip-rule="nonzero"/></clipPath><clipPath id="6ad3ccfff0"><path d="M 129.730469 140 L 153 140 L 153 167 L 129.730469 167 Z M 129.730469 140 " clip-rule="nonzero"/></clipPath><clipPath id="850a95e9e4"><path d="M 187 135 L 224.230469 135 L 224.230469 167 L 187 167 Z M 187 135 " clip-rule="nonzero"/></clipPath><clipPath id="8bc9f8f3ba"><path d="M 170 113.648438 L 196 113.648438 L 196 154 L 170 154 Z M 170 113.648438 " clip-rule="nonzero"/></clipPath><clipPath id="e27944cc66"><path d="M 159 221 L 177 221 L 177 316.148438 L 159 316.148438 Z M 159 221 " clip-rule="nonzero"/></clipPath></defs><rect x="-37.5" width="450" fill="#ffffff" y="-37.499999" height="449.999989" fill-opacity="1"/><rect x="-37.5" width="450" fill="#000000" y="-37.499999" height="449.999989" fill-opacity="1"/><path fill="#ffffff" d="M 323.40625 360.96875 L 51.445312 360.96875 C 47.335938 360.96875 44.003906 357.636719 44.003906 353.527344 L 44.003906 184.039062 C 44.003906 179.925781 47.335938 176.582031 51.445312 176.582031 C 55.558594 176.582031 58.886719 179.925781 58.886719 184.039062 L 58.886719 346.085938 L 315.964844 346.085938 L 315.964844 184.039062 C 315.964844 179.925781 319.292969 176.582031 323.40625 176.582031 C 327.515625 176.582031 330.847656 179.925781 330.847656 184.039062 L 330.847656 353.527344 C 330.847656 357.636719 327.515625 360.96875 323.40625 360.96875 " fill-opacity="1" fill-rule="nonzero"/><g clip-path="url(#0d5b618528)"><path fill="#ffffff" d="M 366.066406 168.167969 C 364.460938 168.167969 362.851562 167.664062 361.496094 166.605469 L 187.425781 31.488281 L 13.355469 166.605469 C 10.097656 169.125 5.425781 168.535156 2.902344 165.292969 C 0.386719 162.035156 0.976562 157.367188 4.21875 154.847656 L 182.859375 16.183594 C 185.554688 14.097656 189.296875 14.097656 191.996094 16.183594 L 370.632812 154.847656 C 373.875 157.367188 374.464844 162.035156 371.945312 165.292969 C 370.484375 167.179688 368.277344 168.167969 366.066406 168.167969 " fill-opacity="1" fill-rule="nonzero"/></g><g clip-path="url(#3e9dc86026)"><g clip-path="url(#bda9a8fb61)"><g clip-path="url(#69eafccaa3)"><path fill="#ffffff" d="M 198.910156 66.460938 C 199.953125 67.503906 201.652344 67.503906 202.695312 66.460938 C 203.738281 65.417969 203.738281 63.71875 202.695312 62.675781 C 201.761719 61.742188 200.304688 61.644531 199.257812 62.382812 L 189.574219 52.699219 C 189.46875 52.59375 189.34375 52.554688 189.222656 52.566406 L 175.59375 52.566406 C 175.441406 52.566406 175.320312 52.632812 175.246094 52.726562 L 137.082031 90.894531 C 136.972656 91 136.9375 91.128906 136.945312 91.246094 L 136.945312 114.597656 L 103.542969 148.003906 C 102.84375 147.597656 101.929688 147.6875 101.335938 148.28125 C 100.632812 148.988281 100.632812 150.144531 101.335938 150.847656 C 102.042969 151.554688 103.199219 151.554688 103.902344 150.847656 C 104.5 150.25 104.59375 149.335938 104.183594 148.644531 L 137.683594 115.144531 C 137.757812 115.082031 137.816406 114.996094 137.84375 114.882812 C 137.851562 114.847656 137.851562 114.820312 137.851562 114.789062 L 137.851562 91.402344 L 175.78125 53.472656 L 189.066406 53.472656 L 198.613281 63.019531 C 197.878906 64.070312 197.980469 65.527344 198.910156 66.460938 M 126.175781 132.335938 C 125.132812 133.375 125.132812 135.074219 126.175781 136.117188 C 127.21875 137.160156 128.917969 137.160156 129.960938 136.117188 C 130.894531 135.183594 130.992188 133.726562 130.253906 132.679688 L 155.714844 107.21875 C 155.804688 107.128906 155.851562 107.015625 155.851562 106.898438 L 155.851562 84.1875 L 176.460938 63.578125 L 187.148438 63.582031 L 202.601562 79.035156 L 200.84375 118.214844 C 200.835938 118.363281 200.898438 118.492188 200.996094 118.574219 L 226.917969 144.5 C 226.511719 145.195312 226.605469 146.109375 227.199219 146.703125 C 227.902344 147.40625 229.058594 147.40625 229.761719 146.703125 C 230.46875 145.996094 230.46875 144.839844 229.761719 144.136719 C 229.167969 143.539062 228.253906 143.445312 227.558594 143.855469 L 201.757812 118.054688 L 203.515625 78.917969 C 203.527344 78.835938 203.515625 78.746094 203.46875 78.652344 C 203.445312 78.609375 203.425781 78.574219 203.390625 78.539062 L 187.695312 62.84375 C 187.636719 62.765625 187.546875 62.710938 187.425781 62.679688 C 187.394531 62.675781 187.367188 62.671875 187.335938 62.671875 L 176.269531 62.671875 C 176.15625 62.671875 176.039062 62.714844 175.949219 62.804688 L 155.105469 83.648438 C 155.03125 83.707031 154.972656 83.796875 154.945312 83.910156 C 154.941406 83.941406 154.9375 83.972656 154.9375 84.003906 L 154.9375 106.714844 L 129.609375 132.042969 C 128.570312 131.300781 127.109375 131.402344 126.175781 132.335938 Z M 219.949219 127.695312 C 218.515625 128.078125 217.6875 129.542969 218.058594 130.972656 C 218.445312 132.402344 219.910156 133.25 221.335938 132.867188 C 222.613281 132.523438 223.421875 131.3125 223.304688 130.039062 L 224.894531 129.613281 L 238.035156 142.753906 C 237.628906 143.449219 237.71875 144.363281 238.3125 144.957031 C 239.019531 145.664062 240.171875 145.664062 240.878906 144.957031 C 241.585938 144.25 241.585938 143.097656 240.878906 142.390625 C 240.28125 141.792969 239.367188 141.703125 238.675781 142.113281 L 225.371094 128.808594 C 225.292969 128.710938 225.167969 128.648438 225.011719 128.652344 C 224.980469 128.652344 224.945312 128.660156 224.910156 128.667969 L 223.070312 129.164062 C 222.535156 128.003906 221.234375 127.355469 219.949219 127.695312 Z M 184.320312 70.664062 C 183.277344 69.621094 181.578125 69.621094 180.535156 70.664062 C 179.492188 71.707031 179.492188 73.40625 180.535156 74.445312 C 181.46875 75.378906 182.929688 75.480469 183.972656 74.742188 L 193.328125 84.097656 L 193.328125 126.242188 C 193.328125 126.398438 193.394531 126.515625 193.488281 126.589844 L 201.648438 134.75 C 201.238281 135.445312 201.332031 136.359375 201.925781 136.953125 C 202.632812 137.65625 203.785156 137.65625 204.492188 136.953125 C 205.199219 136.246094 205.199219 135.09375 204.492188 134.386719 C 203.894531 133.789062 202.980469 133.695312 202.289062 134.109375 L 194.234375 126.054688 L 194.234375 83.941406 C 194.238281 83.867188 194.226562 83.78125 194.1875 83.699219 C 194.164062 83.65625 194.144531 83.621094 194.109375 83.585938 L 184.621094 74.101562 C 185.351562 73.054688 185.253906 71.597656 184.320312 70.664062 Z M 226.945312 93.292969 C 225.902344 92.253906 224.203125 92.253906 223.160156 93.296875 C 222.117188 94.335938 222.117188 96.035156 223.160156 97.078125 C 224.09375 98.011719 225.550781 98.113281 226.597656 97.375 L 316.707031 187.480469 C 316.296875 188.179688 316.390625 189.09375 316.984375 189.683594 C 317.691406 190.390625 318.84375 190.390625 319.550781 189.683594 C 320.257812 188.980469 320.257812 187.824219 319.550781 187.121094 C 318.953125 186.523438 318.039062 186.429688 317.347656 186.839844 L 227.238281 96.734375 C 227.972656 95.691406 227.878906 94.226562 226.945312 93.292969 Z M 130.445312 113.75 C 131.488281 112.707031 131.488281 111.007812 130.445312 109.964844 C 129.402344 108.921875 127.703125 108.921875 126.660156 109.964844 C 125.726562 110.898438 125.628906 112.359375 126.367188 113.402344 L 55.316406 184.453125 C 54.621094 184.042969 53.707031 184.136719 53.113281 184.730469 C 52.40625 185.4375 52.40625 186.589844 53.113281 187.296875 C 53.820312 188 54.972656 188 55.679688 187.296875 C 56.277344 186.699219 56.367188 185.785156 55.957031 185.09375 L 127.007812 114.042969 C 128.050781 114.777344 129.507812 114.6875 130.445312 113.75 Z M 122.410156 165.90625 C 123.84375 166.28125 125.300781 165.445312 125.6875 164.011719 C 125.898438 163.214844 125.726562 162.402344 125.289062 161.777344 L 150.253906 136.8125 C 150.355469 136.730469 150.414062 136.605469 150.410156 136.449219 C 150.410156 136.417969 150.410156 136.382812 150.394531 136.347656 L 147.867188 126.90625 L 163.472656 111.300781 C 163.542969 111.238281 163.605469 111.152344 163.632812 111.03125 C 163.640625 111 163.644531 110.972656 163.644531 110.941406 L 163.644531 88.132812 L 173.582031 78.191406 L 183.136719 87.746094 C 182.398438 88.792969 182.496094 90.25 183.429688 91.183594 C 184.472656 92.226562 186.171875 92.226562 187.214844 91.183594 C 188.257812 90.140625 188.257812 88.441406 187.214844 87.402344 C 186.28125 86.46875 184.824219 86.367188 183.777344 87.105469 L 173.902344 77.230469 C 173.703125 77.03125 173.429688 77.070312 173.261719 77.230469 L 162.871094 87.621094 C 162.765625 87.726562 162.726562 87.855469 162.738281 87.972656 L 162.734375 110.753906 L 147.039062 126.449219 C 146.90625 126.582031 146.882812 126.742188 146.921875 126.886719 L 149.449219 136.328125 L 124.648438 161.128906 C 124.394531 160.949219 124.109375 160.816406 123.792969 160.730469 C 122.507812 160.394531 121.207031 161.035156 120.671875 162.199219 L 108.019531 158.804688 C 107.84375 158.753906 107.6875 158.816406 107.582031 158.921875 L 90.140625 176.359375 C 89.445312 175.953125 88.53125 176.046875 87.9375 176.640625 C 87.234375 177.34375 87.234375 178.5 87.9375 179.203125 C 88.644531 179.910156 89.800781 179.910156 90.503906 179.203125 C 91.101562 178.609375 91.195312 177.695312 90.785156 177 L 108.039062 159.746094 L 120.441406 163.070312 C 120.328125 164.351562 121.128906 165.558594 122.410156 165.90625 Z M 189.417969 39.394531 C 188.375 38.351562 186.675781 38.351562 185.632812 39.394531 C 184.59375 40.4375 184.59375 42.136719 185.632812 43.179688 C 186.566406 44.113281 188.027344 44.210938 189.074219 43.472656 L 216.117188 70.519531 L 213.832031 100.765625 C 213.820312 100.914062 213.878906 101.042969 213.96875 101.125 L 252.285156 139.441406 C 251.980469 139.875 251.800781 140.40625 251.792969 140.984375 C 251.804688 142.324219 252.746094 143.398438 254.015625 143.617188 L 254.015625 162.703125 C 254.015625 162.859375 254.082031 162.976562 254.175781 163.050781 L 270.621094 179.496094 C 270.214844 180.191406 270.308594 181.105469 270.898438 181.699219 C 271.605469 182.40625 272.761719 182.40625 273.464844 181.699219 C 274.171875 180.996094 274.171875 179.839844 273.464844 179.132812 C 272.871094 178.539062 271.957031 178.445312 271.261719 178.855469 L 254.921875 162.515625 L 254.921875 143.613281 C 256.191406 143.394531 257.132812 142.3125 257.144531 140.980469 C 257.128906 139.488281 255.960938 138.320312 254.46875 138.300781 C 253.890625 138.308594 253.359375 138.488281 252.925781 138.792969 L 214.75 100.617188 L 217.035156 70.410156 C 217.050781 70.324219 217.035156 70.230469 216.988281 70.128906 C 216.964844 70.089844 216.941406 70.054688 216.90625 70.019531 L 189.714844 42.824219 C 190.453125 41.785156 190.351562 40.328125 189.417969 39.394531 Z M 189.417969 39.394531 " fill-opacity="1" fill-rule="nonzero"/></g></g></g><path fill="#ffffff" d="M 158.914062 136.703125 C 158.914062 136.347656 158.832031 135.992188 158.675781 135.675781 L 163.179688 130.777344 L 170.964844 138.5625 L 170.964844 145.003906 C 170.054688 145.359375 169.386719 146.265625 169.386719 147.335938 C 169.386719 148.71875 170.492188 149.824219 171.875 149.824219 C 173.257812 149.824219 174.363281 148.71875 174.363281 147.335938 C 174.363281 146.265625 173.691406 145.359375 172.785156 145.003906 L 172.785156 138.207031 C 172.785156 137.96875 172.703125 137.730469 172.507812 137.574219 L 163.8125 128.878906 C 163.65625 128.722656 163.417969 128.601562 163.140625 128.601562 C 162.902344 128.601562 162.667969 128.722656 162.507812 128.878906 L 157.371094 134.453125 C 157.054688 134.332031 156.738281 134.253906 156.382812 134.253906 C 155 134.253906 153.894531 135.359375 153.894531 136.742188 C 153.894531 138.125 155 139.234375 156.382812 139.234375 C 157.765625 139.234375 158.914062 138.085938 158.914062 136.703125 Z M 172.585938 147.292969 C 172.585938 147.691406 172.269531 147.964844 171.914062 147.964844 C 171.519531 147.964844 171.242188 147.652344 171.242188 147.292969 C 171.242188 146.898438 171.558594 146.621094 171.914062 146.621094 C 172.269531 146.582031 172.585938 146.898438 172.585938 147.292969 Z M 155.75 136.703125 C 155.75 136.308594 156.066406 136.03125 156.421875 136.03125 C 156.820312 136.03125 157.09375 136.347656 157.09375 136.703125 C 157.09375 137.097656 156.777344 137.375 156.421875 137.375 C 156.066406 137.375 155.75 137.058594 155.75 136.703125 Z M 155.75 136.703125 " fill-opacity="1" fill-rule="nonzero"/><path fill="#ffffff" d="M 185.625 126.785156 C 185.625 128.167969 186.734375 129.273438 188.117188 129.273438 C 188.511719 129.273438 188.867188 129.195312 189.183594 129.039062 L 206.648438 147.492188 C 206.492188 147.808594 206.410156 148.164062 206.410156 148.519531 C 206.410156 149.902344 207.519531 151.007812 208.902344 151.007812 C 210.285156 151.007812 211.390625 149.902344 211.390625 148.519531 C 211.390625 147.136719 210.285156 146.03125 208.902344 146.03125 C 208.546875 146.03125 208.230469 146.109375 207.914062 146.226562 L 190.40625 127.734375 C 190.527344 127.457031 190.605469 127.140625 190.605469 126.824219 C 190.605469 125.441406 189.5 124.335938 188.117188 124.335938 C 186.734375 124.296875 185.625 125.441406 185.625 126.785156 Z M 209.574219 148.519531 C 209.574219 148.914062 209.257812 149.191406 208.902344 149.191406 C 208.507812 149.191406 208.230469 148.875 208.230469 148.519531 C 208.230469 148.125 208.546875 147.847656 208.902344 147.847656 C 209.257812 147.808594 209.574219 148.125 209.574219 148.519531 Z M 188.789062 126.785156 C 188.789062 127.179688 188.472656 127.457031 188.117188 127.457031 C 187.71875 127.457031 187.445312 127.140625 187.445312 126.785156 C 187.445312 126.390625 187.761719 126.113281 188.117188 126.113281 C 188.472656 126.113281 188.789062 126.429688 188.789062 126.785156 Z M 188.789062 126.785156 " fill-opacity="1" fill-rule="nonzero"/><g clip-path="url(#6ad3ccfff0)"><path fill="#ffffff" d="M 143.738281 163.851562 C 143.738281 162.46875 142.632812 161.363281 141.25 161.363281 C 140.183594 161.363281 139.273438 162.035156 138.917969 162.941406 L 132.832031 162.941406 L 149.46875 145.320312 C 149.785156 145.4375 150.101562 145.515625 150.417969 145.515625 C 151.800781 145.515625 152.90625 144.410156 152.90625 143.027344 C 152.90625 141.644531 151.800781 140.539062 150.417969 140.539062 C 149.035156 140.539062 147.925781 141.644531 147.925781 143.027344 C 147.925781 143.382812 148.007812 143.738281 148.164062 144.054688 L 130.066406 163.21875 C 129.828125 163.496094 129.75 163.851562 129.90625 164.207031 C 130.066406 164.523438 130.382812 164.761719 130.738281 164.761719 L 138.917969 164.761719 C 139.273438 165.667969 140.183594 166.339844 141.25 166.339844 C 142.632812 166.339844 143.738281 165.195312 143.738281 163.851562 Z M 149.746094 143.027344 C 149.746094 142.632812 150.0625 142.355469 150.417969 142.355469 C 150.8125 142.355469 151.089844 142.671875 151.089844 143.027344 C 151.089844 143.421875 150.773438 143.699219 150.417969 143.699219 C 150.0625 143.738281 149.746094 143.421875 149.746094 143.027344 Z M 140.539062 163.851562 C 140.539062 163.457031 140.855469 163.179688 141.210938 163.179688 C 141.605469 163.179688 141.882812 163.496094 141.882812 163.851562 C 141.882812 164.246094 141.566406 164.523438 141.210938 164.523438 C 140.855469 164.523438 140.539062 164.207031 140.539062 163.851562 Z M 140.539062 163.851562 " fill-opacity="1" fill-rule="nonzero"/></g><g clip-path="url(#850a95e9e4)"><path fill="#ffffff" d="M 192.9375 137.535156 C 192.9375 136.152344 191.832031 135.042969 190.445312 135.042969 C 189.0625 135.042969 187.957031 136.152344 187.957031 137.535156 C 187.957031 138.917969 189.0625 140.023438 190.445312 140.023438 C 190.804688 140.023438 191.117188 139.945312 191.433594 139.824219 L 207.242188 156.34375 C 207.398438 156.503906 207.636719 156.621094 207.875 156.621094 L 215.421875 156.621094 L 221.507812 163.023438 L 217.160156 163.023438 C 216.804688 162.113281 215.894531 161.441406 214.828125 161.441406 C 213.445312 161.441406 212.339844 162.546875 212.339844 163.929688 C 212.339844 165.3125 213.445312 166.421875 214.828125 166.421875 C 215.894531 166.421875 216.804688 165.75 217.160156 164.839844 L 223.640625 164.839844 C 223.996094 164.839844 224.3125 164.640625 224.472656 164.285156 C 224.511719 164.167969 224.550781 164.050781 224.550781 163.929688 C 224.550781 163.695312 224.472656 163.496094 224.3125 163.300781 L 216.527344 155.078125 C 216.371094 154.882812 216.132812 154.804688 215.855469 154.804688 L 208.308594 154.804688 L 192.738281 138.5625 C 192.859375 138.246094 192.9375 137.890625 192.9375 137.535156 Z M 189.734375 137.535156 C 189.734375 137.140625 190.050781 136.863281 190.40625 136.863281 C 190.804688 136.863281 191.078125 137.179688 191.078125 137.535156 C 191.078125 137.929688 190.761719 138.207031 190.40625 138.207031 C 190.050781 138.246094 189.734375 137.929688 189.734375 137.535156 Z M 215.539062 163.929688 C 215.539062 164.328125 215.222656 164.601562 214.867188 164.601562 C 214.472656 164.601562 214.195312 164.285156 214.195312 163.929688 C 214.195312 163.535156 214.511719 163.257812 214.867188 163.257812 C 215.222656 163.21875 215.539062 163.535156 215.539062 163.929688 Z M 215.539062 163.929688 " fill-opacity="1" fill-rule="nonzero"/></g><path fill="#ffffff" d="M 201.195312 160.058594 C 202.578125 160.058594 203.683594 158.953125 203.683594 157.570312 C 203.683594 156.1875 202.578125 155.078125 201.195312 155.078125 C 200.128906 155.078125 199.21875 155.75 198.863281 156.660156 L 194.675781 156.660156 C 194.4375 156.660156 194.203125 156.738281 194.042969 156.9375 L 187.5625 163.417969 C 187.40625 163.574219 187.285156 163.8125 187.285156 164.050781 L 187.285156 179.621094 L 182.226562 184.675781 C 182.070312 184.835938 181.949219 185.074219 181.949219 185.308594 L 181.949219 189.300781 C 181.042969 189.65625 180.371094 190.566406 180.371094 191.632812 C 180.371094 193.015625 181.476562 194.121094 182.859375 194.121094 C 184.242188 194.121094 185.347656 193.015625 185.347656 191.632812 C 185.347656 190.566406 184.675781 189.65625 183.769531 189.300781 L 183.769531 185.664062 L 188.828125 180.605469 C 188.984375 180.449219 189.105469 180.210938 189.105469 179.976562 L 189.105469 164.40625 L 195.03125 158.476562 L 198.863281 158.476562 C 199.21875 159.425781 200.128906 160.058594 201.195312 160.058594 Z M 182.976562 190.960938 C 183.292969 191 183.570312 191.277344 183.570312 191.632812 C 183.570312 192.027344 183.253906 192.304688 182.898438 192.304688 C 182.503906 192.304688 182.226562 191.988281 182.226562 191.632812 C 182.226562 191.277344 182.464844 191 182.820312 190.960938 C 182.859375 190.960938 182.898438 190.960938 182.9375 190.960938 C 182.898438 190.960938 182.9375 190.960938 182.976562 190.960938 Z M 200.484375 157.570312 C 200.484375 157.175781 200.800781 156.898438 201.15625 156.898438 C 201.550781 156.898438 201.828125 157.214844 201.828125 157.570312 C 201.828125 157.964844 201.511719 158.242188 201.15625 158.242188 C 200.800781 158.28125 200.484375 157.964844 200.484375 157.570312 Z M 200.484375 157.570312 " fill-opacity="1" fill-rule="nonzero"/><path fill="#ffffff" d="M 193.648438 170.097656 L 193.648438 188.3125 L 188.234375 193.726562 C 188.074219 193.882812 187.957031 194.121094 187.957031 194.359375 L 187.957031 214.355469 C 187.957031 214.589844 188.035156 214.828125 188.234375 214.988281 L 192.898438 219.648438 L 192.898438 244.109375 C 191.988281 244.464844 191.316406 245.375 191.316406 246.441406 C 191.316406 247.824219 192.421875 248.929688 193.804688 248.929688 C 195.1875 248.929688 196.296875 247.824219 196.296875 246.441406 C 196.296875 245.375 195.625 244.464844 194.714844 244.109375 L 194.714844 219.253906 C 194.714844 219.015625 194.636719 218.78125 194.4375 218.621094 L 189.773438 213.960938 L 189.773438 194.714844 L 195.1875 189.300781 C 195.347656 189.144531 195.464844 188.90625 195.464844 188.667969 L 195.464844 170.097656 C 196.375 169.738281 197.046875 168.832031 197.046875 167.765625 C 197.046875 166.382812 195.941406 165.273438 194.558594 165.273438 C 193.171875 165.273438 192.066406 166.382812 192.066406 167.765625 C 192.066406 168.832031 192.699219 169.738281 193.648438 170.097656 Z M 194.4375 246.441406 C 194.4375 246.835938 194.121094 247.113281 193.765625 247.113281 C 193.371094 247.113281 193.09375 246.796875 193.09375 246.441406 C 193.09375 246.046875 193.410156 245.769531 193.765625 245.769531 C 194.121094 245.730469 194.4375 246.046875 194.4375 246.441406 Z M 194.515625 167.09375 C 194.914062 167.09375 195.1875 167.410156 195.1875 167.765625 C 195.1875 168.160156 194.871094 168.4375 194.515625 168.4375 C 194.121094 168.4375 193.84375 168.121094 193.84375 167.765625 C 193.84375 167.410156 194.160156 167.09375 194.515625 167.09375 Z M 194.515625 167.09375 " fill-opacity="1" fill-rule="nonzero"/><path fill="#ffffff" d="M 186.257812 151.40625 C 184.875 151.40625 183.769531 152.511719 183.769531 153.894531 C 183.769531 154.25 183.847656 154.605469 183.964844 154.882812 L 181.792969 157.054688 C 181.636719 157.214844 181.515625 157.449219 181.515625 157.6875 L 181.515625 172.191406 L 176.617188 177.089844 C 176.457031 177.25 176.339844 177.484375 176.339844 177.722656 L 176.339844 223.601562 C 176.339844 223.839844 176.417969 224.074219 176.617188 224.234375 L 180.609375 228.222656 C 180.449219 228.539062 180.371094 228.9375 180.371094 229.332031 C 180.371094 230.714844 181.476562 231.820312 182.859375 231.820312 C 184.242188 231.820312 185.347656 230.714844 185.347656 229.332031 C 185.347656 227.949219 184.242188 226.839844 182.859375 226.839844 C 182.542969 226.839844 182.226562 226.921875 181.949219 227 L 178.15625 223.207031 L 178.15625 178.078125 L 183.058594 173.179688 C 183.214844 173.019531 183.335938 172.78125 183.335938 172.546875 L 183.335938 158.082031 L 185.269531 156.144531 C 185.585938 156.265625 185.902344 156.34375 186.257812 156.34375 C 187.640625 156.34375 188.746094 155.238281 188.746094 153.855469 C 188.746094 152.511719 187.640625 151.40625 186.257812 151.40625 Z M 183.570312 229.332031 C 183.570312 229.726562 183.253906 230.003906 182.898438 230.003906 C 182.503906 230.003906 182.226562 229.6875 182.226562 229.332031 C 182.226562 228.9375 182.542969 228.660156 182.898438 228.660156 C 183.253906 228.621094 183.570312 228.9375 183.570312 229.332031 Z M 186.257812 154.566406 C 186.0625 154.566406 185.902344 154.488281 185.785156 154.367188 C 185.664062 154.25 185.585938 154.089844 185.585938 153.894531 C 185.585938 153.5 185.902344 153.222656 186.257812 153.222656 C 186.652344 153.222656 186.929688 153.539062 186.929688 153.894531 C 186.929688 154.25 186.652344 154.566406 186.257812 154.566406 Z M 186.257812 154.566406 " fill-opacity="1" fill-rule="nonzero"/><path fill="#ffffff" d="M 191.160156 205.066406 C 191.160156 206.449219 192.265625 207.558594 193.648438 207.558594 C 194.003906 207.558594 194.359375 207.476562 194.636719 207.359375 L 198.074219 210.796875 L 198.074219 250.789062 L 194.753906 254.109375 C 194.4375 253.988281 194.121094 253.910156 193.765625 253.910156 C 192.382812 253.910156 191.277344 255.015625 191.277344 256.398438 C 191.277344 257.78125 192.382812 258.890625 193.765625 258.890625 C 195.148438 258.890625 196.257812 257.78125 196.257812 256.398438 C 196.257812 256.042969 196.175781 255.6875 196.019531 255.371094 L 199.613281 251.777344 C 199.773438 251.617188 199.890625 251.382812 199.890625 251.144531 L 199.890625 210.402344 C 199.890625 210.164062 199.8125 209.929688 199.613281 209.769531 L 195.902344 206.054688 C 196.019531 205.738281 196.097656 205.421875 196.097656 205.066406 C 196.097656 203.683594 194.992188 202.578125 193.609375 202.578125 C 192.265625 202.578125 191.160156 203.722656 191.160156 205.066406 Z M 194.203125 255.886719 C 194.203125 255.886719 194.242188 255.925781 194.242188 255.925781 C 194.242188 255.925781 194.28125 255.964844 194.28125 255.964844 C 194.359375 256.082031 194.4375 256.242188 194.4375 256.398438 C 194.4375 256.792969 194.121094 257.070312 193.765625 257.070312 C 193.371094 257.070312 193.09375 256.753906 193.09375 256.398438 C 193.09375 256.003906 193.410156 255.726562 193.765625 255.726562 C 193.925781 255.726562 194.082031 255.765625 194.203125 255.886719 Z M 194.320312 205.066406 C 194.320312 205.464844 194.003906 205.738281 193.648438 205.738281 C 193.253906 205.738281 192.976562 205.421875 192.976562 205.066406 C 192.976562 204.710938 193.292969 204.394531 193.648438 204.394531 C 194.003906 204.394531 194.320312 204.710938 194.320312 205.066406 Z M 194.320312 205.066406 " fill-opacity="1" fill-rule="nonzero"/><path fill="#ffffff" d="M 162.3125 264.976562 C 162.3125 266.359375 163.417969 267.464844 164.800781 267.464844 C 166.183594 267.464844 167.289062 266.359375 167.289062 264.976562 C 167.289062 263.90625 166.578125 262.960938 165.628906 262.644531 L 165.628906 241.144531 C 165.628906 240.632812 165.234375 240.238281 164.722656 240.238281 L 156.226562 240.238281 L 156.226562 208.347656 L 160.574219 204 C 160.730469 203.84375 160.847656 203.605469 160.847656 203.367188 L 160.847656 184.558594 C 161.757812 184.203125 162.429688 183.292969 162.429688 182.226562 C 162.429688 180.84375 161.324219 179.738281 159.941406 179.738281 C 158.558594 179.738281 157.449219 180.84375 157.449219 182.226562 C 157.449219 183.292969 158.121094 184.203125 159.03125 184.558594 L 159.03125 202.972656 L 154.683594 207.320312 C 154.527344 207.476562 154.40625 207.714844 154.40625 207.953125 L 154.40625 241.105469 C 154.40625 241.621094 154.804688 242.015625 155.316406 242.015625 L 163.8125 242.015625 L 163.8125 262.683594 C 162.945312 263.039062 162.3125 263.949219 162.3125 264.976562 Z M 165.511719 264.976562 C 165.511719 265.371094 165.195312 265.644531 164.839844 265.644531 C 164.445312 265.644531 164.167969 265.332031 164.167969 264.976562 C 164.167969 264.617188 164.484375 264.304688 164.839844 264.304688 C 165.195312 264.261719 165.511719 264.578125 165.511719 264.976562 Z M 159.230469 182.226562 C 159.230469 181.832031 159.546875 181.554688 159.902344 181.554688 C 160.296875 181.554688 160.574219 181.871094 160.574219 182.226562 C 160.574219 182.621094 160.257812 182.898438 159.902344 182.898438 C 159.546875 182.898438 159.230469 182.621094 159.230469 182.226562 Z M 159.230469 182.226562 " fill-opacity="1" fill-rule="nonzero"/><path fill="#ffffff" d="M 157.804688 298.800781 C 157.804688 297.734375 157.132812 296.824219 156.226562 296.46875 L 156.226562 278.765625 C 157.132812 278.410156 157.804688 277.5 157.804688 276.433594 C 157.804688 275.050781 156.699219 273.945312 155.316406 273.945312 C 153.933594 273.945312 152.828125 275.050781 152.828125 276.433594 C 152.828125 277.5 153.5 278.410156 154.40625 278.765625 L 154.40625 296.507812 C 153.5 296.863281 152.828125 297.773438 152.828125 298.839844 C 152.828125 300.222656 153.933594 301.328125 155.316406 301.328125 C 156.699219 301.289062 157.804688 300.183594 157.804688 298.800781 Z M 154.605469 276.472656 C 154.605469 276.078125 154.921875 275.800781 155.277344 275.800781 C 155.671875 275.800781 155.949219 276.117188 155.949219 276.472656 C 155.949219 276.871094 155.632812 277.144531 155.277344 277.144531 C 154.921875 277.144531 154.605469 276.828125 154.605469 276.472656 Z M 154.605469 298.800781 C 154.605469 298.40625 154.921875 298.128906 155.277344 298.128906 C 155.671875 298.128906 155.949219 298.445312 155.949219 298.800781 C 155.949219 299.195312 155.632812 299.472656 155.277344 299.472656 C 154.921875 299.511719 154.605469 299.195312 154.605469 298.800781 Z M 154.605469 298.800781 " fill-opacity="1" fill-rule="nonzero"/><path fill="#ffffff" d="M 158.519531 287.65625 C 158.519531 289.039062 159.625 290.148438 161.007812 290.148438 C 162.390625 290.148438 163.496094 289.039062 163.496094 287.65625 C 163.496094 286.589844 162.824219 285.679688 161.917969 285.324219 L 161.917969 270.113281 C 161.917969 269.597656 161.519531 269.203125 161.007812 269.203125 L 156.226562 269.203125 L 156.226562 252.84375 L 158.359375 250.710938 C 158.675781 250.828125 158.992188 250.90625 159.347656 250.90625 C 160.730469 250.90625 161.835938 249.800781 161.835938 248.417969 C 161.835938 247.035156 160.730469 245.929688 159.347656 245.929688 C 157.964844 245.929688 156.859375 247.035156 156.859375 248.417969 C 156.859375 248.773438 156.9375 249.128906 157.09375 249.445312 L 154.683594 251.855469 C 154.527344 252.011719 154.40625 252.25 154.40625 252.488281 L 154.40625 270.113281 C 154.40625 270.625 154.804688 271.019531 155.316406 271.019531 L 160.097656 271.019531 L 160.097656 285.324219 C 159.148438 285.679688 158.519531 286.589844 158.519531 287.65625 Z M 161.679688 287.65625 C 161.679688 288.050781 161.363281 288.328125 161.007812 288.328125 C 160.613281 288.328125 160.335938 288.011719 160.335938 287.65625 C 160.335938 287.300781 160.652344 286.984375 161.007812 286.984375 C 161.363281 286.945312 161.679688 287.261719 161.679688 287.65625 Z M 158.636719 248.417969 C 158.636719 248.023438 158.953125 247.746094 159.308594 247.746094 C 159.703125 247.746094 159.980469 248.0625 159.980469 248.417969 C 159.980469 248.773438 159.664062 249.089844 159.308594 249.089844 C 158.953125 249.089844 158.636719 248.773438 158.636719 248.417969 Z M 158.636719 248.417969 " fill-opacity="1" fill-rule="nonzero"/><path fill="#ffffff" d="M 157.804688 199.335938 C 157.804688 198.269531 157.132812 197.363281 156.226562 197.007812 L 156.226562 163.890625 C 156.226562 163.378906 155.832031 162.984375 155.316406 162.984375 L 151.523438 162.984375 C 151.167969 162.074219 150.257812 161.402344 149.230469 161.402344 C 147.847656 161.402344 146.742188 162.507812 146.742188 163.890625 C 146.742188 165.273438 147.847656 166.382812 149.230469 166.382812 C 150.296875 166.382812 151.207031 165.710938 151.5625 164.761719 L 154.449219 164.761719 L 154.449219 196.96875 C 153.539062 197.324219 152.867188 198.230469 152.867188 199.296875 C 152.867188 200.679688 153.972656 201.789062 155.355469 201.789062 C 156.699219 201.828125 157.804688 200.722656 157.804688 199.335938 Z M 148.519531 163.929688 C 148.519531 163.535156 148.835938 163.257812 149.191406 163.257812 C 149.546875 163.257812 149.824219 163.496094 149.863281 163.8125 C 149.863281 163.851562 149.863281 163.890625 149.863281 163.890625 C 149.863281 163.929688 149.863281 163.96875 149.863281 164.011719 C 149.824219 164.328125 149.546875 164.601562 149.191406 164.601562 C 148.796875 164.640625 148.519531 164.328125 148.519531 163.929688 Z M 154.605469 199.335938 C 154.605469 198.941406 154.921875 198.667969 155.277344 198.667969 C 155.671875 198.667969 155.949219 198.980469 155.949219 199.335938 C 155.949219 199.695312 155.632812 200.007812 155.277344 200.007812 C 154.921875 200.050781 154.605469 199.734375 154.605469 199.335938 Z M 154.605469 199.335938 " fill-opacity="1" fill-rule="nonzero"/><path fill="#ffffff" d="M 183.375 264.027344 C 183.375 262.644531 182.265625 261.535156 180.882812 261.535156 C 179.5 261.535156 178.394531 262.644531 178.394531 264.027344 C 178.394531 265.09375 179.066406 266.003906 179.976562 266.359375 L 179.976562 277.226562 L 177.128906 277.226562 C 176.617188 277.226562 176.222656 277.621094 176.222656 278.132812 L 176.222656 296.507812 C 175.3125 296.863281 174.640625 297.773438 174.640625 298.839844 C 174.640625 300.222656 175.746094 301.328125 177.128906 301.328125 C 178.511719 301.328125 179.621094 300.222656 179.621094 298.839844 C 179.621094 297.773438 178.949219 296.863281 178.039062 296.507812 L 178.039062 279.003906 L 180.882812 279.003906 C 181.398438 279.003906 181.792969 278.609375 181.792969 278.09375 L 181.792969 266.359375 C 182.742188 266.003906 183.375 265.09375 183.375 264.027344 Z M 180.210938 264.027344 C 180.210938 263.632812 180.527344 263.355469 180.882812 263.355469 C 181.28125 263.355469 181.554688 263.671875 181.554688 264.027344 C 181.554688 264.421875 181.238281 264.699219 180.882812 264.699219 C 180.527344 264.738281 180.210938 264.421875 180.210938 264.027344 Z M 177.839844 298.800781 C 177.839844 299.195312 177.523438 299.472656 177.167969 299.472656 C 176.773438 299.472656 176.496094 299.15625 176.496094 298.800781 C 176.496094 298.40625 176.8125 298.128906 177.167969 298.128906 C 177.523438 298.128906 177.839844 298.445312 177.839844 298.800781 Z M 177.839844 298.800781 " fill-opacity="1" fill-rule="nonzero"/><path fill="#ffffff" d="M 187.957031 275.40625 L 187.957031 286.667969 C 187.046875 287.023438 186.375 287.933594 186.375 289 C 186.375 290.382812 187.484375 291.492188 188.867188 291.492188 C 190.25 291.492188 191.355469 290.382812 191.355469 289 C 191.355469 287.933594 190.683594 287.023438 189.773438 286.667969 L 189.773438 275.40625 C 190.683594 275.050781 191.355469 274.140625 191.355469 273.074219 C 191.355469 271.691406 190.25 270.585938 188.867188 270.585938 C 187.484375 270.585938 186.375 271.691406 186.375 273.074219 C 186.375 274.140625 187.007812 275.050781 187.957031 275.40625 Z M 189.539062 289 C 189.539062 289.394531 189.222656 289.671875 188.867188 289.671875 C 188.472656 289.671875 188.195312 289.355469 188.195312 289 C 188.195312 288.605469 188.511719 288.328125 188.867188 288.328125 C 189.222656 288.289062 189.539062 288.605469 189.539062 289 Z M 188.867188 272.402344 C 189.261719 272.402344 189.539062 272.71875 189.539062 273.074219 C 189.539062 273.429688 189.222656 273.746094 188.867188 273.746094 C 188.472656 273.746094 188.195312 273.429688 188.195312 273.074219 C 188.195312 272.71875 188.472656 272.402344 188.867188 272.402344 Z M 188.867188 272.402344 " fill-opacity="1" fill-rule="nonzero"/><path fill="#ffffff" d="M 204.871094 164.839844 C 205.226562 165.75 206.136719 166.421875 207.203125 166.421875 C 208.585938 166.421875 209.691406 165.3125 209.691406 163.929688 C 209.691406 162.546875 208.585938 161.441406 207.203125 161.441406 C 206.136719 161.441406 205.226562 162.113281 204.871094 163.023438 L 198.941406 163.023438 C 198.429688 163.023438 198.035156 163.417969 198.035156 163.929688 L 198.035156 197.046875 C 197.125 197.402344 196.453125 198.308594 196.453125 199.378906 C 196.453125 200.761719 197.558594 201.867188 198.941406 201.867188 C 200.328125 201.867188 201.433594 200.761719 201.433594 199.378906 C 201.433594 198.308594 200.761719 197.402344 199.851562 197.046875 L 199.851562 164.839844 Z M 199.65625 199.335938 C 199.65625 199.734375 199.339844 200.007812 198.984375 200.007812 C 198.585938 200.007812 198.3125 199.695312 198.3125 199.335938 C 198.3125 198.980469 198.628906 198.667969 198.984375 198.667969 C 199.339844 198.667969 199.65625 198.980469 199.65625 199.335938 Z M 206.53125 163.929688 C 206.53125 163.535156 206.847656 163.257812 207.203125 163.257812 C 207.597656 163.257812 207.875 163.574219 207.875 163.929688 C 207.875 164.328125 207.558594 164.601562 207.203125 164.601562 C 206.808594 164.601562 206.53125 164.285156 206.53125 163.929688 Z M 206.53125 163.929688 " fill-opacity="1" fill-rule="nonzero"/><g clip-path="url(#8bc9f8f3ba)"><path fill="#ffffff" d="M 176.496094 114.101562 L 173.691406 117.105469 C 173.375 116.984375 173.058594 116.90625 172.703125 116.90625 C 171.320312 116.90625 170.214844 118.011719 170.214844 119.394531 C 170.214844 120.777344 171.320312 121.886719 172.703125 121.886719 C 174.085938 121.886719 175.195312 120.777344 175.195312 119.394531 C 175.195312 119.039062 175.113281 118.683594 174.957031 118.367188 L 177.128906 116.039062 L 182.1875 121.53125 L 182.1875 141.328125 C 182.1875 141.566406 182.265625 141.800781 182.464844 141.960938 L 190.605469 150.179688 C 190.488281 150.496094 190.40625 150.8125 190.40625 151.167969 C 190.40625 152.550781 191.515625 153.65625 192.898438 153.65625 C 194.28125 153.65625 195.386719 152.550781 195.386719 151.167969 C 195.386719 149.785156 194.28125 148.679688 192.898438 148.679688 C 192.542969 148.679688 192.1875 148.757812 191.910156 148.875 L 184.007812 140.972656 L 184.007812 121.175781 C 184.007812 120.9375 183.925781 120.738281 183.769531 120.582031 L 177.800781 114.101562 C 177.644531 113.902344 177.40625 113.824219 177.128906 113.824219 C 176.894531 113.824219 176.65625 113.941406 176.496094 114.101562 Z M 173.414062 119.394531 C 173.414062 119.792969 173.097656 120.066406 172.742188 120.066406 C 172.347656 120.066406 172.070312 119.75 172.070312 119.394531 C 172.070312 119 172.386719 118.722656 172.742188 118.722656 C 173.097656 118.722656 173.414062 119.039062 173.414062 119.394531 Z M 193.570312 151.167969 C 193.570312 151.5625 193.253906 151.839844 192.898438 151.839844 C 192.503906 151.839844 192.226562 151.523438 192.226562 151.167969 C 192.226562 150.773438 192.542969 150.496094 192.898438 150.496094 C 193.253906 150.496094 193.570312 150.8125 193.570312 151.167969 Z M 193.570312 151.167969 " fill-opacity="1" fill-rule="nonzero"/></g><path fill="#ffffff" d="M 149.113281 159.425781 L 159.03125 159.425781 L 159.03125 171.4375 C 158.121094 171.792969 157.449219 172.703125 157.449219 173.769531 C 157.449219 175.152344 158.558594 176.261719 159.941406 176.261719 C 161.324219 176.261719 162.429688 175.152344 162.429688 173.769531 C 162.429688 172.703125 161.757812 171.792969 160.847656 171.4375 L 160.847656 158.515625 C 160.847656 158.003906 160.453125 157.609375 159.941406 157.609375 L 149.46875 157.609375 L 148.203125 156.34375 C 148.324219 156.027344 148.402344 155.710938 148.402344 155.355469 C 148.402344 153.972656 147.296875 152.867188 145.910156 152.867188 C 144.527344 152.867188 143.421875 153.972656 143.421875 155.355469 C 143.421875 156.738281 144.527344 157.84375 145.910156 157.84375 C 146.269531 157.84375 146.625 157.765625 146.898438 157.648438 L 148.402344 159.148438 C 148.640625 159.308594 148.875 159.425781 149.113281 159.425781 Z M 160.613281 173.730469 C 160.613281 174.125 160.296875 174.402344 159.941406 174.402344 C 159.546875 174.402344 159.269531 174.085938 159.269531 173.730469 C 159.269531 173.335938 159.585938 173.058594 159.941406 173.058594 C 160.296875 173.058594 160.613281 173.375 160.613281 173.730469 Z M 145.28125 155.355469 C 145.28125 154.960938 145.597656 154.683594 145.953125 154.683594 C 146.347656 154.683594 146.625 155 146.625 155.355469 C 146.625 155.75 146.308594 156.027344 145.953125 156.027344 C 145.554688 156.027344 145.28125 155.75 145.28125 155.355469 Z M 145.28125 155.355469 " fill-opacity="1" fill-rule="nonzero"/><g clip-path="url(#e27944cc66)"><path fill="#ffffff" d="M 176.0625 262.683594 C 176.222656 262.523438 176.339844 262.289062 176.339844 262.050781 L 176.339844 243.003906 C 176.339844 242.765625 176.261719 242.53125 176.0625 242.371094 L 162.589844 228.894531 L 162.589844 226.167969 C 163.496094 225.8125 164.167969 224.90625 164.167969 223.839844 C 164.167969 222.453125 163.0625 221.347656 161.679688 221.347656 C 160.296875 221.347656 159.191406 222.453125 159.191406 223.839844 C 159.191406 224.90625 159.863281 225.8125 160.769531 226.167969 L 160.769531 229.292969 C 160.769531 229.527344 160.847656 229.765625 161.046875 229.921875 L 174.523438 243.398438 L 174.523438 261.695312 L 169.386719 266.714844 C 169.226562 266.871094 169.109375 267.109375 169.109375 267.34375 L 169.109375 311.328125 C 168.199219 311.683594 167.527344 312.59375 167.527344 313.660156 C 167.527344 315.042969 168.632812 316.148438 170.015625 316.148438 C 171.398438 316.148438 172.507812 315.042969 172.507812 313.660156 C 172.507812 312.59375 171.835938 311.683594 170.925781 311.328125 L 170.925781 267.703125 Z M 161.007812 223.839844 C 161.007812 223.441406 161.324219 223.167969 161.679688 223.167969 C 162.074219 223.167969 162.351562 223.484375 162.351562 223.839844 C 162.351562 224.234375 162.035156 224.511719 161.679688 224.511719 C 161.324219 224.511719 161.007812 224.195312 161.007812 223.839844 Z M 170.726562 313.660156 C 170.726562 314.054688 170.414062 314.332031 170.054688 314.332031 C 169.660156 314.332031 169.386719 314.015625 169.386719 313.660156 C 169.386719 313.304688 169.699219 312.988281 170.054688 312.988281 C 170.414062 312.988281 170.726562 313.265625 170.726562 313.660156 Z M 170.726562 313.660156 " fill-opacity="1" fill-rule="nonzero"/></g><path fill="#ffffff" d="M 161.046875 209.296875 C 160.890625 209.453125 160.769531 209.691406 160.769531 209.929688 L 160.769531 213.917969 C 159.863281 214.273438 159.191406 215.183594 159.191406 216.25 C 159.191406 217.632812 160.296875 218.742188 161.679688 218.742188 C 163.0625 218.742188 164.167969 217.632812 164.167969 216.25 C 164.167969 215.183594 163.496094 214.273438 162.589844 213.917969 L 162.589844 210.285156 L 168 204.871094 C 168.160156 204.710938 168.277344 204.476562 168.277344 204.238281 L 168.277344 158.476562 C 168.277344 158.242188 168.199219 158.003906 168 157.84375 L 159.902344 149.785156 C 159.742188 149.625 159.503906 149.507812 159.269531 149.507812 L 155.039062 149.507812 C 154.683594 148.558594 153.777344 147.925781 152.707031 147.925781 C 151.324219 147.925781 150.21875 149.035156 150.21875 150.417969 C 150.21875 151.800781 151.324219 152.90625 152.707031 152.90625 C 153.777344 152.90625 154.644531 152.234375 155.039062 151.324219 L 158.875 151.324219 L 166.460938 158.875 L 166.460938 203.882812 Z M 162.390625 216.210938 C 162.390625 216.605469 162.074219 216.882812 161.71875 216.882812 C 161.324219 216.882812 161.046875 216.566406 161.046875 216.210938 C 161.046875 215.816406 161.363281 215.539062 161.71875 215.539062 C 162.074219 215.539062 162.390625 215.855469 162.390625 216.210938 Z M 152.039062 150.378906 C 152.039062 149.980469 152.351562 149.707031 152.707031 149.707031 C 153.066406 149.707031 153.339844 149.980469 153.378906 150.296875 C 153.378906 150.335938 153.378906 150.335938 153.378906 150.378906 C 153.378906 150.417969 153.378906 150.417969 153.378906 150.457031 C 153.339844 150.8125 153.066406 151.046875 152.707031 151.046875 C 152.3125 151.089844 152.039062 150.773438 152.039062 150.378906 Z M 152.039062 150.378906 " fill-opacity="1" fill-rule="nonzero"/><path fill="#ffffff" d="M 176.222656 134.964844 L 176.222656 165.589844 C 175.3125 165.945312 174.640625 166.855469 174.640625 167.921875 C 174.640625 169.304688 175.746094 170.410156 177.128906 170.410156 C 178.511719 170.410156 179.621094 169.304688 179.621094 167.921875 C 179.621094 166.855469 178.949219 165.945312 178.039062 165.589844 L 178.039062 134.609375 C 178.039062 134.371094 177.960938 134.136719 177.761719 133.976562 L 170.015625 126.234375 C 170.136719 125.917969 170.214844 125.601562 170.214844 125.246094 C 170.214844 123.863281 169.109375 122.753906 167.726562 122.753906 C 166.34375 122.753906 165.234375 123.863281 165.234375 125.246094 C 165.234375 126.628906 166.34375 127.734375 167.726562 127.734375 C 168.082031 127.734375 168.4375 127.65625 168.753906 127.496094 Z M 177.800781 167.921875 C 177.800781 168.316406 177.484375 168.59375 177.128906 168.59375 C 176.734375 168.59375 176.457031 168.277344 176.457031 167.921875 C 176.457031 167.527344 176.773438 167.25 177.128906 167.25 C 177.484375 167.210938 177.800781 167.527344 177.800781 167.921875 Z M 167.054688 125.246094 C 167.054688 124.847656 167.371094 124.574219 167.726562 124.574219 C 168.121094 124.574219 168.398438 124.890625 168.398438 125.246094 C 168.398438 125.402344 168.359375 125.5625 168.238281 125.679688 C 168.238281 125.679688 168.238281 125.679688 168.199219 125.71875 C 168.199219 125.71875 168.160156 125.757812 168.160156 125.757812 C 168.042969 125.875 167.882812 125.917969 167.6875 125.917969 C 167.371094 125.957031 167.054688 125.640625 167.054688 125.246094 Z M 167.054688 125.246094 " fill-opacity="1" fill-rule="nonzero"/><path fill="#ffffff" d="M 162.984375 148.28125 L 171.085938 156.382812 L 171.085938 228.027344 C 171.085938 228.265625 171.164062 228.5 171.359375 228.660156 L 180.015625 237.3125 L 180.015625 252.765625 C 179.105469 253.121094 178.433594 254.027344 178.433594 255.09375 C 178.433594 256.480469 179.539062 257.585938 180.921875 257.585938 C 182.308594 257.585938 183.414062 256.480469 183.414062 255.09375 C 183.414062 254.027344 182.742188 253.121094 181.832031 252.765625 L 181.832031 236.957031 C 181.832031 236.71875 181.753906 236.484375 181.554688 236.324219 L 172.902344 227.632812 L 172.902344 156.027344 C 172.902344 155.789062 172.824219 155.554688 172.625 155.394531 L 164.523438 147.292969 L 164.523438 139.945312 C 165.433594 139.589844 166.105469 138.679688 166.105469 137.613281 C 166.105469 136.230469 165 135.125 163.617188 135.125 C 162.230469 135.125 161.125 136.230469 161.125 137.613281 C 161.125 138.679688 161.796875 139.589844 162.707031 139.945312 L 162.707031 147.648438 C 162.707031 147.886719 162.785156 148.125 162.984375 148.28125 Z M 181.59375 255.054688 C 181.59375 255.453125 181.28125 255.726562 180.921875 255.726562 C 180.527344 255.726562 180.25 255.410156 180.25 255.054688 C 180.25 254.660156 180.566406 254.382812 180.921875 254.382812 C 181.28125 254.382812 181.59375 254.699219 181.59375 255.054688 Z M 162.902344 137.613281 C 162.902344 137.21875 163.21875 136.941406 163.574219 136.941406 C 163.972656 136.941406 164.246094 137.257812 164.246094 137.613281 C 164.246094 138.007812 163.929688 138.285156 163.574219 138.285156 C 163.21875 138.285156 162.902344 138.007812 162.902344 137.613281 Z M 162.902344 137.613281 " fill-opacity="1" fill-rule="nonzero"/><path fill="#ffffff" d="M 188.984375 220.753906 L 183.808594 220.753906 L 183.808594 202.105469 C 184.71875 201.75 185.390625 200.839844 185.390625 199.773438 C 185.390625 198.390625 184.28125 197.28125 182.898438 197.28125 C 181.515625 197.28125 180.410156 198.390625 180.410156 199.773438 C 180.410156 200.839844 181.082031 201.75 181.992188 202.105469 L 181.992188 221.664062 C 181.992188 222.179688 182.386719 222.574219 182.898438 222.574219 L 188.074219 222.574219 L 188.074219 264.183594 C 188.074219 264.699219 188.472656 265.09375 188.984375 265.09375 L 198.074219 265.09375 L 198.074219 303.503906 C 197.164062 303.859375 196.492188 304.769531 196.492188 305.835938 C 196.492188 307.21875 197.597656 308.324219 198.984375 308.324219 C 200.367188 308.324219 201.472656 307.21875 201.472656 305.835938 C 201.472656 304.769531 200.800781 303.859375 199.890625 303.503906 L 199.890625 264.183594 C 199.890625 263.671875 199.496094 263.277344 198.984375 263.277344 L 189.894531 263.277344 L 189.894531 221.664062 C 189.855469 221.191406 189.460938 220.753906 188.984375 220.753906 Z M 182.1875 199.773438 C 182.1875 199.378906 182.503906 199.101562 182.859375 199.101562 C 183.253906 199.101562 183.53125 199.417969 183.53125 199.773438 C 183.53125 200.167969 183.214844 200.445312 182.859375 200.445312 C 182.503906 200.484375 182.1875 200.167969 182.1875 199.773438 Z M 199.65625 305.796875 C 199.65625 306.191406 199.339844 306.46875 198.984375 306.46875 C 198.585938 306.46875 198.3125 306.152344 198.3125 305.796875 C 198.3125 305.398438 198.628906 305.125 198.984375 305.125 C 199.339844 305.125 199.65625 305.441406 199.65625 305.796875 Z M 199.65625 305.796875 " fill-opacity="1" fill-rule="nonzero"/><g fill="#ffffff" fill-opacity="1"><g transform="translate(71.507812, 330.995397)"><g><path d="M 2.65625 -24.765625 L 10.625 -24.765625 L 10.625 -6.34375 L 23.328125 -6.34375 L 23.328125 0 L 2.65625 0 Z M 2.65625 -24.765625 "/></g></g></g><g fill="#ffffff" fill-opacity="1"><g transform="translate(95.511987, 330.995397)"><g><path d="M 11.984375 -19.4375 C 15.316406 -19.4375 17.9375 -18.585938 19.84375 -16.890625 C 21.757812 -15.203125 22.71875 -12.738281 22.71875 -9.5 C 22.71875 -6.257812 21.757812 -3.789062 19.84375 -2.09375 C 17.9375 -0.40625 15.316406 0.4375 11.984375 0.4375 C 8.648438 0.4375 6.035156 -0.398438 4.140625 -2.078125 C 2.242188 -3.765625 1.296875 -6.238281 1.296875 -9.5 C 1.296875 -12.769531 2.242188 -15.242188 4.140625 -16.921875 C 6.035156 -18.597656 8.648438 -19.4375 11.984375 -19.4375 Z M 11.984375 -14.578125 C 9.628906 -14.578125 8.453125 -13.222656 8.453125 -10.515625 L 8.453125 -8.453125 C 8.453125 -5.765625 9.628906 -4.421875 11.984375 -4.421875 C 14.359375 -4.421875 15.546875 -5.765625 15.546875 -8.453125 L 15.546875 -10.515625 C 15.546875 -13.222656 14.359375 -14.578125 11.984375 -14.578125 Z M 11.984375 -14.578125 "/></g></g></g><g fill="#ffffff" fill-opacity="1"><g transform="translate(119.516163, 330.995397)"><g><path d="M 23.546875 -22.578125 C 23.546875 -21.109375 23.175781 -19.976562 22.4375 -19.1875 C 21.707031 -18.394531 20.613281 -17.804688 19.15625 -17.421875 C 19.851562 -16.890625 20.398438 -16.269531 20.796875 -15.5625 C 21.191406 -14.863281 21.390625 -14.113281 21.390625 -13.3125 C 21.390625 -11.300781 20.625 -9.78125 19.09375 -8.75 C 17.570312 -7.71875 15.671875 -7.203125 13.390625 -7.203125 L 10.65625 -7.203125 C 9.144531 -7.203125 8.390625 -6.851562 8.390625 -6.15625 C 8.390625 -5.820312 8.554688 -5.550781 8.890625 -5.34375 C 9.222656 -5.144531 9.8125 -5.046875 10.65625 -5.046875 L 17.140625 -5.046875 C 19.242188 -5.046875 20.835938 -4.492188 21.921875 -3.390625 C 23.003906 -2.285156 23.546875 -0.804688 23.546875 1.046875 C 23.546875 2.410156 23.1875 3.582031 22.46875 4.5625 C 21.75 5.550781 20.773438 6.296875 19.546875 6.796875 C 18.328125 7.304688 16.992188 7.5625 15.546875 7.5625 L 4.96875 7.5625 C 4.101562 7.5625 3.300781 7.359375 2.5625 6.953125 C 1.832031 6.546875 1.253906 5.988281 0.828125 5.28125 C 0.398438 4.570312 0.1875 3.785156 0.1875 2.921875 C 0.1875 1.984375 0.472656 1.132812 1.046875 0.375 C 1.617188 -0.375 2.335938 -0.941406 3.203125 -1.328125 C 2.628906 -1.734375 2.171875 -2.222656 1.828125 -2.796875 C 1.492188 -3.378906 1.328125 -4.007812 1.328125 -4.6875 C 1.328125 -5.613281 1.675781 -6.457031 2.375 -7.21875 C 3.070312 -7.976562 3.9375 -8.488281 4.96875 -8.75 C 4.03125 -9.34375 3.285156 -10.03125 2.734375 -10.8125 C 2.179688 -11.59375 1.90625 -12.414062 1.90625 -13.28125 C 1.90625 -15.488281 2.796875 -17.066406 4.578125 -18.015625 C 6.367188 -18.960938 8.742188 -19.4375 11.703125 -19.4375 C 12.992188 -19.4375 14.035156 -19.363281 14.828125 -19.21875 C 16.003906 -19.96875 16.765625 -20.644531 17.109375 -21.25 C 17.460938 -21.863281 17.640625 -22.304688 17.640625 -22.578125 Z M 11.625 -15.703125 C 10.832031 -15.703125 10.179688 -15.492188 9.671875 -15.078125 C 9.171875 -14.671875 8.921875 -14.082031 8.921875 -13.3125 C 8.921875 -12.519531 9.15625 -11.925781 9.625 -11.53125 C 10.09375 -11.132812 10.757812 -10.9375 11.625 -10.9375 C 12.488281 -10.9375 13.164062 -11.132812 13.65625 -11.53125 C 14.15625 -11.925781 14.40625 -12.519531 14.40625 -13.3125 C 14.40625 -14.113281 14.15625 -14.710938 13.65625 -15.109375 C 13.164062 -15.503906 12.488281 -15.703125 11.625 -15.703125 Z M 8.859375 0 C 8.304688 0 7.851562 0.148438 7.5 0.453125 C 7.15625 0.753906 6.984375 1.179688 6.984375 1.734375 C 6.984375 2.285156 7.160156 2.726562 7.515625 3.0625 C 7.878906 3.394531 8.328125 3.5625 8.859375 3.5625 L 14.46875 3.5625 C 15 3.5625 15.445312 3.398438 15.8125 3.078125 C 16.1875 2.753906 16.375 2.316406 16.375 1.765625 C 16.375 1.210938 16.191406 0.78125 15.828125 0.46875 C 15.472656 0.15625 15.019531 0 14.46875 0 Z M 8.859375 0 "/></g></g></g><g fill="#ffffff" fill-opacity="1"><g transform="translate(143.520338, 330.995397)"><g><path d="M 2.40625 -21.234375 L 2.40625 -26.09375 L 9.578125 -26.09375 L 9.578125 -21.234375 Z M 2.40625 0 L 2.40625 -19.015625 L 9.578125 -19.015625 L 9.578125 0 Z M 2.40625 0 "/></g></g></g><g fill="#ffffff" fill-opacity="1"><g transform="translate(155.50443, 330.995397)"><g><path d="M 11.984375 -19.4375 C 15.109375 -19.4375 17.632812 -18.769531 19.5625 -17.4375 C 21.5 -16.101562 22.46875 -14.070312 22.46875 -11.34375 L 15.515625 -11.34375 C 15.515625 -13.5 14.335938 -14.578125 11.984375 -14.578125 C 9.628906 -14.578125 8.453125 -13.222656 8.453125 -10.515625 L 8.453125 -8.453125 C 8.453125 -5.765625 9.675781 -4.421875 12.125 -4.421875 C 14.570312 -4.421875 15.796875 -5.523438 15.796875 -7.734375 L 22.46875 -7.734375 C 22.46875 -4.972656 21.5 -2.921875 19.5625 -1.578125 C 17.632812 -0.234375 15.109375 0.4375 11.984375 0.4375 C 8.648438 0.4375 6.035156 -0.398438 4.140625 -2.078125 C 2.242188 -3.765625 1.296875 -6.238281 1.296875 -9.5 C 1.296875 -12.769531 2.242188 -15.242188 4.140625 -16.921875 C 6.035156 -18.597656 8.648438 -19.4375 11.984375 -19.4375 Z M 11.984375 -19.4375 "/></g></g></g><g fill="#ffffff" fill-opacity="1"><g transform="translate(179.508605, 330.995397)"><g><path d="M 11.5625 -19.4375 C 14.457031 -19.4375 16.816406 -18.953125 18.640625 -17.984375 C 20.472656 -17.015625 21.390625 -15.4375 21.390625 -13.25 L 21.390625 -5.828125 C 21.390625 -5.421875 21.484375 -5.082031 21.671875 -4.8125 C 21.859375 -4.550781 22.144531 -4.421875 22.53125 -4.421875 L 23.828125 -4.421875 L 23.828125 -0.28125 C 23.753906 -0.238281 23.566406 -0.160156 23.265625 -0.046875 C 22.972656 0.0546875 22.550781 0.160156 22 0.265625 C 21.445312 0.378906 20.8125 0.4375 20.09375 0.4375 C 18.695312 0.4375 17.546875 0.226562 16.640625 -0.1875 C 15.742188 -0.613281 15.128906 -1.195312 14.796875 -1.9375 C 13.878906 -1.21875 12.859375 -0.640625 11.734375 -0.203125 C 10.609375 0.222656 9.289062 0.4375 7.78125 0.4375 C 3.3125 0.4375 1.078125 -1.335938 1.078125 -4.890625 C 1.078125 -6.742188 1.570312 -8.15625 2.5625 -9.125 C 3.5625 -10.09375 5 -10.753906 6.875 -11.109375 C 8.75 -11.472656 11.195312 -11.65625 14.21875 -11.65625 L 14.21875 -12.59375 C 14.21875 -13.34375 13.957031 -13.910156 13.4375 -14.296875 C 12.925781 -14.679688 12.265625 -14.875 11.453125 -14.875 C 10.703125 -14.875 10.054688 -14.738281 9.515625 -14.46875 C 8.984375 -14.207031 8.71875 -13.789062 8.71875 -13.21875 L 8.71875 -13.0625 L 1.65625 -13.0625 C 1.632812 -13.1875 1.625 -13.359375 1.625 -13.578125 C 1.625 -15.367188 2.476562 -16.789062 4.1875 -17.84375 C 5.90625 -18.90625 8.363281 -19.4375 11.5625 -19.4375 Z M 14.21875 -8.28125 C 12.175781 -8.28125 10.671875 -8.054688 9.703125 -7.609375 C 8.734375 -7.171875 8.25 -6.578125 8.25 -5.828125 C 8.25 -4.628906 9.0625 -4.03125 10.6875 -4.03125 C 11.625 -4.03125 12.445312 -4.28125 13.15625 -4.78125 C 13.863281 -5.289062 14.21875 -5.914062 14.21875 -6.65625 Z M 14.21875 -8.28125 "/></g></g></g><g fill="#ffffff" fill-opacity="1"><g transform="translate(203.51278, 330.995397)"><g><path d="M 19.375 0 L 19.375 -9.390625 L 10.625 -9.390625 L 10.625 0 L 2.65625 0 L 2.65625 -24.765625 L 10.625 -24.765625 L 10.625 -15.734375 L 19.375 -15.734375 L 19.375 -24.765625 L 27.328125 -24.765625 L 27.328125 0 Z M 19.375 0 "/></g></g></g><g fill="#ffffff" fill-opacity="1"><g transform="translate(233.491011, 330.995397)"><g><path d="M 11.5625 -19.4375 C 14.457031 -19.4375 16.816406 -18.953125 18.640625 -17.984375 C 20.472656 -17.015625 21.390625 -15.4375 21.390625 -13.25 L 21.390625 -5.828125 C 21.390625 -5.421875 21.484375 -5.082031 21.671875 -4.8125 C 21.859375 -4.550781 22.144531 -4.421875 22.53125 -4.421875 L 23.828125 -4.421875 L 23.828125 -0.28125 C 23.753906 -0.238281 23.566406 -0.160156 23.265625 -0.046875 C 22.972656 0.0546875 22.550781 0.160156 22 0.265625 C 21.445312 0.378906 20.8125 0.4375 20.09375 0.4375 C 18.695312 0.4375 17.546875 0.226562 16.640625 -0.1875 C 15.742188 -0.613281 15.128906 -1.195312 14.796875 -1.9375 C 13.878906 -1.21875 12.859375 -0.640625 11.734375 -0.203125 C 10.609375 0.222656 9.289062 0.4375 7.78125 0.4375 C 3.3125 0.4375 1.078125 -1.335938 1.078125 -4.890625 C 1.078125 -6.742188 1.570312 -8.15625 2.5625 -9.125 C 3.5625 -10.09375 5 -10.753906 6.875 -11.109375 C 8.75 -11.472656 11.195312 -11.65625 14.21875 -11.65625 L 14.21875 -12.59375 C 14.21875 -13.34375 13.957031 -13.910156 13.4375 -14.296875 C 12.925781 -14.679688 12.265625 -14.875 11.453125 -14.875 C 10.703125 -14.875 10.054688 -14.738281 9.515625 -14.46875 C 8.984375 -14.207031 8.71875 -13.789062 8.71875 -13.21875 L 8.71875 -13.0625 L 1.65625 -13.0625 C 1.632812 -13.1875 1.625 -13.359375 1.625 -13.578125 C 1.625 -15.367188 2.476562 -16.789062 4.1875 -17.84375 C 5.90625 -18.90625 8.363281 -19.4375 11.5625 -19.4375 Z M 14.21875 -8.28125 C 12.175781 -8.28125 10.671875 -8.054688 9.703125 -7.609375 C 8.734375 -7.171875 8.25 -6.578125 8.25 -5.828125 C 8.25 -4.628906 9.0625 -4.03125 10.6875 -4.03125 C 11.625 -4.03125 12.445312 -4.28125 13.15625 -4.78125 C 13.863281 -5.289062 14.21875 -5.914062 14.21875 -6.65625 Z M 14.21875 -8.28125 "/></g></g></g><g fill="#ffffff" fill-opacity="1"><g transform="translate(257.495187, 330.995397)"><g><path d="M 15.953125 0 L 15.484375 -2.875 C 14.734375 -1.84375 13.753906 -1.03125 12.546875 -0.4375 C 11.335938 0.144531 10.0625 0.4375 8.71875 0.4375 C 6.507812 0.4375 4.851562 -0.171875 3.75 -1.390625 C 2.644531 -2.617188 2.09375 -4.390625 2.09375 -6.703125 L 2.09375 -19.015625 L 9.25 -19.015625 L 9.25 -7.5625 C 9.25 -6.75 9.457031 -6.09375 9.875 -5.59375 C 10.300781 -5.101562 10.894531 -4.859375 11.65625 -4.859375 C 12.550781 -4.859375 13.273438 -5.144531 13.828125 -5.71875 C 14.378906 -6.300781 14.65625 -7.007812 14.65625 -7.84375 L 14.65625 -19.015625 L 21.8125 -19.015625 L 21.8125 0 Z M 15.953125 0 "/></g></g></g><g fill="#ffffff" fill-opacity="1"><g transform="translate(281.499374, 330.995397)"><g><path d="M 11.203125 -19.4375 C 13.742188 -19.4375 15.894531 -18.9375 17.65625 -17.9375 C 19.414062 -16.945312 20.296875 -15.40625 20.296875 -13.3125 L 13.640625 -13.3125 C 13.640625 -14.007812 13.328125 -14.503906 12.703125 -14.796875 C 12.273438 -15.035156 11.738281 -15.15625 11.09375 -15.15625 C 9.363281 -15.15625 8.5 -14.75 8.5 -13.9375 C 8.5 -13.476562 8.796875 -13.148438 9.390625 -12.953125 C 9.992188 -12.765625 10.976562 -12.5625 12.34375 -12.34375 C 14.03125 -12.101562 15.4375 -11.820312 16.5625 -11.5 C 17.6875 -11.175781 18.664062 -10.597656 19.5 -9.765625 C 20.34375 -8.941406 20.765625 -7.785156 20.765625 -6.296875 C 20.765625 -3.867188 19.859375 -2.140625 18.046875 -1.109375 C 16.242188 -0.078125 13.875 0.4375 10.9375 0.4375 C 9.257812 0.4375 7.675781 0.203125 6.1875 -0.265625 C 4.695312 -0.734375 3.484375 -1.457031 2.546875 -2.4375 C 1.617188 -3.425781 1.15625 -4.675781 1.15625 -6.1875 L 7.8125 -6.1875 L 7.8125 -6.046875 C 7.832031 -5.234375 8.171875 -4.664062 8.828125 -4.34375 C 9.492188 -4.019531 10.195312 -3.859375 10.9375 -3.859375 C 12.9375 -3.859375 13.9375 -4.320312 13.9375 -5.25 C 13.9375 -5.726562 13.625 -6.078125 13 -6.296875 C 12.375 -6.515625 11.351562 -6.742188 9.9375 -6.984375 C 8.226562 -7.273438 6.828125 -7.585938 5.734375 -7.921875 C 4.648438 -8.253906 3.695312 -8.820312 2.875 -9.625 C 2.0625 -10.4375 1.65625 -11.5625 1.65625 -13 C 1.65625 -15.320312 2.535156 -16.972656 4.296875 -17.953125 C 6.066406 -18.941406 8.367188 -19.4375 11.203125 -19.4375 Z M 11.203125 -19.4375 "/></g></g></g></svg>