<svg xmlns="http://www.w3.org/2000/svg" xmlns:xlink="http://www.w3.org/1999/xlink" width="500" zoomAndPan="magnify" viewBox="0 0 375 374.999991" height="500" preserveAspectRatio="xMidYMid meet" version="1.0"><defs><g/><clipPath id="37eb233695"><path d="M 44 176 L 331 176 L 331 361.3125 L 44 361.3125 Z M 44 176 " clip-rule="nonzero"/></clipPath><clipPath id="4b4f331d78"><path d="M 1 14.0625 L 374 14.0625 L 374 169 L 1 169 Z M 1 14.0625 " clip-rule="nonzero"/></clipPath><clipPath id="e0bf26a4f1"><path d="M 75.769531 75.769531 L 299.269531 75.769531 L 299.269531 299.269531 L 75.769531 299.269531 Z M 75.769531 75.769531 " clip-rule="nonzero"/></clipPath></defs><g clip-path="url(#37eb233695)"><path fill="#000000" d="M 323.40625 361.34375 L 51.445312 361.34375 C 47.335938 361.34375 44.003906 358.007812 44.003906 353.890625 L 44.003906 184.222656 C 44.003906 180.105469 47.335938 176.757812 51.445312 176.757812 C 55.558594 176.757812 58.886719 180.105469 58.886719 184.222656 L 58.886719 346.441406 L 315.964844 346.441406 L 315.964844 184.222656 C 315.964844 180.105469 319.292969 176.757812 323.40625 176.757812 C 327.515625 176.757812 330.847656 180.105469 330.847656 184.222656 L 330.847656 353.890625 C 330.847656 358.007812 327.515625 361.34375 323.40625 361.34375 " fill-opacity="1" fill-rule="nonzero"/></g><g clip-path="url(#4b4f331d78)"><path fill="#000000" d="M 366.066406 168.332031 C 364.460938 168.332031 362.851562 167.832031 361.496094 166.769531 L 187.425781 31.507812 L 13.355469 166.769531 C 10.097656 169.292969 5.425781 168.703125 2.902344 165.457031 C 0.386719 162.195312 0.976562 157.519531 4.21875 155 L 182.859375 16.183594 C 185.554688 14.097656 189.296875 14.097656 191.996094 16.183594 L 370.632812 155 C 373.875 157.519531 374.464844 162.195312 371.945312 165.457031 C 370.484375 167.34375 368.277344 168.332031 366.066406 168.332031 " fill-opacity="1" fill-rule="nonzero"/></g><path fill="#000000" d="M 218.074219 189.414062 C 216.320312 190.625 214.371094 191.230469 212.277344 191.40625 C 211.566406 191.464844 210.902344 191.390625 210.355469 190.890625 C 209.78125 190.359375 209.558594 189.472656 209.882812 188.75 C 210.269531 187.863281 211.019531 187.582031 211.949219 187.523438 C 215.199219 187.347656 217.441406 185.679688 218.652344 182.699219 C 219.773438 179.910156 219.019531 176.707031 216.761719 174.667969 C 215.773438 173.769531 215.625 172.882812 216.054688 171.671875 C 217.542969 167.496094 214.726562 162.773438 210.34375 162.007812 C 205.738281 161.210938 201.691406 164.53125 201.5 169.265625 C 201.457031 170.507812 200.703125 171.273438 199.554688 171.273438 C 198.429688 171.261719 197.664062 170.433594 197.664062 169.222656 C 197.648438 167.6875 197.972656 166.199219 198.609375 164.824219 C 200.351562 161.136719 203.214844 158.863281 207.273438 158.199219 C 207.640625 158.140625 207.9375 158.066406 208.097656 157.621094 C 209.074219 155.085938 207.539062 152.027344 204.910156 151.351562 C 202.625 150.757812 200.496094 151.675781 199.347656 153.785156 C 198.742188 154.890625 197.648438 155.261719 196.644531 154.714844 C 195.714844 154.199219 195.390625 153.136719 195.878906 152.132812 C 196.777344 150.273438 198.226562 148.988281 200.039062 148.074219 C 198.550781 146.90625 194.460938 145.652344 192.644531 145.785156 C 191.039062 145.902344 189.53125 147.1875 189.503906 148.738281 C 189.441406 153.875 189.472656 159.023438 189.472656 164.191406 C 190.003906 164 190.492188 163.777344 191.007812 163.660156 C 191.523438 163.527344 192.070312 163.46875 192.601562 163.4375 C 193.8125 163.363281 194.699219 164.085938 194.785156 165.195312 C 194.875 166.359375 194.09375 167.1875 192.835938 167.273438 C 190.699219 167.4375 189.441406 168.796875 189.441406 170.980469 C 189.441406 180.128906 189.441406 189.28125 189.441406 198.429688 C 189.441406 198.625 189.355469 198.859375 189.546875 199.066406 C 189.695312 198.933594 189.839844 198.816406 189.988281 198.683594 C 191.421875 197.457031 193.042969 196.601562 194.859375 196.097656 C 195.953125 195.804688 196.941406 196.320312 197.265625 197.324219 C 197.605469 198.402344 197.117188 199.332031 195.996094 199.746094 C 195.363281 199.980469 194.710938 200.203125 194.105469 200.511719 C 190.625 202.3125 188.734375 206.460938 189.636719 210.296875 C 190.019531 211.890625 190.84375 213.339844 191.953125 214.476562 C 193.515625 216.054688 195.628906 217.058594 197.886719 217.085938 C 200.601562 217.132812 202.800781 216.261719 204.496094 214.476562 C 205.015625 213.945312 205.472656 213.324219 205.886719 212.628906 C 206.210938 212.082031 206.5625 211.613281 207.199219 211.433594 C 211.597656 210.296875 214.503906 205.753906 213.605469 201.25 C 213.382812 200.128906 213.78125 199.433594 214.8125 198.949219 C 216.613281 198.09375 217.898438 196.734375 218.621094 194.890625 C 219.359375 193 219.332031 191.097656 218.488281 189.175781 C 218.3125 189.25 218.195312 189.324219 218.074219 189.414062 Z M 192.824219 174.460938 C 193.621094 173.636719 194.769531 173.710938 195.746094 174.59375 C 198.046875 176.691406 200.703125 177.324219 203.597656 176.175781 C 206.621094 174.980469 208.230469 172.648438 208.378906 169.371094 C 208.4375 168.085938 209.207031 167.289062 210.355469 167.320312 C 211.539062 167.347656 212.261719 168.175781 212.246094 169.460938 C 212.1875 174.390625 208.894531 178.921875 204.128906 180.203125 C 203.878906 180.277344 203.539062 180.351562 203.199219 180.441406 C 204.085938 182.285156 205.5 183.332031 207.582031 183.390625 C 208.421875 183.421875 209.027344 183.804688 209.382812 184.542969 C 209.707031 185.238281 209.605469 185.929688 209.117188 186.535156 C 208.703125 187.039062 208.171875 187.257812 207.507812 187.257812 C 203.820312 187.273438 200.261719 184.585938 199.332031 181.015625 C 199.214844 180.574219 199.035156 180.394531 198.578125 180.308594 C 196.453125 179.863281 194.59375 178.890625 193.042969 177.371094 C 192.113281 176.457031 192.027344 175.289062 192.824219 174.460938 Z M 208.070312 202.683594 C 205.101562 202.816406 202.859375 204.144531 201.425781 206.769531 C 200.867188 207.804688 200.644531 208.910156 200.585938 210.078125 C 200.527344 211.300781 199.773438 212.097656 198.652344 212.097656 C 197.5 212.082031 196.703125 211.226562 196.75 209.972656 C 196.925781 205.53125 199.023438 202.253906 202.902344 200.128906 C 203.375 199.863281 203.492188 199.597656 203.464844 199.109375 C 203.140625 195.023438 200.171875 192.171875 196.039062 191.996094 C 194.859375 191.953125 194.019531 191.097656 194.046875 190.003906 C 194.09375 188.910156 194.902344 188.160156 196.085938 188.144531 C 201.015625 188.070312 205.722656 191.714844 206.917969 196.5 C 207.109375 197.25 207.242188 198.019531 207.332031 198.875 C 207.613281 198.875 207.832031 198.875 208.054688 198.875 C 209.160156 198.902344 209.972656 199.699219 209.988281 200.75 C 210.015625 201.824219 209.21875 202.636719 208.070312 202.683594 Z M 208.070312 202.683594 " fill-opacity="1" fill-rule="nonzero"/><path fill="#000000" d="M 194.902344 242.414062 C 194.902344 242.898438 194.855469 243.382812 194.761719 243.859375 C 194.667969 244.335938 194.527344 244.800781 194.339844 245.25 C 194.152344 245.699219 193.925781 246.125 193.65625 246.53125 C 193.386719 246.933594 193.078125 247.308594 192.734375 247.652344 C 192.390625 247.996094 192.015625 248.304688 191.609375 248.574219 C 191.207031 248.84375 190.78125 249.074219 190.332031 249.257812 C 189.882812 249.445312 189.417969 249.585938 188.941406 249.679688 C 188.464844 249.773438 187.980469 249.824219 187.496094 249.824219 C 187.007812 249.824219 186.527344 249.773438 186.050781 249.679688 C 185.574219 249.585938 185.109375 249.445312 184.660156 249.257812 C 184.210938 249.074219 183.785156 248.84375 183.378906 248.574219 C 182.972656 248.304688 182.601562 247.996094 182.257812 247.652344 C 181.910156 247.308594 181.605469 246.933594 181.335938 246.53125 C 181.0625 246.125 180.835938 245.699219 180.648438 245.25 C 180.464844 244.800781 180.324219 244.335938 180.226562 243.859375 C 180.132812 243.382812 180.085938 242.898438 180.085938 242.414062 C 180.085938 241.925781 180.132812 241.445312 180.226562 240.96875 C 180.324219 240.492188 180.464844 240.027344 180.648438 239.578125 C 180.835938 239.128906 181.0625 238.703125 181.335938 238.296875 C 181.605469 237.894531 181.910156 237.519531 182.257812 237.175781 C 182.601562 236.832031 182.972656 236.523438 183.378906 236.253906 C 183.785156 235.984375 184.210938 235.753906 184.660156 235.570312 C 185.109375 235.382812 185.574219 235.242188 186.050781 235.148438 C 186.527344 235.050781 187.007812 235.003906 187.496094 235.003906 C 187.980469 235.003906 188.464844 235.050781 188.941406 235.148438 C 189.417969 235.242188 189.882812 235.382812 190.332031 235.570312 C 190.78125 235.753906 191.207031 235.984375 191.609375 236.253906 C 192.015625 236.523438 192.390625 236.832031 192.734375 237.175781 C 193.078125 237.519531 193.386719 237.894531 193.65625 238.296875 C 193.925781 238.703125 194.152344 239.128906 194.339844 239.578125 C 194.527344 240.027344 194.667969 240.492188 194.761719 240.96875 C 194.855469 241.445312 194.902344 241.925781 194.902344 242.414062 Z M 194.902344 242.414062 " fill-opacity="1" fill-rule="nonzero"/><path fill="#000000" d="M 185.5625 208.304688 C 185.515625 204.039062 185.546875 199.773438 185.546875 195.496094 C 185.546875 185.515625 185.546875 175.539062 185.546875 165.5625 C 185.546875 163.394531 184.246094 161.976562 182.152344 161.875 C 180.957031 161.8125 180.175781 160.988281 180.21875 159.851562 C 180.25 158.773438 181.089844 158.035156 182.269531 158.035156 C 183.40625 158.035156 184.46875 158.347656 185.53125 158.832031 C 185.53125 155.4375 185.546875 152.148438 185.515625 148.855469 C 185.503906 147.835938 184.972656 147.054688 184.175781 146.449219 C 183.171875 145.695312 182.035156 145.667969 180.824219 145.859375 C 178.726562 146.183594 176.808594 146.964844 174.890625 147.984375 C 175.214844 148.175781 175.464844 148.308594 175.71875 148.457031 C 177.222656 149.359375 178.386719 150.566406 179.15625 152.148438 C 179.761719 153.429688 178.847656 154.921875 177.445312 154.90625 C 176.589844 154.90625 176.011719 154.433594 175.597656 153.683594 C 174.390625 151.46875 171.820312 150.539062 169.59375 151.46875 C 167.273438 152.441406 166.109375 154.890625 166.789062 157.296875 C 166.9375 157.828125 167.203125 157.992188 167.777344 158.167969 C 168.382812 158.347656 169.0625 158.417969 169.695312 158.625 C 174.136719 160.042969 177.472656 164.707031 177.339844 169.328125 C 177.3125 170.433594 176.527344 171.230469 175.453125 171.246094 C 174.359375 171.261719 173.578125 170.507812 173.503906 169.398438 C 173.472656 168.988281 173.445312 168.574219 173.371094 168.160156 C 172.867188 165.269531 171.214844 163.273438 168.46875 162.300781 C 165.535156 161.269531 162.847656 161.917969 160.675781 164.132812 C 158.566406 166.285156 158.019531 168.898438 158.980469 171.761719 C 159.347656 172.882812 159.203125 173.726562 158.285156 174.566406 C 156.25 176.457031 155.46875 178.832031 156.015625 181.589844 C 156.691406 184.984375 159.867188 187.523438 163.230469 187.511719 C 164.441406 187.511719 165.253906 188.378906 165.238281 189.472656 C 165.222656 190.59375 164.324219 191.421875 163.082031 191.375 C 162.035156 191.332031 161.003906 191.171875 159.984375 190.875 C 158.730469 190.492188 157.59375 189.855469 156.5 189.132812 C 154.816406 192.542969 156.398438 196.984375 159.867188 198.757812 C 161.3125 199.496094 161.546875 199.964844 161.3125 201.546875 C 160.648438 205.855469 163.261719 210.046875 167.453125 211.300781 C 168.191406 211.523438 168.675781 211.90625 169.0625 212.554688 C 169.472656 213.25 169.945312 213.882812 170.476562 214.429688 C 172.660156 216.644531 175.777344 217.558594 178.847656 216.804688 C 180.425781 216.421875 181.84375 215.566406 182.964844 214.429688 C 184.601562 212.808594 185.578125 210.578125 185.5625 208.304688 Z M 178.816406 191.9375 C 174.847656 192.039062 171.628906 195.257812 171.527344 199.183594 C 171.511719 199.628906 171.613281 199.863281 172.042969 200.085938 C 175.894531 202.195312 178.003906 205.425781 178.195312 209.839844 C 178.253906 211.152344 177.488281 212.054688 176.335938 212.082031 C 175.214844 212.113281 174.390625 211.214844 174.359375 209.929688 C 174.257812 206.136719 171.304688 203.023438 167.511719 202.726562 C 167.214844 202.695312 166.921875 202.695312 166.640625 202.652344 C 165.5625 202.476562 164.914062 201.664062 164.988281 200.601562 C 165.046875 199.628906 165.84375 198.875 166.875 198.828125 C 167.097656 198.816406 167.320312 198.828125 167.644531 198.828125 C 167.777344 197.382812 168.042969 195.980469 168.675781 194.710938 C 170.757812 190.566406 174.09375 188.308594 178.773438 188.128906 C 180.042969 188.085938 180.898438 188.882812 180.914062 190.003906 C 180.941406 191.125 180.101562 191.90625 178.816406 191.9375 Z M 182.121094 177.191406 C 180.542969 178.800781 178.65625 179.863281 176.441406 180.292969 C 176.011719 180.382812 175.804688 180.515625 175.660156 180.972656 C 174.449219 184.75 171.453125 187.097656 167.660156 187.257812 C 166.847656 187.304688 166.152344 187.066406 165.710938 186.34375 C 165.328125 185.710938 165.3125 185.046875 165.667969 184.394531 C 166.078125 183.65625 166.757812 183.4375 167.570312 183.390625 C 169.371094 183.289062 170.683594 182.386719 171.585938 180.851562 C 171.671875 180.707031 171.703125 180.542969 171.792969 180.351562 C 169.328125 179.761719 167.230469 178.59375 165.578125 176.707031 C 163.777344 174.640625 162.847656 172.25 162.742188 169.519531 C 162.699219 168.265625 163.453125 167.363281 164.589844 167.304688 C 165.710938 167.246094 166.523438 168.070312 166.609375 169.339844 C 166.816406 172.855469 168.707031 175.40625 171.984375 176.382812 C 174.742188 177.191406 177.222656 176.515625 179.332031 174.535156 C 180.320312 173.605469 181.578125 173.664062 182.328125 174.65625 C 182.917969 175.453125 182.859375 176.457031 182.121094 177.191406 Z M 182.121094 177.191406 " fill-opacity="1" fill-rule="nonzero"/><g clip-path="url(#e0bf26a4f1)"><path fill="#000000" d="M 290.453125 144 C 284.832031 130.703125 276.773438 118.746094 266.515625 108.488281 C 256.242188 98.230469 244.304688 90.171875 230.988281 84.535156 C 217.21875 78.71875 202.578125 75.753906 187.496094 75.753906 C 172.410156 75.753906 157.785156 78.71875 144.015625 84.535156 C 130.703125 90.171875 118.746094 98.230469 108.488281 108.488281 C 98.230469 118.746094 90.171875 130.703125 84.550781 144 C 78.71875 157.785156 75.769531 172.410156 75.769531 187.496094 C 75.769531 202.578125 78.71875 217.207031 84.550781 230.988281 C 90.171875 244.289062 98.230469 256.242188 108.488281 266.5 C 118.746094 276.757812 130.703125 284.816406 144.015625 290.453125 C 157.785156 296.269531 172.410156 299.238281 187.496094 299.238281 C 202.578125 299.238281 217.21875 296.269531 230.988281 290.453125 C 244.304688 284.816406 256.242188 276.757812 266.515625 266.5 C 276.773438 256.242188 284.832031 244.289062 290.453125 230.988281 C 296.285156 217.207031 299.238281 202.578125 299.238281 187.496094 C 299.238281 172.410156 296.285156 157.785156 290.453125 144 Z M 221.042969 143.777344 L 234.917969 129.90625 C 235.460938 129.359375 236.183594 129.0625 236.953125 129.0625 C 237.71875 129.0625 238.445312 129.359375 238.988281 129.90625 C 239.535156 130.449219 239.832031 131.175781 239.832031 131.941406 C 239.832031 132.710938 239.535156 133.433594 238.988281 133.976562 L 225.117188 147.851562 C 224.570312 148.398438 223.847656 148.691406 223.078125 148.691406 C 222.3125 148.691406 221.589844 148.398438 221.042969 147.851562 C 219.921875 146.730469 219.921875 144.898438 221.042969 143.777344 Z M 184.617188 111.457031 C 184.617188 109.863281 185.914062 108.578125 187.496094 108.578125 C 189.089844 108.578125 190.375 109.875 190.375 111.457031 L 190.375 131.070312 C 190.375 132.664062 189.074219 133.949219 187.496094 133.949219 C 185.902344 133.949219 184.617188 132.648438 184.617188 131.070312 Z M 136 129.90625 C 136.546875 129.359375 137.269531 129.0625 138.039062 129.0625 C 138.804688 129.0625 139.527344 129.359375 140.074219 129.90625 L 153.949219 143.777344 C 155.070312 144.898438 155.070312 146.730469 153.949219 147.851562 C 153.402344 148.398438 152.679688 148.691406 151.910156 148.691406 C 151.144531 148.691406 150.421875 148.398438 149.875 147.851562 L 136 133.976562 C 134.863281 132.855469 134.863281 131.027344 136 129.90625 Z M 114.660156 181.414062 C 114.660156 179.820312 115.957031 178.535156 117.535156 178.535156 L 137.152344 178.535156 C 138.746094 178.535156 140.03125 179.835938 140.03125 181.414062 C 140.03125 183.007812 138.730469 184.292969 137.152344 184.292969 L 117.535156 184.292969 C 115.957031 184.292969 114.660156 182.992188 114.660156 181.414062 Z M 153.949219 219.035156 L 140.074219 232.910156 C 139.527344 233.453125 138.804688 233.75 138.039062 233.75 C 137.269531 233.75 136.546875 233.453125 136 232.910156 C 134.878906 231.789062 134.878906 229.957031 136 228.835938 L 149.875 214.960938 C 150.421875 214.414062 151.144531 214.121094 151.910156 214.121094 C 152.679688 214.121094 153.402344 214.414062 153.949219 214.960938 C 154.492188 215.507812 154.789062 216.230469 154.789062 217 C 154.789062 217.78125 154.480469 218.503906 153.949219 219.035156 Z M 218.046875 201.488281 C 217.675781 201.753906 217.574219 202.003906 217.589844 202.429688 C 217.675781 208.097656 214.679688 212.585938 209.398438 214.726562 C 209.132812 214.828125 208.953125 214.992188 208.792969 215.226562 C 207.714844 216.878906 206.355469 218.164062 204.820312 219.09375 L 204.820312 246.441406 C 204.820312 247.210938 204.554688 247.949219 204.054688 248.523438 L 189.945312 265.261719 C 188.644531 266.796875 186.285156 266.796875 185 265.261719 L 170.890625 248.523438 C 170.402344 247.933594 170.125 247.195312 170.125 246.441406 L 170.125 219.078125 C 168.648438 218.179688 167.335938 216.953125 166.285156 215.433594 C 166.035156 215.050781 165.726562 214.8125 165.296875 214.636719 C 160.558594 212.777344 157.148438 207.949219 157.371094 202.535156 C 157.386719 202.0625 157.296875 201.753906 156.871094 201.457031 C 152.015625 198.03125 150.566406 191.804688 153.429688 186.609375 C 153.621094 186.253906 153.652344 186.019531 153.429688 185.636719 C 151.085938 181.414062 151.570312 176.46875 154.683594 172.734375 C 154.949219 172.425781 154.996094 172.160156 154.921875 171.761719 C 153.742188 165.726562 156.957031 160.339844 162.832031 158.480469 C 162.875 158.464844 161.609375 154.550781 164.675781 150.433594 C 165.105469 149.902344 165.578125 149.371094 166.152344 149.03125 C 168.53125 147.644531 170.625 145.828125 173.089844 144.5625 C 175.214844 143.453125 177.429688 142.554688 179.789062 142.125 C 182.652344 141.609375 185.296875 141.992188 187.4375 144.25 C 188.292969 143.4375 189.207031 142.773438 190.285156 142.375 C 192.585938 141.550781 194.859375 141.949219 197.101562 142.613281 C 200.511719 143.617188 203.539062 145.359375 206.355469 147.496094 C 206.769531 147.808594 207.199219 148.074219 207.640625 148.324219 C 211.125 150.226562 212.820312 153.992188 211.980469 157.84375 C 211.949219 158.007812 211.921875 158.167969 211.863281 158.40625 C 212.851562 158.699219 213.796875 159.070312 214.667969 159.585938 C 218.902344 162.125 220.9375 166.757812 219.980469 171.746094 C 219.90625 172.128906 219.9375 172.410156 220.203125 172.734375 C 223.34375 176.484375 223.816406 181.445312 221.441406 185.695312 C 221.265625 186.003906 221.25 186.210938 221.425781 186.535156 C 224.40625 191.773438 222.976562 198.019531 218.046875 201.488281 Z M 238.988281 232.910156 C 238.445312 233.453125 237.71875 233.75 236.953125 233.75 C 236.183594 233.75 235.460938 233.453125 234.917969 232.910156 L 221.042969 219.035156 C 219.921875 217.914062 219.921875 216.082031 221.042969 214.960938 C 221.589844 214.414062 222.3125 214.121094 223.078125 214.121094 C 223.847656 214.121094 224.570312 214.414062 225.117188 214.960938 L 238.988281 228.835938 C 239.535156 229.382812 239.832031 230.105469 239.832031 230.871094 C 239.84375 231.640625 239.535156 232.363281 238.988281 232.910156 Z M 257.453125 184.292969 L 237.824219 184.292969 C 236.230469 184.292969 234.945312 182.992188 234.945312 181.414062 C 234.945312 179.820312 236.246094 178.535156 237.824219 178.535156 L 257.4375 178.535156 C 259.03125 178.535156 260.316406 179.835938 260.316406 181.414062 C 260.332031 182.992188 259.03125 184.292969 257.453125 184.292969 Z M 257.453125 184.292969 " fill-opacity="1" fill-rule="nonzero"/></g><g fill="#000000" fill-opacity="1"><g transform="translate(71.507812, 330.995397)"><g><path d="M 2.65625 -24.765625 L 10.625 -24.765625 L 10.625 -6.34375 L 23.328125 -6.34375 L 23.328125 0 L 2.65625 0 Z M 2.65625 -24.765625 "/></g></g></g><g fill="#000000" fill-opacity="1"><g transform="translate(95.511987, 330.995397)"><g><path d="M 11.984375 -19.4375 C 15.316406 -19.4375 17.9375 -18.585938 19.84375 -16.890625 C 21.757812 -15.203125 22.71875 -12.738281 22.71875 -9.5 C 22.71875 -6.257812 21.757812 -3.789062 19.84375 -2.09375 C 17.9375 -0.40625 15.316406 0.4375 11.984375 0.4375 C 8.648438 0.4375 6.035156 -0.398438 4.140625 -2.078125 C 2.242188 -3.765625 1.296875 -6.238281 1.296875 -9.5 C 1.296875 -12.769531 2.242188 -15.242188 4.140625 -16.921875 C 6.035156 -18.597656 8.648438 -19.4375 11.984375 -19.4375 Z M 11.984375 -14.578125 C 9.628906 -14.578125 8.453125 -13.222656 8.453125 -10.515625 L 8.453125 -8.453125 C 8.453125 -5.765625 9.628906 -4.421875 11.984375 -4.421875 C 14.359375 -4.421875 15.546875 -5.765625 15.546875 -8.453125 L 15.546875 -10.515625 C 15.546875 -13.222656 14.359375 -14.578125 11.984375 -14.578125 Z M 11.984375 -14.578125 "/></g></g></g><g fill="#000000" fill-opacity="1"><g transform="translate(119.516163, 330.995397)"><g><path d="M 23.546875 -22.578125 C 23.546875 -21.109375 23.175781 -19.976562 22.4375 -19.1875 C 21.707031 -18.394531 20.613281 -17.804688 19.15625 -17.421875 C 19.851562 -16.890625 20.398438 -16.269531 20.796875 -15.5625 C 21.191406 -14.863281 21.390625 -14.113281 21.390625 -13.3125 C 21.390625 -11.300781 20.625 -9.78125 19.09375 -8.75 C 17.570312 -7.71875 15.671875 -7.203125 13.390625 -7.203125 L 10.65625 -7.203125 C 9.144531 -7.203125 8.390625 -6.851562 8.390625 -6.15625 C 8.390625 -5.820312 8.554688 -5.550781 8.890625 -5.34375 C 9.222656 -5.144531 9.8125 -5.046875 10.65625 -5.046875 L 17.140625 -5.046875 C 19.242188 -5.046875 20.835938 -4.492188 21.921875 -3.390625 C 23.003906 -2.285156 23.546875 -0.804688 23.546875 1.046875 C 23.546875 2.410156 23.1875 3.582031 22.46875 4.5625 C 21.75 5.550781 20.773438 6.296875 19.546875 6.796875 C 18.328125 7.304688 16.992188 7.5625 15.546875 7.5625 L 4.96875 7.5625 C 4.101562 7.5625 3.300781 7.359375 2.5625 6.953125 C 1.832031 6.546875 1.253906 5.988281 0.828125 5.28125 C 0.398438 4.570312 0.1875 3.785156 0.1875 2.921875 C 0.1875 1.984375 0.472656 1.132812 1.046875 0.375 C 1.617188 -0.375 2.335938 -0.941406 3.203125 -1.328125 C 2.628906 -1.734375 2.171875 -2.222656 1.828125 -2.796875 C 1.492188 -3.378906 1.328125 -4.007812 1.328125 -4.6875 C 1.328125 -5.613281 1.675781 -6.457031 2.375 -7.21875 C 3.070312 -7.976562 3.9375 -8.488281 4.96875 -8.75 C 4.03125 -9.34375 3.285156 -10.03125 2.734375 -10.8125 C 2.179688 -11.59375 1.90625 -12.414062 1.90625 -13.28125 C 1.90625 -15.488281 2.796875 -17.066406 4.578125 -18.015625 C 6.367188 -18.960938 8.742188 -19.4375 11.703125 -19.4375 C 12.992188 -19.4375 14.035156 -19.363281 14.828125 -19.21875 C 16.003906 -19.96875 16.765625 -20.644531 17.109375 -21.25 C 17.460938 -21.863281 17.640625 -22.304688 17.640625 -22.578125 Z M 11.625 -15.703125 C 10.832031 -15.703125 10.179688 -15.492188 9.671875 -15.078125 C 9.171875 -14.671875 8.921875 -14.082031 8.921875 -13.3125 C 8.921875 -12.519531 9.15625 -11.925781 9.625 -11.53125 C 10.09375 -11.132812 10.757812 -10.9375 11.625 -10.9375 C 12.488281 -10.9375 13.164062 -11.132812 13.65625 -11.53125 C 14.15625 -11.925781 14.40625 -12.519531 14.40625 -13.3125 C 14.40625 -14.113281 14.15625 -14.710938 13.65625 -15.109375 C 13.164062 -15.503906 12.488281 -15.703125 11.625 -15.703125 Z M 8.859375 0 C 8.304688 0 7.851562 0.148438 7.5 0.453125 C 7.15625 0.753906 6.984375 1.179688 6.984375 1.734375 C 6.984375 2.285156 7.160156 2.726562 7.515625 3.0625 C 7.878906 3.394531 8.328125 3.5625 8.859375 3.5625 L 14.46875 3.5625 C 15 3.5625 15.445312 3.398438 15.8125 3.078125 C 16.1875 2.753906 16.375 2.316406 16.375 1.765625 C 16.375 1.210938 16.191406 0.78125 15.828125 0.46875 C 15.472656 0.15625 15.019531 0 14.46875 0 Z M 8.859375 0 "/></g></g></g><g fill="#000000" fill-opacity="1"><g transform="translate(143.520338, 330.995397)"><g><path d="M 2.40625 -21.234375 L 2.40625 -26.09375 L 9.578125 -26.09375 L 9.578125 -21.234375 Z M 2.40625 0 L 2.40625 -19.015625 L 9.578125 -19.015625 L 9.578125 0 Z M 2.40625 0 "/></g></g></g><g fill="#000000" fill-opacity="1"><g transform="translate(155.50443, 330.995397)"><g><path d="M 11.984375 -19.4375 C 15.109375 -19.4375 17.632812 -18.769531 19.5625 -17.4375 C 21.5 -16.101562 22.46875 -14.070312 22.46875 -11.34375 L 15.515625 -11.34375 C 15.515625 -13.5 14.335938 -14.578125 11.984375 -14.578125 C 9.628906 -14.578125 8.453125 -13.222656 8.453125 -10.515625 L 8.453125 -8.453125 C 8.453125 -5.765625 9.675781 -4.421875 12.125 -4.421875 C 14.570312 -4.421875 15.796875 -5.523438 15.796875 -7.734375 L 22.46875 -7.734375 C 22.46875 -4.972656 21.5 -2.921875 19.5625 -1.578125 C 17.632812 -0.234375 15.109375 0.4375 11.984375 0.4375 C 8.648438 0.4375 6.035156 -0.398438 4.140625 -2.078125 C 2.242188 -3.765625 1.296875 -6.238281 1.296875 -9.5 C 1.296875 -12.769531 2.242188 -15.242188 4.140625 -16.921875 C 6.035156 -18.597656 8.648438 -19.4375 11.984375 -19.4375 Z M 11.984375 -19.4375 "/></g></g></g><g fill="#000000" fill-opacity="1"><g transform="translate(179.508605, 330.995397)"><g><path d="M 11.5625 -19.4375 C 14.457031 -19.4375 16.816406 -18.953125 18.640625 -17.984375 C 20.472656 -17.015625 21.390625 -15.4375 21.390625 -13.25 L 21.390625 -5.828125 C 21.390625 -5.421875 21.484375 -5.082031 21.671875 -4.8125 C 21.859375 -4.550781 22.144531 -4.421875 22.53125 -4.421875 L 23.828125 -4.421875 L 23.828125 -0.28125 C 23.753906 -0.238281 23.566406 -0.160156 23.265625 -0.046875 C 22.972656 0.0546875 22.550781 0.160156 22 0.265625 C 21.445312 0.378906 20.8125 0.4375 20.09375 0.4375 C 18.695312 0.4375 17.546875 0.226562 16.640625 -0.1875 C 15.742188 -0.613281 15.128906 -1.195312 14.796875 -1.9375 C 13.878906 -1.21875 12.859375 -0.640625 11.734375 -0.203125 C 10.609375 0.222656 9.289062 0.4375 7.78125 0.4375 C 3.3125 0.4375 1.078125 -1.335938 1.078125 -4.890625 C 1.078125 -6.742188 1.570312 -8.15625 2.5625 -9.125 C 3.5625 -10.09375 5 -10.753906 6.875 -11.109375 C 8.75 -11.472656 11.195312 -11.65625 14.21875 -11.65625 L 14.21875 -12.59375 C 14.21875 -13.34375 13.957031 -13.910156 13.4375 -14.296875 C 12.925781 -14.679688 12.265625 -14.875 11.453125 -14.875 C 10.703125 -14.875 10.054688 -14.738281 9.515625 -14.46875 C 8.984375 -14.207031 8.71875 -13.789062 8.71875 -13.21875 L 8.71875 -13.0625 L 1.65625 -13.0625 C 1.632812 -13.1875 1.625 -13.359375 1.625 -13.578125 C 1.625 -15.367188 2.476562 -16.789062 4.1875 -17.84375 C 5.90625 -18.90625 8.363281 -19.4375 11.5625 -19.4375 Z M 14.21875 -8.28125 C 12.175781 -8.28125 10.671875 -8.054688 9.703125 -7.609375 C 8.734375 -7.171875 8.25 -6.578125 8.25 -5.828125 C 8.25 -4.628906 9.0625 -4.03125 10.6875 -4.03125 C 11.625 -4.03125 12.445312 -4.28125 13.15625 -4.78125 C 13.863281 -5.289062 14.21875 -5.914062 14.21875 -6.65625 Z M 14.21875 -8.28125 "/></g></g></g><g fill="#000000" fill-opacity="1"><g transform="translate(203.51278, 330.995397)"><g><path d="M 19.375 0 L 19.375 -9.390625 L 10.625 -9.390625 L 10.625 0 L 2.65625 0 L 2.65625 -24.765625 L 10.625 -24.765625 L 10.625 -15.734375 L 19.375 -15.734375 L 19.375 -24.765625 L 27.328125 -24.765625 L 27.328125 0 Z M 19.375 0 "/></g></g></g><g fill="#000000" fill-opacity="1"><g transform="translate(233.491011, 330.995397)"><g><path d="M 11.5625 -19.4375 C 14.457031 -19.4375 16.816406 -18.953125 18.640625 -17.984375 C 20.472656 -17.015625 21.390625 -15.4375 21.390625 -13.25 L 21.390625 -5.828125 C 21.390625 -5.421875 21.484375 -5.082031 21.671875 -4.8125 C 21.859375 -4.550781 22.144531 -4.421875 22.53125 -4.421875 L 23.828125 -4.421875 L 23.828125 -0.28125 C 23.753906 -0.238281 23.566406 -0.160156 23.265625 -0.046875 C 22.972656 0.0546875 22.550781 0.160156 22 0.265625 C 21.445312 0.378906 20.8125 0.4375 20.09375 0.4375 C 18.695312 0.4375 17.546875 0.226562 16.640625 -0.1875 C 15.742188 -0.613281 15.128906 -1.195312 14.796875 -1.9375 C 13.878906 -1.21875 12.859375 -0.640625 11.734375 -0.203125 C 10.609375 0.222656 9.289062 0.4375 7.78125 0.4375 C 3.3125 0.4375 1.078125 -1.335938 1.078125 -4.890625 C 1.078125 -6.742188 1.570312 -8.15625 2.5625 -9.125 C 3.5625 -10.09375 5 -10.753906 6.875 -11.109375 C 8.75 -11.472656 11.195312 -11.65625 14.21875 -11.65625 L 14.21875 -12.59375 C 14.21875 -13.34375 13.957031 -13.910156 13.4375 -14.296875 C 12.925781 -14.679688 12.265625 -14.875 11.453125 -14.875 C 10.703125 -14.875 10.054688 -14.738281 9.515625 -14.46875 C 8.984375 -14.207031 8.71875 -13.789062 8.71875 -13.21875 L 8.71875 -13.0625 L 1.65625 -13.0625 C 1.632812 -13.1875 1.625 -13.359375 1.625 -13.578125 C 1.625 -15.367188 2.476562 -16.789062 4.1875 -17.84375 C 5.90625 -18.90625 8.363281 -19.4375 11.5625 -19.4375 Z M 14.21875 -8.28125 C 12.175781 -8.28125 10.671875 -8.054688 9.703125 -7.609375 C 8.734375 -7.171875 8.25 -6.578125 8.25 -5.828125 C 8.25 -4.628906 9.0625 -4.03125 10.6875 -4.03125 C 11.625 -4.03125 12.445312 -4.28125 13.15625 -4.78125 C 13.863281 -5.289062 14.21875 -5.914062 14.21875 -6.65625 Z M 14.21875 -8.28125 "/></g></g></g><g fill="#000000" fill-opacity="1"><g transform="translate(257.495187, 330.995397)"><g><path d="M 15.953125 0 L 15.484375 -2.875 C 14.734375 -1.84375 13.753906 -1.03125 12.546875 -0.4375 C 11.335938 0.144531 10.0625 0.4375 8.71875 0.4375 C 6.507812 0.4375 4.851562 -0.171875 3.75 -1.390625 C 2.644531 -2.617188 2.09375 -4.390625 2.09375 -6.703125 L 2.09375 -19.015625 L 9.25 -19.015625 L 9.25 -7.5625 C 9.25 -6.75 9.457031 -6.09375 9.875 -5.59375 C 10.300781 -5.101562 10.894531 -4.859375 11.65625 -4.859375 C 12.550781 -4.859375 13.273438 -5.144531 13.828125 -5.71875 C 14.378906 -6.300781 14.65625 -7.007812 14.65625 -7.84375 L 14.65625 -19.015625 L 21.8125 -19.015625 L 21.8125 0 Z M 15.953125 0 "/></g></g></g><g fill="#000000" fill-opacity="1"><g transform="translate(281.499374, 330.995397)"><g><path d="M 11.203125 -19.4375 C 13.742188 -19.4375 15.894531 -18.9375 17.65625 -17.9375 C 19.414062 -16.945312 20.296875 -15.40625 20.296875 -13.3125 L 13.640625 -13.3125 C 13.640625 -14.007812 13.328125 -14.503906 12.703125 -14.796875 C 12.273438 -15.035156 11.738281 -15.15625 11.09375 -15.15625 C 9.363281 -15.15625 8.5 -14.75 8.5 -13.9375 C 8.5 -13.476562 8.796875 -13.148438 9.390625 -12.953125 C 9.992188 -12.765625 10.976562 -12.5625 12.34375 -12.34375 C 14.03125 -12.101562 15.4375 -11.820312 16.5625 -11.5 C 17.6875 -11.175781 18.664062 -10.597656 19.5 -9.765625 C 20.34375 -8.941406 20.765625 -7.785156 20.765625 -6.296875 C 20.765625 -3.867188 19.859375 -2.140625 18.046875 -1.109375 C 16.242188 -0.078125 13.875 0.4375 10.9375 0.4375 C 9.257812 0.4375 7.675781 0.203125 6.1875 -0.265625 C 4.695312 -0.734375 3.484375 -1.457031 2.546875 -2.4375 C 1.617188 -3.425781 1.15625 -4.675781 1.15625 -6.1875 L 7.8125 -6.1875 L 7.8125 -6.046875 C 7.832031 -5.234375 8.171875 -4.664062 8.828125 -4.34375 C 9.492188 -4.019531 10.195312 -3.859375 10.9375 -3.859375 C 12.9375 -3.859375 13.9375 -4.320312 13.9375 -5.25 C 13.9375 -5.726562 13.625 -6.078125 13 -6.296875 C 12.375 -6.515625 11.351562 -6.742188 9.9375 -6.984375 C 8.226562 -7.273438 6.828125 -7.585938 5.734375 -7.921875 C 4.648438 -8.253906 3.695312 -8.820312 2.875 -9.625 C 2.0625 -10.4375 1.65625 -11.5625 1.65625 -13 C 1.65625 -15.320312 2.535156 -16.972656 4.296875 -17.953125 C 6.066406 -18.941406 8.367188 -19.4375 11.203125 -19.4375 Z M 11.203125 -19.4375 "/></g></g></g></svg>