<svg xmlns="http://www.w3.org/2000/svg" xmlns:xlink="http://www.w3.org/1999/xlink" width="500" zoomAndPan="magnify" viewBox="0 0 375 374.999991" height="500" preserveAspectRatio="xMidYMid meet" version="1.0"><defs><g/><clipPath id="0a630c8ee3"><path d="M 44 176 L 331 176 L 331 361.3125 L 44 361.3125 Z M 44 176 " clip-rule="nonzero"/></clipPath><clipPath id="ac7d21df15"><path d="M 1 14.0625 L 374 14.0625 L 374 169 L 1 169 Z M 1 14.0625 " clip-rule="nonzero"/></clipPath><clipPath id="72bc775d22"><path d="M 75.75 75.75 L 299.25 75.75 L 299.25 299.25 L 75.75 299.25 Z M 75.75 75.75 " clip-rule="nonzero"/></clipPath><clipPath id="3e4afd47e5"><path d="M 75.75 75.75 L 299.25 75.75 L 299.25 299.25 L 75.75 299.25 Z M 75.75 75.75 " clip-rule="nonzero"/></clipPath><clipPath id="562f1e7d79"><path d="M 187.5 75.75 C 125.78125 75.75 75.75 125.78125 75.75 187.5 C 75.75 249.21875 125.78125 299.25 187.5 299.25 C 249.21875 299.25 299.25 249.21875 299.25 187.5 C 299.25 125.78125 249.21875 75.75 187.5 75.75 " clip-rule="nonzero"/></clipPath></defs><g clip-path="url(#0a630c8ee3)"><path fill="#000000" d="M 323.40625 361.34375 L 51.445312 361.34375 C 47.335938 361.34375 44.003906 358.007812 44.003906 353.890625 L 44.003906 184.222656 C 44.003906 180.105469 47.335938 176.757812 51.445312 176.757812 C 55.558594 176.757812 58.886719 180.105469 58.886719 184.222656 L 58.886719 346.441406 L 315.964844 346.441406 L 315.964844 184.222656 C 315.964844 180.105469 319.292969 176.757812 323.40625 176.757812 C 327.515625 176.757812 330.847656 180.105469 330.847656 184.222656 L 330.847656 353.890625 C 330.847656 358.007812 327.515625 361.34375 323.40625 361.34375 " fill-opacity="1" fill-rule="nonzero"/></g><g clip-path="url(#ac7d21df15)"><path fill="#000000" d="M 366.066406 168.332031 C 364.460938 168.332031 362.851562 167.832031 361.496094 166.769531 L 187.425781 31.507812 L 13.355469 166.769531 C 10.097656 169.292969 5.425781 168.703125 2.902344 165.457031 C 0.386719 162.195312 0.976562 157.519531 4.21875 155 L 182.859375 16.183594 C 185.554688 14.097656 189.296875 14.097656 191.996094 16.183594 L 370.632812 155 C 373.875 157.519531 374.464844 162.195312 371.945312 165.457031 C 370.484375 167.34375 368.277344 168.332031 366.066406 168.332031 " fill-opacity="1" fill-rule="nonzero"/></g><g clip-path="url(#72bc775d22)"><path fill="#000000" d="M 187.5 75.75 C 125.78125 75.75 75.75 125.78125 75.75 187.5 C 75.75 249.21875 125.78125 299.25 187.5 299.25 C 249.21875 299.25 299.25 249.21875 299.25 187.5 C 299.25 125.78125 249.21875 75.75 187.5 75.75 " fill-opacity="1" fill-rule="nonzero"/></g><g clip-path="url(#3e4afd47e5)"><g clip-path="url(#562f1e7d79)"><path fill="#000000" d="M 299.25 75.75 L 299.25 299.25 L 75.75 299.25 L 75.75 75.75 Z M 299.25 75.75 " fill-opacity="1" fill-rule="nonzero"/></g></g><path fill="#ffffff" d="M 237.082031 196.886719 L 137.910156 196.886719 C 125.878906 196.808594 116.191406 186.988281 116.269531 174.957031 C 116.34375 163.957031 124.601562 154.734375 135.53125 153.464844 C 147.5 152.164062 158.261719 160.8125 159.5625 172.78125 C 159.644531 173.558594 159.6875 174.339844 159.6875 175.117188 C 159.6875 176.265625 160.617188 177.1875 161.761719 177.1875 C 162.910156 177.1875 163.835938 176.257812 163.835938 175.117188 C 163.824219 161.007812 152.542969 149.492188 138.4375 149.1875 C 141.777344 142.515625 148.609375 138.308594 156.070312 138.328125 C 156.300781 138.328125 156.53125 138.328125 156.765625 138.328125 C 156.855469 138.328125 156.949219 138.328125 157.042969 138.328125 C 157.140625 138.328125 157.304688 138.328125 157.4375 138.351562 C 157.566406 138.375 157.679688 138.351562 157.804688 138.382812 C 157.925781 138.414062 157.980469 138.382812 158.074219 138.410156 C 158.222656 138.410156 158.371094 138.4375 158.519531 138.457031 L 158.582031 138.457031 C 159.175781 138.53125 159.753906 138.636719 160.332031 138.773438 C 160.515625 138.820312 160.699219 138.863281 160.878906 138.90625 C 160.914062 138.90625 160.945312 138.921875 160.980469 138.933594 C 161.148438 138.976562 161.300781 139.019531 161.472656 139.066406 C 161.578125 139.097656 161.6875 139.128906 161.792969 139.160156 C 166.191406 140.496094 169.988281 143.328125 172.519531 147.164062 C 173.148438 148.125 174.433594 148.394531 175.394531 147.769531 C 176.355469 147.140625 176.625 145.851562 175.996094 144.890625 C 173.386719 140.933594 169.660156 137.84375 165.285156 136.015625 C 169.792969 123.75 183.390625 117.460938 195.660156 121.96875 C 202.175781 124.367188 207.308594 129.5 209.707031 136.015625 C 205.332031 137.84375 201.601562 140.9375 198.988281 144.890625 C 198.378906 145.859375 198.671875 147.144531 199.640625 147.753906 C 200.578125 148.34375 201.816406 148.09375 202.449219 147.183594 C 205.605469 142.398438 210.6875 139.230469 216.367188 138.492188 C 216.402344 138.492188 216.4375 138.492188 216.476562 138.492188 C 216.613281 138.492188 216.75 138.460938 216.886719 138.449219 C 217.023438 138.433594 217.097656 138.425781 217.207031 138.417969 C 217.316406 138.410156 217.421875 138.417969 217.523438 138.390625 C 217.625 138.363281 217.820312 138.375 217.96875 138.363281 L 218.199219 138.363281 C 218.4375 138.363281 218.671875 138.363281 218.90625 138.363281 C 226.367188 138.34375 233.199219 142.550781 236.539062 149.222656 C 222.433594 149.523438 211.15625 161.035156 211.136719 175.140625 C 211.136719 176.289062 212.066406 177.214844 213.210938 177.214844 C 214.355469 177.214844 215.285156 176.285156 215.285156 175.140625 C 215.285156 163.113281 225.03125 153.355469 237.0625 153.34375 C 237.855469 153.34375 238.648438 153.382812 239.433594 153.46875 C 251.386719 154.859375 259.941406 165.679688 258.546875 177.628906 C 257.273438 188.5625 248.050781 196.824219 237.046875 196.894531 Z M 237.082031 196.886719 " fill-opacity="1" fill-rule="nonzero"/><path fill="#ffffff" d="M 234.632812 236.15625 C 231.4375 236.15625 228.847656 233.570312 228.847656 230.375 C 228.847656 227.179688 231.433594 224.589844 234.628906 224.589844 C 237.824219 224.589844 240.410156 227.175781 240.410156 230.371094 C 240.410156 230.371094 240.410156 230.375 240.410156 230.375 C 240.40625 233.566406 237.816406 236.152344 234.632812 236.15625 Z M 234.632812 236.15625 " fill-opacity="1" fill-rule="nonzero"/><path fill="#ffffff" d="M 150.839844 236.15625 C 147.644531 236.160156 145.050781 233.574219 145.046875 230.382812 C 145.042969 227.1875 147.628906 224.597656 150.820312 224.589844 C 152.351562 224.585938 153.820312 225.195312 154.910156 226.277344 C 154.945312 226.582031 155.039062 226.875 155.203125 227.132812 C 155.40625 227.46875 155.707031 227.742188 156.0625 227.914062 C 156.429688 228.679688 156.617188 229.523438 156.617188 230.375 C 156.621094 233.566406 154.03125 236.152344 150.839844 236.15625 Z M 150.839844 236.15625 " fill-opacity="1" fill-rule="nonzero"/><path fill="#ffffff" d="M 195.351562 254.480469 C 194.628906 254.480469 193.914062 254.410156 193.203125 254.269531 C 192.496094 254.128906 191.804688 253.917969 191.136719 253.640625 C 190.46875 253.363281 189.835938 253.027344 189.234375 252.625 C 188.632812 252.222656 188.078125 251.765625 187.566406 251.253906 C 187.054688 250.742188 186.597656 250.1875 186.195312 249.585938 C 185.792969 248.984375 185.453125 248.347656 185.179688 247.679688 C 184.902344 247.011719 184.691406 246.324219 184.550781 245.617188 C 184.410156 244.90625 184.339844 244.191406 184.339844 243.464844 C 184.339844 242.742188 184.410156 242.027344 184.550781 241.316406 C 184.691406 240.609375 184.902344 239.921875 185.179688 239.25 C 185.453125 238.582031 185.792969 237.949219 186.195312 237.347656 C 186.597656 236.746094 187.054688 236.191406 187.566406 235.679688 C 188.078125 235.167969 188.632812 234.710938 189.234375 234.308594 C 189.835938 233.90625 190.46875 233.566406 191.136719 233.292969 C 191.804688 233.015625 192.496094 232.804688 193.203125 232.664062 C 193.914062 232.523438 194.628906 232.453125 195.351562 232.453125 C 196.078125 232.453125 196.792969 232.523438 197.5 232.664062 C 198.210938 232.804688 198.898438 233.015625 199.566406 233.292969 C 200.234375 233.566406 200.871094 233.90625 201.472656 234.308594 C 202.074219 234.710938 202.628906 235.167969 203.140625 235.679688 C 203.652344 236.191406 204.109375 236.746094 204.511719 237.347656 C 204.914062 237.949219 205.25 238.582031 205.527344 239.25 C 205.804688 239.921875 206.015625 240.609375 206.15625 241.316406 C 206.296875 242.027344 206.367188 242.742188 206.367188 243.464844 C 206.367188 244.191406 206.296875 244.90625 206.15625 245.617188 C 206.015625 246.324219 205.804688 247.011719 205.527344 247.679688 C 205.25 248.347656 204.914062 248.984375 204.511719 249.585938 C 204.109375 250.1875 203.652344 250.742188 203.140625 251.253906 C 202.628906 251.765625 202.074219 252.222656 201.472656 252.625 C 200.871094 253.027344 200.234375 253.363281 199.566406 253.640625 C 198.898438 253.917969 198.210938 254.128906 197.5 254.269531 C 196.792969 254.410156 196.078125 254.480469 195.351562 254.480469 Z M 195.351562 254.480469 " fill-opacity="1" fill-rule="nonzero"/><path fill="#ffffff" d="M 213.203125 218.828125 L 213.203125 201.035156 L 217.355469 201.035156 L 217.355469 217.671875 L 227.222656 223.765625 C 226.289062 224.808594 225.589844 226.039062 225.164062 227.375 L 214.183594 220.59375 C 213.574219 220.214844 213.203125 219.546875 213.203125 218.828125 Z M 213.203125 218.828125 " fill-opacity="1" fill-rule="nonzero"/><path fill="#ffffff" d="M 169.753906 220.59375 L 160.042969 226.605469 C 159.511719 225.308594 158.707031 224.140625 157.691406 223.175781 L 166.585938 217.671875 L 166.585938 201.035156 L 170.738281 201.035156 L 170.738281 218.828125 C 170.738281 219.546875 170.367188 220.214844 169.753906 220.59375 Z M 169.753906 220.59375 " fill-opacity="1" fill-rule="nonzero"/><path fill="#ffffff" d="M 192.132812 228.652344 L 192.132812 201.035156 L 196.28125 201.035156 L 196.28125 228.332031 C 195.964844 228.316406 195.667969 228.300781 195.355469 228.300781 C 194.269531 228.300781 193.1875 228.414062 192.132812 228.652344 Z M 192.132812 228.652344 " fill-opacity="1" fill-rule="nonzero"/><g fill="#000000" fill-opacity="1"><g transform="translate(71.507812, 330.995486)"><g><path d="M 2.65625 -24.765625 L 10.625 -24.765625 L 10.625 -6.34375 L 23.328125 -6.34375 L 23.328125 0 L 2.65625 0 Z M 2.65625 -24.765625 "/></g></g></g><g fill="#000000" fill-opacity="1"><g transform="translate(95.511987, 330.995486)"><g><path d="M 11.984375 -19.4375 C 15.316406 -19.4375 17.9375 -18.585938 19.84375 -16.890625 C 21.757812 -15.203125 22.71875 -12.738281 22.71875 -9.5 C 22.71875 -6.257812 21.757812 -3.789062 19.84375 -2.09375 C 17.9375 -0.40625 15.316406 0.4375 11.984375 0.4375 C 8.648438 0.4375 6.035156 -0.398438 4.140625 -2.078125 C 2.242188 -3.765625 1.296875 -6.238281 1.296875 -9.5 C 1.296875 -12.769531 2.242188 -15.242188 4.140625 -16.921875 C 6.035156 -18.597656 8.648438 -19.4375 11.984375 -19.4375 Z M 11.984375 -14.578125 C 9.628906 -14.578125 8.453125 -13.222656 8.453125 -10.515625 L 8.453125 -8.453125 C 8.453125 -5.765625 9.628906 -4.421875 11.984375 -4.421875 C 14.359375 -4.421875 15.546875 -5.765625 15.546875 -8.453125 L 15.546875 -10.515625 C 15.546875 -13.222656 14.359375 -14.578125 11.984375 -14.578125 Z M 11.984375 -14.578125 "/></g></g></g><g fill="#000000" fill-opacity="1"><g transform="translate(119.516163, 330.995486)"><g><path d="M 23.546875 -22.578125 C 23.546875 -21.109375 23.175781 -19.976562 22.4375 -19.1875 C 21.707031 -18.394531 20.613281 -17.804688 19.15625 -17.421875 C 19.851562 -16.890625 20.398438 -16.269531 20.796875 -15.5625 C 21.191406 -14.863281 21.390625 -14.113281 21.390625 -13.3125 C 21.390625 -11.300781 20.625 -9.78125 19.09375 -8.75 C 17.570312 -7.71875 15.671875 -7.203125 13.390625 -7.203125 L 10.65625 -7.203125 C 9.144531 -7.203125 8.390625 -6.851562 8.390625 -6.15625 C 8.390625 -5.820312 8.554688 -5.550781 8.890625 -5.34375 C 9.222656 -5.144531 9.8125 -5.046875 10.65625 -5.046875 L 17.140625 -5.046875 C 19.242188 -5.046875 20.835938 -4.492188 21.921875 -3.390625 C 23.003906 -2.285156 23.546875 -0.804688 23.546875 1.046875 C 23.546875 2.410156 23.1875 3.582031 22.46875 4.5625 C 21.75 5.550781 20.773438 6.296875 19.546875 6.796875 C 18.328125 7.304688 16.992188 7.5625 15.546875 7.5625 L 4.96875 7.5625 C 4.101562 7.5625 3.300781 7.359375 2.5625 6.953125 C 1.832031 6.546875 1.253906 5.988281 0.828125 5.28125 C 0.398438 4.570312 0.1875 3.785156 0.1875 2.921875 C 0.1875 1.984375 0.472656 1.132812 1.046875 0.375 C 1.617188 -0.375 2.335938 -0.941406 3.203125 -1.328125 C 2.628906 -1.734375 2.171875 -2.222656 1.828125 -2.796875 C 1.492188 -3.378906 1.328125 -4.007812 1.328125 -4.6875 C 1.328125 -5.613281 1.675781 -6.457031 2.375 -7.21875 C 3.070312 -7.976562 3.9375 -8.488281 4.96875 -8.75 C 4.03125 -9.34375 3.285156 -10.03125 2.734375 -10.8125 C 2.179688 -11.59375 1.90625 -12.414062 1.90625 -13.28125 C 1.90625 -15.488281 2.796875 -17.066406 4.578125 -18.015625 C 6.367188 -18.960938 8.742188 -19.4375 11.703125 -19.4375 C 12.992188 -19.4375 14.035156 -19.363281 14.828125 -19.21875 C 16.003906 -19.96875 16.765625 -20.644531 17.109375 -21.25 C 17.460938 -21.863281 17.640625 -22.304688 17.640625 -22.578125 Z M 11.625 -15.703125 C 10.832031 -15.703125 10.179688 -15.492188 9.671875 -15.078125 C 9.171875 -14.671875 8.921875 -14.082031 8.921875 -13.3125 C 8.921875 -12.519531 9.15625 -11.925781 9.625 -11.53125 C 10.09375 -11.132812 10.757812 -10.9375 11.625 -10.9375 C 12.488281 -10.9375 13.164062 -11.132812 13.65625 -11.53125 C 14.15625 -11.925781 14.40625 -12.519531 14.40625 -13.3125 C 14.40625 -14.113281 14.15625 -14.710938 13.65625 -15.109375 C 13.164062 -15.503906 12.488281 -15.703125 11.625 -15.703125 Z M 8.859375 0 C 8.304688 0 7.851562 0.148438 7.5 0.453125 C 7.15625 0.753906 6.984375 1.179688 6.984375 1.734375 C 6.984375 2.285156 7.160156 2.726562 7.515625 3.0625 C 7.878906 3.394531 8.328125 3.5625 8.859375 3.5625 L 14.46875 3.5625 C 15 3.5625 15.445312 3.398438 15.8125 3.078125 C 16.1875 2.753906 16.375 2.316406 16.375 1.765625 C 16.375 1.210938 16.191406 0.78125 15.828125 0.46875 C 15.472656 0.15625 15.019531 0 14.46875 0 Z M 8.859375 0 "/></g></g></g><g fill="#000000" fill-opacity="1"><g transform="translate(143.520338, 330.995486)"><g><path d="M 2.40625 -21.234375 L 2.40625 -26.09375 L 9.578125 -26.09375 L 9.578125 -21.234375 Z M 2.40625 0 L 2.40625 -19.015625 L 9.578125 -19.015625 L 9.578125 0 Z M 2.40625 0 "/></g></g></g><g fill="#000000" fill-opacity="1"><g transform="translate(155.50443, 330.995486)"><g><path d="M 11.984375 -19.4375 C 15.109375 -19.4375 17.632812 -18.769531 19.5625 -17.4375 C 21.5 -16.101562 22.46875 -14.070312 22.46875 -11.34375 L 15.515625 -11.34375 C 15.515625 -13.5 14.335938 -14.578125 11.984375 -14.578125 C 9.628906 -14.578125 8.453125 -13.222656 8.453125 -10.515625 L 8.453125 -8.453125 C 8.453125 -5.765625 9.675781 -4.421875 12.125 -4.421875 C 14.570312 -4.421875 15.796875 -5.523438 15.796875 -7.734375 L 22.46875 -7.734375 C 22.46875 -4.972656 21.5 -2.921875 19.5625 -1.578125 C 17.632812 -0.234375 15.109375 0.4375 11.984375 0.4375 C 8.648438 0.4375 6.035156 -0.398438 4.140625 -2.078125 C 2.242188 -3.765625 1.296875 -6.238281 1.296875 -9.5 C 1.296875 -12.769531 2.242188 -15.242188 4.140625 -16.921875 C 6.035156 -18.597656 8.648438 -19.4375 11.984375 -19.4375 Z M 11.984375 -19.4375 "/></g></g></g><g fill="#000000" fill-opacity="1"><g transform="translate(179.508605, 330.995486)"><g><path d="M 11.5625 -19.4375 C 14.457031 -19.4375 16.816406 -18.953125 18.640625 -17.984375 C 20.472656 -17.015625 21.390625 -15.4375 21.390625 -13.25 L 21.390625 -5.828125 C 21.390625 -5.421875 21.484375 -5.082031 21.671875 -4.8125 C 21.859375 -4.550781 22.144531 -4.421875 22.53125 -4.421875 L 23.828125 -4.421875 L 23.828125 -0.28125 C 23.753906 -0.238281 23.566406 -0.160156 23.265625 -0.046875 C 22.972656 0.0546875 22.550781 0.160156 22 0.265625 C 21.445312 0.378906 20.8125 0.4375 20.09375 0.4375 C 18.695312 0.4375 17.546875 0.226562 16.640625 -0.1875 C 15.742188 -0.613281 15.128906 -1.195312 14.796875 -1.9375 C 13.878906 -1.21875 12.859375 -0.640625 11.734375 -0.203125 C 10.609375 0.222656 9.289062 0.4375 7.78125 0.4375 C 3.3125 0.4375 1.078125 -1.335938 1.078125 -4.890625 C 1.078125 -6.742188 1.570312 -8.15625 2.5625 -9.125 C 3.5625 -10.09375 5 -10.753906 6.875 -11.109375 C 8.75 -11.472656 11.195312 -11.65625 14.21875 -11.65625 L 14.21875 -12.59375 C 14.21875 -13.34375 13.957031 -13.910156 13.4375 -14.296875 C 12.925781 -14.679688 12.265625 -14.875 11.453125 -14.875 C 10.703125 -14.875 10.054688 -14.738281 9.515625 -14.46875 C 8.984375 -14.207031 8.71875 -13.789062 8.71875 -13.21875 L 8.71875 -13.0625 L 1.65625 -13.0625 C 1.632812 -13.1875 1.625 -13.359375 1.625 -13.578125 C 1.625 -15.367188 2.476562 -16.789062 4.1875 -17.84375 C 5.90625 -18.90625 8.363281 -19.4375 11.5625 -19.4375 Z M 14.21875 -8.28125 C 12.175781 -8.28125 10.671875 -8.054688 9.703125 -7.609375 C 8.734375 -7.171875 8.25 -6.578125 8.25 -5.828125 C 8.25 -4.628906 9.0625 -4.03125 10.6875 -4.03125 C 11.625 -4.03125 12.445312 -4.28125 13.15625 -4.78125 C 13.863281 -5.289062 14.21875 -5.914062 14.21875 -6.65625 Z M 14.21875 -8.28125 "/></g></g></g><g fill="#000000" fill-opacity="1"><g transform="translate(203.51278, 330.995486)"><g><path d="M 19.375 0 L 19.375 -9.390625 L 10.625 -9.390625 L 10.625 0 L 2.65625 0 L 2.65625 -24.765625 L 10.625 -24.765625 L 10.625 -15.734375 L 19.375 -15.734375 L 19.375 -24.765625 L 27.328125 -24.765625 L 27.328125 0 Z M 19.375 0 "/></g></g></g><g fill="#000000" fill-opacity="1"><g transform="translate(233.491011, 330.995486)"><g><path d="M 11.5625 -19.4375 C 14.457031 -19.4375 16.816406 -18.953125 18.640625 -17.984375 C 20.472656 -17.015625 21.390625 -15.4375 21.390625 -13.25 L 21.390625 -5.828125 C 21.390625 -5.421875 21.484375 -5.082031 21.671875 -4.8125 C 21.859375 -4.550781 22.144531 -4.421875 22.53125 -4.421875 L 23.828125 -4.421875 L 23.828125 -0.28125 C 23.753906 -0.238281 23.566406 -0.160156 23.265625 -0.046875 C 22.972656 0.0546875 22.550781 0.160156 22 0.265625 C 21.445312 0.378906 20.8125 0.4375 20.09375 0.4375 C 18.695312 0.4375 17.546875 0.226562 16.640625 -0.1875 C 15.742188 -0.613281 15.128906 -1.195312 14.796875 -1.9375 C 13.878906 -1.21875 12.859375 -0.640625 11.734375 -0.203125 C 10.609375 0.222656 9.289062 0.4375 7.78125 0.4375 C 3.3125 0.4375 1.078125 -1.335938 1.078125 -4.890625 C 1.078125 -6.742188 1.570312 -8.15625 2.5625 -9.125 C 3.5625 -10.09375 5 -10.753906 6.875 -11.109375 C 8.75 -11.472656 11.195312 -11.65625 14.21875 -11.65625 L 14.21875 -12.59375 C 14.21875 -13.34375 13.957031 -13.910156 13.4375 -14.296875 C 12.925781 -14.679688 12.265625 -14.875 11.453125 -14.875 C 10.703125 -14.875 10.054688 -14.738281 9.515625 -14.46875 C 8.984375 -14.207031 8.71875 -13.789062 8.71875 -13.21875 L 8.71875 -13.0625 L 1.65625 -13.0625 C 1.632812 -13.1875 1.625 -13.359375 1.625 -13.578125 C 1.625 -15.367188 2.476562 -16.789062 4.1875 -17.84375 C 5.90625 -18.90625 8.363281 -19.4375 11.5625 -19.4375 Z M 14.21875 -8.28125 C 12.175781 -8.28125 10.671875 -8.054688 9.703125 -7.609375 C 8.734375 -7.171875 8.25 -6.578125 8.25 -5.828125 C 8.25 -4.628906 9.0625 -4.03125 10.6875 -4.03125 C 11.625 -4.03125 12.445312 -4.28125 13.15625 -4.78125 C 13.863281 -5.289062 14.21875 -5.914062 14.21875 -6.65625 Z M 14.21875 -8.28125 "/></g></g></g><g fill="#000000" fill-opacity="1"><g transform="translate(257.495187, 330.995486)"><g><path d="M 15.953125 0 L 15.484375 -2.875 C 14.734375 -1.84375 13.753906 -1.03125 12.546875 -0.4375 C 11.335938 0.144531 10.0625 0.4375 8.71875 0.4375 C 6.507812 0.4375 4.851562 -0.171875 3.75 -1.390625 C 2.644531 -2.617188 2.09375 -4.390625 2.09375 -6.703125 L 2.09375 -19.015625 L 9.25 -19.015625 L 9.25 -7.5625 C 9.25 -6.75 9.457031 -6.09375 9.875 -5.59375 C 10.300781 -5.101562 10.894531 -4.859375 11.65625 -4.859375 C 12.550781 -4.859375 13.273438 -5.144531 13.828125 -5.71875 C 14.378906 -6.300781 14.65625 -7.007812 14.65625 -7.84375 L 14.65625 -19.015625 L 21.8125 -19.015625 L 21.8125 0 Z M 15.953125 0 "/></g></g></g><g fill="#000000" fill-opacity="1"><g transform="translate(281.499374, 330.995486)"><g><path d="M 11.203125 -19.4375 C 13.742188 -19.4375 15.894531 -18.9375 17.65625 -17.9375 C 19.414062 -16.945312 20.296875 -15.40625 20.296875 -13.3125 L 13.640625 -13.3125 C 13.640625 -14.007812 13.328125 -14.503906 12.703125 -14.796875 C 12.273438 -15.035156 11.738281 -15.15625 11.09375 -15.15625 C 9.363281 -15.15625 8.5 -14.75 8.5 -13.9375 C 8.5 -13.476562 8.796875 -13.148438 9.390625 -12.953125 C 9.992188 -12.765625 10.976562 -12.5625 12.34375 -12.34375 C 14.03125 -12.101562 15.4375 -11.820312 16.5625 -11.5 C 17.6875 -11.175781 18.664062 -10.597656 19.5 -9.765625 C 20.34375 -8.941406 20.765625 -7.785156 20.765625 -6.296875 C 20.765625 -3.867188 19.859375 -2.140625 18.046875 -1.109375 C 16.242188 -0.078125 13.875 0.4375 10.9375 0.4375 C 9.257812 0.4375 7.675781 0.203125 6.1875 -0.265625 C 4.695312 -0.734375 3.484375 -1.457031 2.546875 -2.4375 C 1.617188 -3.425781 1.15625 -4.675781 1.15625 -6.1875 L 7.8125 -6.1875 L 7.8125 -6.046875 C 7.832031 -5.234375 8.171875 -4.664062 8.828125 -4.34375 C 9.492188 -4.019531 10.195312 -3.859375 10.9375 -3.859375 C 12.9375 -3.859375 13.9375 -4.320312 13.9375 -5.25 C 13.9375 -5.726562 13.625 -6.078125 13 -6.296875 C 12.375 -6.515625 11.351562 -6.742188 9.9375 -6.984375 C 8.226562 -7.273438 6.828125 -7.585938 5.734375 -7.921875 C 4.648438 -8.253906 3.695312 -8.820312 2.875 -9.625 C 2.0625 -10.4375 1.65625 -11.5625 1.65625 -13 C 1.65625 -15.320312 2.535156 -16.972656 4.296875 -17.953125 C 6.066406 -18.941406 8.367188 -19.4375 11.203125 -19.4375 Z M 11.203125 -19.4375 "/></g></g></g></svg>