<svg xmlns="http://www.w3.org/2000/svg" xmlns:xlink="http://www.w3.org/1999/xlink" width="500" zoomAndPan="magnify" viewBox="0 0 375 374.999991" height="500" preserveAspectRatio="xMidYMid meet" version="1.0"><defs><g/><clipPath id="e0039a3686"><path d="M 44 176 L 331 176 L 331 361.3125 L 44 361.3125 Z M 44 176 " clip-rule="nonzero"/></clipPath><clipPath id="774caee169"><path d="M 1 14.0625 L 374 14.0625 L 374 169 L 1 169 Z M 1 14.0625 " clip-rule="nonzero"/></clipPath><clipPath id="88e1bc5802"><path d="M 52 38 L 321 38 L 321 191 L 52 191 Z M 52 38 " clip-rule="nonzero"/></clipPath><clipPath id="8b91557dc9"><path d="M 329.597656 179.605469 L 187.46875 321.734375 L 45.339844 179.605469 L 187.46875 37.476562 Z M 329.597656 179.605469 " clip-rule="nonzero"/></clipPath><clipPath id="320e17bc77"><path d="M 329.597656 179.605469 L 187.46875 321.734375 L 45.339844 179.605469 L 187.46875 37.476562 Z M 329.597656 179.605469 " clip-rule="nonzero"/></clipPath><clipPath id="66cb9ee52f"><path d="M 129.730469 140 L 153 140 L 153 167 L 129.730469 167 Z M 129.730469 140 " clip-rule="nonzero"/></clipPath><clipPath id="91f4316047"><path d="M 187 134 L 224.230469 134 L 224.230469 167 L 187 167 Z M 187 134 " clip-rule="nonzero"/></clipPath><clipPath id="386577a0b9"><path d="M 170 113.648438 L 196 113.648438 L 196 154 L 170 154 Z M 170 113.648438 " clip-rule="nonzero"/></clipPath><clipPath id="d845217e23"><path d="M 159 221 L 177 221 L 177 316.148438 L 159 316.148438 Z M 159 221 " clip-rule="nonzero"/></clipPath></defs><rect x="-37.5" width="450" fill="#ffffff" y="-37.499999" height="449.999989" fill-opacity="1"/><rect x="-37.5" width="450" fill="#ffffff" y="-37.499999" height="449.999989" fill-opacity="1"/><g clip-path="url(#e0039a3686)"><path fill="#000000" d="M 323.40625 361.34375 L 51.445312 361.34375 C 47.335938 361.34375 44.003906 358.007812 44.003906 353.890625 L 44.003906 184.222656 C 44.003906 180.105469 47.335938 176.757812 51.445312 176.757812 C 55.558594 176.757812 58.886719 180.105469 58.886719 184.222656 L 58.886719 346.441406 L 315.964844 346.441406 L 315.964844 184.222656 C 315.964844 180.105469 319.292969 176.757812 323.40625 176.757812 C 327.515625 176.757812 330.847656 180.105469 330.847656 184.222656 L 330.847656 353.890625 C 330.847656 358.007812 327.515625 361.34375 323.40625 361.34375 " fill-opacity="1" fill-rule="nonzero"/></g><g clip-path="url(#774caee169)"><path fill="#000000" d="M 366.066406 168.332031 C 364.460938 168.332031 362.851562 167.832031 361.496094 166.769531 L 187.425781 31.507812 L 13.355469 166.769531 C 10.097656 169.292969 5.425781 168.703125 2.902344 165.457031 C 0.386719 162.195312 0.976562 157.519531 4.21875 155 L 182.859375 16.183594 C 185.554688 14.097656 189.296875 14.097656 191.996094 16.183594 L 370.632812 155 C 373.875 157.519531 374.464844 162.195312 371.945312 165.457031 C 370.484375 167.34375 368.277344 168.332031 366.066406 168.332031 " fill-opacity="1" fill-rule="nonzero"/></g><g clip-path="url(#88e1bc5802)"><g clip-path="url(#8b91557dc9)"><g clip-path="url(#320e17bc77)"><path fill="#000000" d="M 198.910156 66.460938 C 199.953125 67.503906 201.652344 67.503906 202.695312 66.460938 C 203.738281 65.417969 203.738281 63.71875 202.695312 62.675781 C 201.761719 61.742188 200.304688 61.644531 199.257812 62.382812 L 189.574219 52.699219 C 189.46875 52.59375 189.34375 52.554688 189.222656 52.566406 L 175.59375 52.566406 C 175.441406 52.566406 175.320312 52.632812 175.246094 52.726562 L 137.082031 90.894531 C 136.972656 91 136.9375 91.128906 136.945312 91.246094 L 136.945312 114.597656 L 103.542969 148.003906 C 102.84375 147.597656 101.929688 147.6875 101.335938 148.28125 C 100.632812 148.988281 100.632812 150.144531 101.335938 150.847656 C 102.042969 151.554688 103.199219 151.554688 103.902344 150.847656 C 104.5 150.25 104.59375 149.335938 104.183594 148.644531 L 137.683594 115.144531 C 137.757812 115.082031 137.816406 114.996094 137.84375 114.882812 C 137.851562 114.847656 137.851562 114.820312 137.851562 114.789062 L 137.851562 91.402344 L 175.78125 53.472656 L 189.066406 53.472656 L 198.613281 63.019531 C 197.878906 64.070312 197.980469 65.527344 198.910156 66.460938 M 126.175781 132.335938 C 125.132812 133.375 125.132812 135.074219 126.175781 136.117188 C 127.21875 137.160156 128.917969 137.160156 129.960938 136.117188 C 130.894531 135.183594 130.992188 133.726562 130.253906 132.679688 L 155.714844 107.21875 C 155.804688 107.128906 155.851562 107.015625 155.851562 106.898438 L 155.851562 84.1875 L 176.460938 63.578125 L 187.148438 63.582031 L 202.601562 79.035156 L 200.84375 118.214844 C 200.835938 118.363281 200.898438 118.492188 200.996094 118.574219 L 226.917969 144.5 C 226.511719 145.195312 226.605469 146.109375 227.199219 146.703125 C 227.902344 147.40625 229.058594 147.40625 229.761719 146.703125 C 230.46875 145.996094 230.46875 144.839844 229.761719 144.136719 C 229.167969 143.539062 228.253906 143.445312 227.558594 143.855469 L 201.757812 118.054688 L 203.515625 78.917969 C 203.527344 78.835938 203.515625 78.746094 203.46875 78.652344 C 203.445312 78.609375 203.425781 78.574219 203.390625 78.539062 L 187.695312 62.84375 C 187.636719 62.765625 187.546875 62.710938 187.425781 62.679688 C 187.394531 62.675781 187.367188 62.671875 187.335938 62.671875 L 176.269531 62.671875 C 176.15625 62.671875 176.039062 62.714844 175.949219 62.804688 L 155.105469 83.648438 C 155.03125 83.707031 154.972656 83.796875 154.945312 83.910156 C 154.941406 83.941406 154.9375 83.972656 154.9375 84.003906 L 154.9375 106.714844 L 129.609375 132.042969 C 128.570312 131.300781 127.109375 131.402344 126.175781 132.335938 Z M 219.949219 127.695312 C 218.515625 128.078125 217.6875 129.542969 218.058594 130.972656 C 218.445312 132.402344 219.910156 133.25 221.335938 132.867188 C 222.613281 132.523438 223.421875 131.3125 223.304688 130.039062 L 224.894531 129.613281 L 238.035156 142.753906 C 237.628906 143.449219 237.71875 144.363281 238.3125 144.957031 C 239.019531 145.664062 240.171875 145.664062 240.878906 144.957031 C 241.585938 144.25 241.585938 143.097656 240.878906 142.390625 C 240.28125 141.792969 239.367188 141.703125 238.675781 142.113281 L 225.371094 128.808594 C 225.292969 128.710938 225.167969 128.648438 225.011719 128.652344 C 224.980469 128.652344 224.945312 128.660156 224.910156 128.667969 L 223.070312 129.164062 C 222.535156 128.003906 221.234375 127.355469 219.949219 127.695312 Z M 184.320312 70.664062 C 183.277344 69.621094 181.578125 69.621094 180.535156 70.664062 C 179.492188 71.707031 179.492188 73.40625 180.535156 74.445312 C 181.46875 75.378906 182.929688 75.480469 183.972656 74.742188 L 193.328125 84.097656 L 193.328125 126.242188 C 193.328125 126.398438 193.394531 126.515625 193.488281 126.589844 L 201.648438 134.75 C 201.238281 135.445312 201.332031 136.359375 201.925781 136.953125 C 202.632812 137.65625 203.785156 137.65625 204.492188 136.953125 C 205.199219 136.246094 205.199219 135.09375 204.492188 134.386719 C 203.894531 133.789062 202.980469 133.695312 202.289062 134.109375 L 194.234375 126.054688 L 194.234375 83.941406 C 194.238281 83.867188 194.226562 83.78125 194.1875 83.699219 C 194.164062 83.65625 194.144531 83.621094 194.109375 83.585938 L 184.621094 74.101562 C 185.351562 73.054688 185.253906 71.597656 184.320312 70.664062 Z M 226.945312 93.292969 C 225.902344 92.253906 224.203125 92.253906 223.160156 93.296875 C 222.117188 94.335938 222.117188 96.035156 223.160156 97.078125 C 224.09375 98.011719 225.550781 98.113281 226.597656 97.375 L 316.707031 187.480469 C 316.296875 188.179688 316.390625 189.09375 316.984375 189.683594 C 317.691406 190.390625 318.84375 190.390625 319.550781 189.683594 C 320.257812 188.980469 320.257812 187.824219 319.550781 187.121094 C 318.953125 186.523438 318.039062 186.429688 317.347656 186.839844 L 227.238281 96.734375 C 227.972656 95.691406 227.878906 94.226562 226.945312 93.292969 Z M 130.445312 113.75 C 131.488281 112.707031 131.488281 111.007812 130.445312 109.964844 C 129.402344 108.921875 127.703125 108.921875 126.660156 109.964844 C 125.726562 110.898438 125.628906 112.359375 126.367188 113.402344 L 55.316406 184.453125 C 54.621094 184.042969 53.707031 184.136719 53.113281 184.730469 C 52.40625 185.4375 52.40625 186.589844 53.113281 187.296875 C 53.820312 188 54.972656 188 55.679688 187.296875 C 56.277344 186.699219 56.367188 185.785156 55.957031 185.09375 L 127.007812 114.042969 C 128.050781 114.777344 129.507812 114.6875 130.445312 113.75 Z M 122.410156 165.90625 C 123.84375 166.28125 125.300781 165.445312 125.6875 164.011719 C 125.898438 163.214844 125.726562 162.402344 125.289062 161.777344 L 150.253906 136.8125 C 150.355469 136.730469 150.414062 136.605469 150.410156 136.449219 C 150.410156 136.417969 150.410156 136.382812 150.394531 136.347656 L 147.867188 126.90625 L 163.472656 111.300781 C 163.542969 111.238281 163.605469 111.152344 163.632812 111.03125 C 163.640625 111 163.644531 110.972656 163.644531 110.941406 L 163.644531 88.132812 L 173.582031 78.191406 L 183.136719 87.746094 C 182.398438 88.792969 182.496094 90.25 183.429688 91.183594 C 184.472656 92.226562 186.171875 92.226562 187.214844 91.183594 C 188.257812 90.140625 188.257812 88.441406 187.214844 87.402344 C 186.28125 86.46875 184.824219 86.367188 183.777344 87.105469 L 173.902344 77.230469 C 173.703125 77.03125 173.429688 77.070312 173.261719 77.230469 L 162.871094 87.621094 C 162.765625 87.726562 162.726562 87.855469 162.738281 87.972656 L 162.734375 110.753906 L 147.039062 126.449219 C 146.90625 126.582031 146.882812 126.742188 146.921875 126.886719 L 149.449219 136.328125 L 124.648438 161.128906 C 124.394531 160.949219 124.109375 160.816406 123.792969 160.730469 C 122.507812 160.394531 121.207031 161.035156 120.671875 162.199219 L 108.019531 158.804688 C 107.84375 158.753906 107.6875 158.816406 107.582031 158.921875 L 90.140625 176.359375 C 89.445312 175.953125 88.53125 176.046875 87.9375 176.640625 C 87.234375 177.34375 87.234375 178.5 87.9375 179.203125 C 88.644531 179.910156 89.800781 179.910156 90.503906 179.203125 C 91.101562 178.609375 91.195312 177.695312 90.785156 177 L 108.039062 159.746094 L 120.441406 163.070312 C 120.328125 164.351562 121.128906 165.558594 122.410156 165.90625 Z M 189.417969 39.394531 C 188.375 38.351562 186.675781 38.351562 185.632812 39.394531 C 184.59375 40.4375 184.59375 42.136719 185.632812 43.179688 C 186.566406 44.113281 188.027344 44.210938 189.074219 43.472656 L 216.117188 70.519531 L 213.832031 100.765625 C 213.820312 100.914062 213.878906 101.042969 213.96875 101.125 L 252.285156 139.441406 C 251.980469 139.875 251.800781 140.40625 251.792969 140.984375 C 251.804688 142.324219 252.746094 143.398438 254.015625 143.617188 L 254.015625 162.703125 C 254.015625 162.859375 254.082031 162.976562 254.175781 163.050781 L 270.621094 179.496094 C 270.214844 180.191406 270.308594 181.105469 270.898438 181.699219 C 271.605469 182.40625 272.761719 182.40625 273.464844 181.699219 C 274.171875 180.996094 274.171875 179.839844 273.464844 179.132812 C 272.871094 178.539062 271.957031 178.445312 271.261719 178.855469 L 254.921875 162.515625 L 254.921875 143.613281 C 256.191406 143.394531 257.132812 142.3125 257.144531 140.980469 C 257.128906 139.488281 255.960938 138.320312 254.46875 138.300781 C 253.890625 138.308594 253.359375 138.488281 252.925781 138.792969 L 214.75 100.617188 L 217.035156 70.410156 C 217.050781 70.324219 217.035156 70.230469 216.988281 70.128906 C 216.964844 70.089844 216.941406 70.054688 216.90625 70.019531 L 189.714844 42.824219 C 190.453125 41.785156 190.351562 40.328125 189.417969 39.394531 Z M 189.417969 39.394531 " fill-opacity="1" fill-rule="nonzero"/></g></g></g><path fill="#000000" d="M 158.808594 136.546875 C 158.808594 136.191406 158.730469 135.835938 158.570312 135.519531 L 163.0625 130.617188 L 170.816406 138.40625 L 170.816406 144.855469 C 169.914062 145.210938 169.242188 146.121094 169.242188 147.1875 C 169.242188 148.570312 170.34375 149.679688 171.722656 149.679688 C 173.101562 149.679688 174.203125 148.570312 174.203125 147.1875 C 174.203125 146.121094 173.535156 145.210938 172.628906 144.855469 L 172.628906 138.050781 C 172.628906 137.8125 172.550781 137.578125 172.351562 137.417969 L 163.691406 128.71875 C 163.535156 128.558594 163.296875 128.441406 163.023438 128.441406 C 162.785156 128.441406 162.550781 128.558594 162.390625 128.71875 L 157.273438 134.292969 C 156.957031 134.175781 156.644531 134.097656 156.289062 134.097656 C 154.910156 134.097656 153.808594 135.203125 153.808594 136.585938 C 153.808594 137.972656 154.910156 139.078125 156.289062 139.078125 C 157.667969 139.078125 158.808594 137.933594 158.808594 136.546875 Z M 172.433594 147.148438 C 172.433594 147.542969 172.117188 147.820312 171.761719 147.820312 C 171.367188 147.820312 171.09375 147.503906 171.09375 147.148438 C 171.09375 146.753906 171.410156 146.476562 171.761719 146.476562 C 172.117188 146.4375 172.433594 146.753906 172.433594 147.148438 Z M 155.660156 136.546875 C 155.660156 136.152344 155.972656 135.875 156.328125 135.875 C 156.722656 135.875 156.996094 136.191406 156.996094 136.546875 C 156.996094 136.945312 156.683594 137.21875 156.328125 137.21875 C 155.972656 137.21875 155.660156 136.902344 155.660156 136.546875 Z M 155.660156 136.546875 " fill-opacity="1" fill-rule="nonzero"/><path fill="#000000" d="M 185.425781 126.621094 C 185.425781 128.003906 186.527344 129.113281 187.90625 129.113281 C 188.300781 129.113281 188.65625 129.035156 188.96875 128.875 L 206.375 147.34375 C 206.214844 147.660156 206.136719 148.019531 206.136719 148.375 C 206.136719 149.757812 207.238281 150.867188 208.617188 150.867188 C 209.996094 150.867188 211.097656 149.757812 211.097656 148.375 C 211.097656 146.988281 209.996094 145.882812 208.617188 145.882812 C 208.261719 145.882812 207.949219 145.960938 207.632812 146.078125 L 190.191406 127.570312 C 190.308594 127.292969 190.386719 126.976562 190.386719 126.660156 C 190.386719 125.277344 189.285156 124.167969 187.90625 124.167969 C 186.527344 124.128906 185.425781 125.277344 185.425781 126.621094 Z M 209.285156 148.375 C 209.285156 148.769531 208.972656 149.046875 208.617188 149.046875 C 208.222656 149.046875 207.949219 148.730469 207.949219 148.375 C 207.949219 147.976562 208.261719 147.703125 208.617188 147.703125 C 208.972656 147.660156 209.285156 147.976562 209.285156 148.375 Z M 188.574219 126.621094 C 188.574219 127.015625 188.261719 127.292969 187.90625 127.292969 C 187.511719 127.292969 187.238281 126.976562 187.238281 126.621094 C 187.238281 126.226562 187.550781 125.949219 187.90625 125.949219 C 188.261719 125.949219 188.574219 126.265625 188.574219 126.621094 Z M 188.574219 126.621094 " fill-opacity="1" fill-rule="nonzero"/><g clip-path="url(#66cb9ee52f)"><path fill="#000000" d="M 143.6875 163.71875 C 143.6875 162.335938 142.585938 161.226562 141.207031 161.226562 C 140.144531 161.226562 139.238281 161.902344 138.882812 162.808594 L 132.820312 162.808594 L 149.398438 145.171875 C 149.710938 145.289062 150.027344 145.367188 150.34375 145.367188 C 151.722656 145.367188 152.824219 144.261719 152.824219 142.875 C 152.824219 141.492188 151.722656 140.386719 150.34375 140.386719 C 148.964844 140.386719 147.863281 141.492188 147.863281 142.875 C 147.863281 143.230469 147.941406 143.589844 148.097656 143.90625 L 130.066406 163.085938 C 129.828125 163.363281 129.75 163.71875 129.90625 164.074219 C 130.066406 164.390625 130.378906 164.628906 130.734375 164.628906 L 138.882812 164.628906 C 139.238281 165.539062 140.144531 166.210938 141.207031 166.210938 C 142.585938 166.210938 143.6875 165.0625 143.6875 163.71875 Z M 149.671875 142.875 C 149.671875 142.480469 149.988281 142.203125 150.34375 142.203125 C 150.738281 142.203125 151.011719 142.519531 151.011719 142.875 C 151.011719 143.273438 150.695312 143.546875 150.34375 143.546875 C 149.988281 143.589844 149.671875 143.273438 149.671875 142.875 Z M 140.5 163.71875 C 140.5 163.324219 140.8125 163.046875 141.167969 163.046875 C 141.5625 163.046875 141.835938 163.363281 141.835938 163.71875 C 141.835938 164.113281 141.523438 164.390625 141.167969 164.390625 C 140.8125 164.390625 140.5 164.074219 140.5 163.71875 Z M 140.5 163.71875 " fill-opacity="1" fill-rule="nonzero"/></g><g clip-path="url(#91f4316047)"><path fill="#000000" d="M 192.710938 137.378906 C 192.710938 135.996094 191.609375 134.886719 190.230469 134.886719 C 188.851562 134.886719 187.75 135.996094 187.75 137.378906 C 187.75 138.761719 188.851562 139.871094 190.230469 139.871094 C 190.582031 139.871094 190.898438 139.792969 191.214844 139.671875 L 206.964844 156.203125 C 207.121094 156.363281 207.359375 156.480469 207.59375 156.480469 L 215.113281 156.480469 L 221.179688 162.890625 L 216.847656 162.890625 C 216.492188 161.980469 215.585938 161.308594 214.523438 161.308594 C 213.144531 161.308594 212.042969 162.414062 212.042969 163.796875 C 212.042969 165.183594 213.144531 166.289062 214.523438 166.289062 C 215.585938 166.289062 216.492188 165.617188 216.847656 164.707031 L 223.304688 164.707031 C 223.660156 164.707031 223.972656 164.511719 224.132812 164.15625 C 224.171875 164.035156 224.210938 163.917969 224.210938 163.796875 C 224.210938 163.5625 224.132812 163.363281 223.972656 163.164062 L 216.21875 154.9375 C 216.058594 154.742188 215.824219 154.664062 215.546875 154.664062 L 208.027344 154.664062 L 192.511719 138.40625 C 192.632812 138.089844 192.710938 137.734375 192.710938 137.378906 Z M 189.519531 137.378906 C 189.519531 136.984375 189.835938 136.707031 190.191406 136.707031 C 190.582031 136.707031 190.859375 137.023438 190.859375 137.378906 C 190.859375 137.773438 190.542969 138.050781 190.191406 138.050781 C 189.835938 138.089844 189.519531 137.773438 189.519531 137.378906 Z M 215.234375 163.796875 C 215.234375 164.195312 214.917969 164.472656 214.5625 164.472656 C 214.167969 164.472656 213.894531 164.15625 213.894531 163.796875 C 213.894531 163.402344 214.207031 163.125 214.5625 163.125 C 214.917969 163.085938 215.234375 163.402344 215.234375 163.796875 Z M 215.234375 163.796875 " fill-opacity="1" fill-rule="nonzero"/></g><path fill="#000000" d="M 200.941406 159.921875 C 202.316406 159.921875 203.421875 158.816406 203.421875 157.429688 C 203.421875 156.046875 202.316406 154.9375 200.941406 154.9375 C 199.875 154.9375 198.972656 155.613281 198.617188 156.519531 L 194.441406 156.519531 C 194.207031 156.519531 193.96875 156.601562 193.8125 156.796875 L 187.355469 163.285156 C 187.199219 163.441406 187.078125 163.679688 187.078125 163.917969 L 187.078125 179.5 L 182.039062 184.5625 C 181.882812 184.722656 181.765625 184.957031 181.765625 185.195312 L 181.765625 189.191406 C 180.859375 189.546875 180.1875 190.457031 180.1875 191.523438 C 180.1875 192.90625 181.292969 194.015625 182.667969 194.015625 C 184.046875 194.015625 185.148438 192.90625 185.148438 191.523438 C 185.148438 190.457031 184.480469 189.546875 183.574219 189.191406 L 183.574219 185.550781 L 188.613281 180.488281 C 188.773438 180.332031 188.890625 180.09375 188.890625 179.855469 L 188.890625 164.273438 L 194.796875 158.339844 L 198.617188 158.339844 C 198.972656 159.289062 199.875 159.921875 200.941406 159.921875 Z M 182.789062 190.851562 C 183.101562 190.890625 183.378906 191.167969 183.378906 191.523438 C 183.378906 191.917969 183.0625 192.195312 182.707031 192.195312 C 182.316406 192.195312 182.039062 191.878906 182.039062 191.523438 C 182.039062 191.167969 182.277344 190.890625 182.628906 190.851562 C 182.667969 190.851562 182.707031 190.851562 182.75 190.851562 C 182.707031 190.851562 182.75 190.851562 182.789062 190.851562 Z M 200.230469 157.429688 C 200.230469 157.035156 200.546875 156.757812 200.898438 156.757812 C 201.292969 156.757812 201.570312 157.074219 201.570312 157.429688 C 201.570312 157.828125 201.253906 158.101562 200.898438 158.101562 C 200.546875 158.144531 200.230469 157.828125 200.230469 157.429688 Z M 200.230469 157.429688 " fill-opacity="1" fill-rule="nonzero"/><path fill="#000000" d="M 193.417969 169.96875 L 193.417969 188.203125 L 188.023438 193.621094 C 187.867188 193.777344 187.75 194.015625 187.75 194.253906 L 187.75 214.265625 C 187.75 214.503906 187.828125 214.742188 188.023438 214.898438 L 192.671875 219.566406 L 192.671875 244.046875 C 191.765625 244.402344 191.097656 245.3125 191.097656 246.382812 C 191.097656 247.765625 192.199219 248.871094 193.578125 248.871094 C 194.953125 248.871094 196.058594 247.765625 196.058594 246.382812 C 196.058594 245.3125 195.386719 244.402344 194.480469 244.046875 L 194.480469 219.171875 C 194.480469 218.933594 194.402344 218.695312 194.207031 218.539062 L 189.558594 213.871094 L 189.558594 194.609375 L 194.953125 189.191406 C 195.113281 189.03125 195.230469 188.796875 195.230469 188.558594 L 195.230469 169.96875 C 196.136719 169.613281 196.804688 168.703125 196.804688 167.636719 C 196.804688 166.25 195.703125 165.144531 194.324219 165.144531 C 192.945312 165.144531 191.84375 166.25 191.84375 167.636719 C 191.84375 168.703125 192.472656 169.613281 193.417969 169.96875 Z M 194.207031 246.378906 C 194.207031 246.777344 193.890625 247.054688 193.535156 247.054688 C 193.144531 247.054688 192.867188 246.738281 192.867188 246.378906 C 192.867188 245.984375 193.183594 245.707031 193.535156 245.707031 C 193.890625 245.667969 194.207031 245.984375 194.207031 246.378906 Z M 194.285156 166.960938 C 194.679688 166.960938 194.953125 167.277344 194.953125 167.636719 C 194.953125 168.03125 194.640625 168.308594 194.285156 168.308594 C 193.890625 168.308594 193.617188 167.992188 193.617188 167.636719 C 193.617188 167.277344 193.929688 166.960938 194.285156 166.960938 Z M 194.285156 166.960938 " fill-opacity="1" fill-rule="nonzero"/><path fill="#000000" d="M 186.054688 151.261719 C 184.675781 151.261719 183.574219 152.367188 183.574219 153.753906 C 183.574219 154.109375 183.652344 154.464844 183.773438 154.742188 L 181.605469 156.917969 C 181.449219 157.074219 181.332031 157.3125 181.332031 157.550781 L 181.332031 172.066406 L 176.449219 176.96875 C 176.289062 177.128906 176.171875 177.363281 176.171875 177.601562 L 176.171875 223.519531 C 176.171875 223.757812 176.25 223.996094 176.449219 224.152344 L 180.425781 228.148438 C 180.269531 228.464844 180.1875 228.859375 180.1875 229.253906 C 180.1875 230.640625 181.292969 231.746094 182.667969 231.746094 C 184.046875 231.746094 185.148438 230.640625 185.148438 229.253906 C 185.148438 227.871094 184.046875 226.761719 182.667969 226.761719 C 182.355469 226.761719 182.039062 226.84375 181.765625 226.921875 L 177.984375 223.125 L 177.984375 177.957031 L 182.867188 173.054688 C 183.023438 172.894531 183.140625 172.65625 183.140625 172.421875 L 183.140625 157.945312 L 185.070312 156.007812 C 185.386719 156.125 185.703125 156.203125 186.054688 156.203125 C 187.433594 156.203125 188.535156 155.097656 188.535156 153.714844 C 188.535156 152.367188 187.433594 151.261719 186.054688 151.261719 Z M 183.378906 229.253906 C 183.378906 229.652344 183.0625 229.925781 182.707031 229.925781 C 182.316406 229.925781 182.039062 229.609375 182.039062 229.253906 C 182.039062 228.859375 182.355469 228.582031 182.707031 228.582031 C 183.0625 228.542969 183.378906 228.859375 183.378906 229.253906 Z M 186.054688 154.425781 C 185.859375 154.425781 185.703125 154.347656 185.582031 154.226562 C 185.464844 154.109375 185.386719 153.949219 185.386719 153.753906 C 185.386719 153.355469 185.703125 153.082031 186.054688 153.082031 C 186.449219 153.082031 186.726562 153.398438 186.726562 153.753906 C 186.726562 154.109375 186.449219 154.425781 186.054688 154.425781 Z M 186.054688 154.425781 " fill-opacity="1" fill-rule="nonzero"/><path fill="#000000" d="M 190.9375 204.972656 C 190.9375 206.355469 192.039062 207.460938 193.417969 207.460938 C 193.773438 207.460938 194.128906 207.382812 194.402344 207.265625 L 197.828125 210.707031 L 197.828125 250.730469 L 194.519531 254.054688 C 194.207031 253.933594 193.890625 253.855469 193.535156 253.855469 C 192.160156 253.855469 191.054688 254.964844 191.054688 256.347656 C 191.054688 257.730469 192.160156 258.839844 193.535156 258.839844 C 194.914062 258.839844 196.019531 257.730469 196.019531 256.347656 C 196.019531 255.992188 195.9375 255.636719 195.78125 255.320312 L 199.363281 251.71875 C 199.523438 251.5625 199.640625 251.324219 199.640625 251.085938 L 199.640625 210.308594 C 199.640625 210.074219 199.5625 209.835938 199.363281 209.675781 L 195.664062 205.960938 C 195.78125 205.644531 195.859375 205.328125 195.859375 204.972656 C 195.859375 203.585938 194.757812 202.480469 193.378906 202.480469 C 192.039062 202.480469 190.9375 203.625 190.9375 204.972656 Z M 193.96875 255.832031 C 193.96875 255.832031 194.007812 255.871094 194.007812 255.871094 C 194.007812 255.871094 194.050781 255.914062 194.050781 255.914062 C 194.128906 256.03125 194.207031 256.1875 194.207031 256.347656 C 194.207031 256.742188 193.890625 257.019531 193.535156 257.019531 C 193.144531 257.019531 192.867188 256.703125 192.867188 256.347656 C 192.867188 255.953125 193.183594 255.675781 193.535156 255.675781 C 193.695312 255.675781 193.851562 255.714844 193.96875 255.832031 Z M 194.089844 204.972656 C 194.089844 205.367188 193.773438 205.644531 193.417969 205.644531 C 193.023438 205.644531 192.75 205.328125 192.75 204.972656 C 192.75 204.613281 193.066406 204.296875 193.417969 204.296875 C 193.773438 204.296875 194.089844 204.613281 194.089844 204.972656 Z M 194.089844 204.972656 " fill-opacity="1" fill-rule="nonzero"/><path fill="#000000" d="M 162.195312 264.929688 C 162.195312 266.3125 163.296875 267.421875 164.675781 267.421875 C 166.054688 267.421875 167.15625 266.3125 167.15625 264.929688 C 167.15625 263.863281 166.445312 262.914062 165.503906 262.597656 L 165.503906 241.082031 C 165.503906 240.566406 165.109375 240.171875 164.597656 240.171875 L 156.132812 240.171875 L 156.132812 208.253906 L 160.460938 203.902344 C 160.621094 203.746094 160.738281 203.507812 160.738281 203.269531 L 160.738281 184.445312 C 161.644531 184.089844 162.3125 183.179688 162.3125 182.109375 C 162.3125 180.726562 161.210938 179.617188 159.832031 179.617188 C 158.453125 179.617188 157.351562 180.726562 157.351562 182.109375 C 157.351562 183.179688 158.019531 184.089844 158.925781 184.445312 L 158.925781 202.875 L 154.59375 207.226562 C 154.4375 207.382812 154.320312 207.621094 154.320312 207.859375 L 154.320312 241.042969 C 154.320312 241.554688 154.714844 241.949219 155.226562 241.949219 L 163.691406 241.949219 L 163.691406 262.636719 C 162.824219 262.992188 162.195312 263.902344 162.195312 264.929688 Z M 165.382812 264.929688 C 165.382812 265.324219 165.070312 265.601562 164.714844 265.601562 C 164.320312 265.601562 164.046875 265.285156 164.046875 264.929688 C 164.046875 264.574219 164.359375 264.257812 164.714844 264.257812 C 165.070312 264.21875 165.382812 264.535156 165.382812 264.929688 Z M 159.125 182.109375 C 159.125 181.714844 159.4375 181.4375 159.792969 181.4375 C 160.1875 181.4375 160.460938 181.753906 160.460938 182.109375 C 160.460938 182.507812 160.148438 182.78125 159.792969 182.78125 C 159.4375 182.78125 159.125 182.507812 159.125 182.109375 Z M 159.125 182.109375 " fill-opacity="1" fill-rule="nonzero"/><path fill="#000000" d="M 157.707031 298.785156 C 157.707031 297.71875 157.035156 296.808594 156.132812 296.453125 L 156.132812 278.734375 C 157.035156 278.378906 157.707031 277.46875 157.707031 276.398438 C 157.707031 275.015625 156.601562 273.90625 155.226562 273.90625 C 153.847656 273.90625 152.746094 275.015625 152.746094 276.398438 C 152.746094 277.46875 153.414062 278.378906 154.320312 278.734375 L 154.320312 296.492188 C 153.414062 296.847656 152.746094 297.757812 152.746094 298.824219 C 152.746094 300.210938 153.847656 301.316406 155.226562 301.316406 C 156.601562 301.277344 157.707031 300.167969 157.707031 298.785156 Z M 154.515625 276.4375 C 154.515625 276.042969 154.832031 275.765625 155.1875 275.765625 C 155.578125 275.765625 155.855469 276.082031 155.855469 276.4375 C 155.855469 276.835938 155.539062 277.113281 155.1875 277.113281 C 154.832031 277.113281 154.515625 276.796875 154.515625 276.4375 Z M 154.515625 298.785156 C 154.515625 298.390625 154.832031 298.113281 155.1875 298.113281 C 155.578125 298.113281 155.855469 298.429688 155.855469 298.785156 C 155.855469 299.179688 155.539062 299.457031 155.1875 299.457031 C 154.832031 299.496094 154.515625 299.179688 154.515625 298.785156 Z M 154.515625 298.785156 " fill-opacity="1" fill-rule="nonzero"/><path fill="#000000" d="M 158.414062 287.632812 C 158.414062 289.015625 159.515625 290.125 160.894531 290.125 C 162.273438 290.125 163.375 289.015625 163.375 287.632812 C 163.375 286.5625 162.707031 285.65625 161.800781 285.296875 L 161.800781 270.070312 C 161.800781 269.558594 161.40625 269.160156 160.894531 269.160156 L 156.132812 269.160156 L 156.132812 252.789062 L 158.257812 250.652344 C 158.570312 250.769531 158.886719 250.851562 159.242188 250.851562 C 160.621094 250.851562 161.722656 249.742188 161.722656 248.359375 C 161.722656 246.972656 160.621094 245.867188 159.242188 245.867188 C 157.863281 245.867188 156.761719 246.972656 156.761719 248.359375 C 156.761719 248.714844 156.839844 249.070312 156.996094 249.386719 L 154.59375 251.800781 C 154.4375 251.957031 154.320312 252.195312 154.320312 252.433594 L 154.320312 270.070312 C 154.320312 270.585938 154.714844 270.980469 155.226562 270.980469 L 159.988281 270.980469 L 159.988281 285.296875 C 159.042969 285.65625 158.414062 286.5625 158.414062 287.632812 Z M 161.566406 287.632812 C 161.566406 288.027344 161.25 288.304688 160.894531 288.304688 C 160.5 288.304688 160.226562 287.988281 160.226562 287.632812 C 160.226562 287.277344 160.539062 286.960938 160.894531 286.960938 C 161.25 286.921875 161.566406 287.238281 161.566406 287.632812 Z M 158.53125 248.359375 C 158.53125 247.960938 158.847656 247.6875 159.203125 247.6875 C 159.597656 247.6875 159.871094 248.003906 159.871094 248.359375 C 159.871094 248.714844 159.554688 249.03125 159.203125 249.03125 C 158.847656 249.03125 158.53125 248.714844 158.53125 248.359375 Z M 158.53125 248.359375 " fill-opacity="1" fill-rule="nonzero"/><path fill="#000000" d="M 157.707031 199.234375 C 157.707031 198.167969 157.035156 197.257812 156.132812 196.902344 L 156.132812 163.757812 C 156.132812 163.246094 155.738281 162.847656 155.226562 162.847656 L 151.445312 162.847656 C 151.089844 161.941406 150.183594 161.265625 149.160156 161.265625 C 147.785156 161.265625 146.679688 162.375 146.679688 163.757812 C 146.679688 165.144531 147.785156 166.25 149.160156 166.25 C 150.226562 166.25 151.128906 165.578125 151.484375 164.628906 L 154.359375 164.628906 L 154.359375 196.863281 C 153.453125 197.21875 152.785156 198.128906 152.785156 199.195312 C 152.785156 200.582031 153.886719 201.6875 155.265625 201.6875 C 156.601562 201.726562 157.707031 200.621094 157.707031 199.234375 Z M 148.453125 163.796875 C 148.453125 163.402344 148.769531 163.125 149.121094 163.125 C 149.476562 163.125 149.753906 163.363281 149.792969 163.679688 C 149.792969 163.71875 149.792969 163.757812 149.792969 163.757812 C 149.792969 163.796875 149.792969 163.839844 149.792969 163.878906 C 149.753906 164.195312 149.476562 164.472656 149.121094 164.472656 C 148.726562 164.511719 148.453125 164.195312 148.453125 163.796875 Z M 154.515625 199.234375 C 154.515625 198.839844 154.832031 198.5625 155.1875 198.5625 C 155.578125 198.5625 155.855469 198.878906 155.855469 199.234375 C 155.855469 199.59375 155.539062 199.910156 155.1875 199.910156 C 154.832031 199.949219 154.515625 199.632812 154.515625 199.234375 Z M 154.515625 199.234375 " fill-opacity="1" fill-rule="nonzero"/><path fill="#000000" d="M 183.179688 263.980469 C 183.179688 262.597656 182.078125 261.488281 180.699219 261.488281 C 179.324219 261.488281 178.21875 262.597656 178.21875 263.980469 C 178.21875 265.046875 178.890625 265.957031 179.796875 266.3125 L 179.796875 277.191406 L 176.960938 277.191406 C 176.449219 277.191406 176.054688 277.585938 176.054688 278.101562 L 176.054688 296.492188 C 175.148438 296.847656 174.480469 297.757812 174.480469 298.824219 C 174.480469 300.210938 175.582031 301.316406 176.960938 301.316406 C 178.339844 301.316406 179.441406 300.210938 179.441406 298.824219 C 179.441406 297.757812 178.769531 296.847656 177.867188 296.492188 L 177.867188 278.96875 L 180.699219 278.96875 C 181.210938 278.96875 181.605469 278.574219 181.605469 278.0625 L 181.605469 266.3125 C 182.550781 265.957031 183.179688 265.046875 183.179688 263.980469 Z M 180.03125 263.980469 C 180.03125 263.585938 180.347656 263.308594 180.699219 263.308594 C 181.09375 263.308594 181.371094 263.625 181.371094 263.980469 C 181.371094 264.375 181.054688 264.652344 180.699219 264.652344 C 180.347656 264.691406 180.03125 264.375 180.03125 263.980469 Z M 177.667969 298.785156 C 177.667969 299.179688 177.355469 299.457031 177 299.457031 C 176.605469 299.457031 176.332031 299.140625 176.332031 298.785156 C 176.332031 298.390625 176.644531 298.113281 177 298.113281 C 177.355469 298.113281 177.667969 298.429688 177.667969 298.785156 Z M 177.667969 298.785156 " fill-opacity="1" fill-rule="nonzero"/><path fill="#000000" d="M 187.75 275.371094 L 187.75 286.644531 C 186.84375 287 186.175781 287.910156 186.175781 288.976562 C 186.175781 290.359375 187.277344 291.46875 188.65625 291.46875 C 190.03125 291.46875 191.136719 290.359375 191.136719 288.976562 C 191.136719 287.910156 190.464844 287 189.558594 286.644531 L 189.558594 275.371094 C 190.464844 275.015625 191.136719 274.105469 191.136719 273.039062 C 191.136719 271.652344 190.03125 270.546875 188.65625 270.546875 C 187.277344 270.546875 186.175781 271.652344 186.175781 273.039062 C 186.175781 274.105469 186.804688 275.015625 187.75 275.371094 Z M 189.324219 288.976562 C 189.324219 289.371094 189.007812 289.648438 188.65625 289.648438 C 188.261719 289.648438 187.984375 289.332031 187.984375 288.976562 C 187.984375 288.582031 188.300781 288.304688 188.65625 288.304688 C 189.007812 288.265625 189.324219 288.582031 189.324219 288.976562 Z M 188.65625 272.367188 C 189.046875 272.367188 189.324219 272.683594 189.324219 273.039062 C 189.324219 273.394531 189.007812 273.710938 188.65625 273.710938 C 188.261719 273.710938 187.984375 273.394531 187.984375 273.039062 C 187.984375 272.683594 188.261719 272.367188 188.65625 272.367188 Z M 188.65625 272.367188 " fill-opacity="1" fill-rule="nonzero"/><path fill="#000000" d="M 204.601562 164.707031 C 204.957031 165.617188 205.863281 166.289062 206.925781 166.289062 C 208.300781 166.289062 209.40625 165.183594 209.40625 163.796875 C 209.40625 162.414062 208.300781 161.308594 206.925781 161.308594 C 205.863281 161.308594 204.957031 161.980469 204.601562 162.890625 L 198.695312 162.890625 C 198.183594 162.890625 197.789062 163.285156 197.789062 163.796875 L 197.789062 196.941406 C 196.882812 197.296875 196.214844 198.207031 196.214844 199.277344 C 196.214844 200.660156 197.316406 201.765625 198.695312 201.765625 C 200.074219 201.765625 201.175781 200.660156 201.175781 199.277344 C 201.175781 198.207031 200.507812 197.296875 199.601562 196.941406 L 199.601562 164.707031 Z M 199.402344 199.234375 C 199.402344 199.632812 199.089844 199.910156 198.734375 199.910156 C 198.339844 199.910156 198.066406 199.59375 198.066406 199.234375 C 198.066406 198.878906 198.378906 198.5625 198.734375 198.5625 C 199.089844 198.5625 199.402344 198.878906 199.402344 199.234375 Z M 206.253906 163.796875 C 206.253906 163.402344 206.570312 163.125 206.925781 163.125 C 207.316406 163.125 207.59375 163.441406 207.59375 163.796875 C 207.59375 164.195312 207.277344 164.472656 206.925781 164.472656 C 206.53125 164.472656 206.253906 164.15625 206.253906 163.796875 Z M 206.253906 163.796875 " fill-opacity="1" fill-rule="nonzero"/><g clip-path="url(#386577a0b9)"><path fill="#000000" d="M 176.332031 113.925781 L 173.535156 116.929688 C 173.21875 116.8125 172.90625 116.734375 172.550781 116.734375 C 171.171875 116.734375 170.070312 117.839844 170.070312 119.226562 C 170.070312 120.609375 171.171875 121.714844 172.550781 121.714844 C 173.929688 121.714844 175.03125 120.609375 175.03125 119.226562 C 175.03125 118.867188 174.953125 118.511719 174.792969 118.195312 L 176.960938 115.863281 L 182 121.359375 L 182 141.175781 C 182 141.414062 182.078125 141.648438 182.277344 141.808594 L 190.386719 150.035156 C 190.269531 150.351562 190.191406 150.667969 190.191406 151.023438 C 190.191406 152.40625 191.292969 153.515625 192.671875 153.515625 C 194.050781 153.515625 195.152344 152.40625 195.152344 151.023438 C 195.152344 149.640625 194.050781 148.53125 192.671875 148.53125 C 192.316406 148.53125 191.960938 148.609375 191.6875 148.730469 L 183.8125 140.820312 L 183.8125 121.003906 C 183.8125 120.765625 183.734375 120.570312 183.574219 120.410156 L 177.628906 113.925781 C 177.472656 113.726562 177.234375 113.648438 176.960938 113.648438 C 176.722656 113.648438 176.488281 113.765625 176.332031 113.925781 Z M 173.257812 119.226562 C 173.257812 119.621094 172.945312 119.898438 172.589844 119.898438 C 172.195312 119.898438 171.921875 119.582031 171.921875 119.226562 C 171.921875 118.828125 172.234375 118.550781 172.589844 118.550781 C 172.945312 118.550781 173.257812 118.867188 173.257812 119.226562 Z M 193.339844 151.023438 C 193.339844 151.417969 193.023438 151.695312 192.671875 151.695312 C 192.277344 151.695312 192 151.378906 192 151.023438 C 192 150.628906 192.316406 150.351562 192.671875 150.351562 C 193.023438 150.351562 193.339844 150.667969 193.339844 151.023438 Z M 193.339844 151.023438 " fill-opacity="1" fill-rule="nonzero"/></g><path fill="#000000" d="M 149.042969 159.289062 L 158.925781 159.289062 L 158.925781 171.3125 C 158.019531 171.667969 157.351562 172.578125 157.351562 173.648438 C 157.351562 175.03125 158.453125 176.136719 159.832031 176.136719 C 161.210938 176.136719 162.3125 175.03125 162.3125 173.648438 C 162.3125 172.578125 161.644531 171.667969 160.738281 171.3125 L 160.738281 158.378906 C 160.738281 157.867188 160.34375 157.46875 159.832031 157.46875 L 149.398438 157.46875 L 148.136719 156.203125 C 148.257812 155.886719 148.335938 155.570312 148.335938 155.214844 C 148.335938 153.832031 147.230469 152.722656 145.855469 152.722656 C 144.476562 152.722656 143.375 153.832031 143.375 155.214844 C 143.375 156.601562 144.476562 157.707031 145.855469 157.707031 C 146.207031 157.707031 146.5625 157.628906 146.839844 157.511719 L 148.335938 159.011719 C 148.570312 159.171875 148.808594 159.289062 149.042969 159.289062 Z M 160.5 173.605469 C 160.5 174.003906 160.1875 174.28125 159.832031 174.28125 C 159.4375 174.28125 159.164062 173.964844 159.164062 173.605469 C 159.164062 173.210938 159.476562 172.933594 159.832031 172.933594 C 160.1875 172.933594 160.5 173.25 160.5 173.605469 Z M 145.222656 155.214844 C 145.222656 154.820312 145.539062 154.542969 145.894531 154.542969 C 146.289062 154.542969 146.5625 154.859375 146.5625 155.214844 C 146.5625 155.613281 146.246094 155.886719 145.894531 155.886719 C 145.5 155.886719 145.222656 155.613281 145.222656 155.214844 Z M 145.222656 155.214844 " fill-opacity="1" fill-rule="nonzero"/><g clip-path="url(#d845217e23)"><path fill="#000000" d="M 175.898438 262.636719 C 176.054688 262.476562 176.171875 262.242188 176.171875 262.003906 L 176.171875 242.941406 C 176.171875 242.703125 176.09375 242.464844 175.898438 242.308594 L 162.46875 228.820312 L 162.46875 226.089844 C 163.375 225.734375 164.046875 224.824219 164.046875 223.757812 C 164.046875 222.375 162.941406 221.265625 161.566406 221.265625 C 160.1875 221.265625 159.085938 222.375 159.085938 223.757812 C 159.085938 224.824219 159.753906 225.734375 160.660156 226.089844 L 160.660156 229.214844 C 160.660156 229.453125 160.738281 229.691406 160.933594 229.847656 L 174.363281 243.335938 L 174.363281 261.648438 L 169.242188 266.671875 C 169.085938 266.828125 168.96875 267.066406 168.96875 267.304688 L 168.96875 311.324219 C 168.0625 311.679688 167.390625 312.589844 167.390625 313.65625 C 167.390625 315.039062 168.496094 316.148438 169.871094 316.148438 C 171.25 316.148438 172.351562 315.039062 172.351562 313.65625 C 172.351562 312.589844 171.683594 311.679688 170.777344 311.324219 L 170.777344 267.660156 Z M 160.894531 223.757812 C 160.894531 223.363281 161.210938 223.085938 161.566406 223.085938 C 161.957031 223.085938 162.234375 223.402344 162.234375 223.757812 C 162.234375 224.152344 161.917969 224.429688 161.566406 224.429688 C 161.210938 224.429688 160.894531 224.113281 160.894531 223.757812 Z M 170.582031 313.65625 C 170.582031 314.050781 170.265625 314.328125 169.914062 314.328125 C 169.519531 314.328125 169.242188 314.011719 169.242188 313.65625 C 169.242188 313.300781 169.558594 312.984375 169.914062 312.984375 C 170.265625 312.984375 170.582031 313.261719 170.582031 313.65625 Z M 170.582031 313.65625 " fill-opacity="1" fill-rule="nonzero"/></g><path fill="#000000" d="M 160.933594 209.203125 C 160.777344 209.359375 160.660156 209.597656 160.660156 209.835938 L 160.660156 213.832031 C 159.753906 214.1875 159.085938 215.097656 159.085938 216.164062 C 159.085938 217.546875 160.1875 218.65625 161.566406 218.65625 C 162.941406 218.65625 164.046875 217.546875 164.046875 216.164062 C 164.046875 215.097656 163.375 214.1875 162.46875 213.832031 L 162.46875 210.191406 L 167.863281 204.773438 C 168.023438 204.613281 168.140625 204.378906 168.140625 204.140625 L 168.140625 158.339844 C 168.140625 158.101562 168.0625 157.867188 167.863281 157.707031 L 159.792969 149.640625 C 159.636719 149.480469 159.398438 149.363281 159.164062 149.363281 L 154.949219 149.363281 C 154.59375 148.414062 153.691406 147.78125 152.625 147.78125 C 151.25 147.78125 150.144531 148.886719 150.144531 150.273438 C 150.144531 151.65625 151.25 152.765625 152.625 152.765625 C 153.691406 152.765625 154.554688 152.089844 154.949219 151.183594 L 158.769531 151.183594 L 166.328125 158.734375 L 166.328125 203.785156 Z M 162.273438 216.125 C 162.273438 216.519531 161.957031 216.796875 161.605469 216.796875 C 161.210938 216.796875 160.933594 216.480469 160.933594 216.125 C 160.933594 215.730469 161.25 215.453125 161.605469 215.453125 C 161.957031 215.453125 162.273438 215.769531 162.273438 216.125 Z M 151.957031 150.234375 C 151.957031 149.835938 152.273438 149.558594 152.625 149.558594 C 152.980469 149.558594 153.257812 149.835938 153.296875 150.152344 C 153.296875 150.191406 153.296875 150.191406 153.296875 150.234375 C 153.296875 150.273438 153.296875 150.273438 153.296875 150.3125 C 153.257812 150.667969 152.980469 150.90625 152.625 150.90625 C 152.234375 150.945312 151.957031 150.628906 151.957031 150.234375 Z M 151.957031 150.234375 " fill-opacity="1" fill-rule="nonzero"/><path fill="#000000" d="M 176.054688 134.808594 L 176.054688 165.460938 C 175.148438 165.816406 174.480469 166.726562 174.480469 167.792969 C 174.480469 169.175781 175.582031 170.285156 176.960938 170.285156 C 178.339844 170.285156 179.441406 169.175781 179.441406 167.792969 C 179.441406 166.726562 178.769531 165.816406 177.867188 165.460938 L 177.867188 134.453125 C 177.867188 134.214844 177.785156 133.976562 177.589844 133.820312 L 169.871094 126.066406 C 169.992188 125.75 170.070312 125.433594 170.070312 125.078125 C 170.070312 123.695312 168.96875 122.585938 167.589844 122.585938 C 166.210938 122.585938 165.109375 123.695312 165.109375 125.078125 C 165.109375 126.460938 166.210938 127.570312 167.589844 127.570312 C 167.945312 127.570312 168.296875 127.492188 168.613281 127.332031 Z M 177.628906 167.792969 C 177.628906 168.1875 177.316406 168.464844 176.960938 168.464844 C 176.566406 168.464844 176.289062 168.148438 176.289062 167.792969 C 176.289062 167.398438 176.605469 167.121094 176.960938 167.121094 C 177.316406 167.082031 177.628906 167.398438 177.628906 167.792969 Z M 166.917969 125.078125 C 166.917969 124.683594 167.234375 124.40625 167.589844 124.40625 C 167.984375 124.40625 168.257812 124.722656 168.257812 125.078125 C 168.257812 125.238281 168.21875 125.394531 168.101562 125.511719 C 168.101562 125.511719 168.101562 125.511719 168.0625 125.554688 C 168.0625 125.554688 168.023438 125.59375 168.023438 125.59375 C 167.902344 125.710938 167.746094 125.75 167.550781 125.75 C 167.234375 125.789062 166.917969 125.472656 166.917969 125.078125 Z M 166.917969 125.078125 " fill-opacity="1" fill-rule="nonzero"/><path fill="#000000" d="M 162.863281 148.136719 L 170.9375 156.246094 L 170.9375 227.949219 C 170.9375 228.1875 171.015625 228.425781 171.210938 228.582031 L 179.835938 237.246094 L 179.835938 252.707031 C 178.929688 253.066406 178.257812 253.972656 178.257812 255.042969 C 178.257812 256.425781 179.363281 257.535156 180.738281 257.535156 C 182.117188 257.535156 183.222656 256.425781 183.222656 255.042969 C 183.222656 253.972656 182.550781 253.066406 181.644531 252.707031 L 181.644531 236.886719 C 181.644531 236.652344 181.566406 236.414062 181.371094 236.253906 L 172.746094 227.554688 L 172.746094 155.886719 C 172.746094 155.652344 172.667969 155.414062 172.472656 155.253906 L 164.398438 147.148438 L 164.398438 139.792969 C 165.304688 139.433594 165.976562 138.527344 165.976562 137.457031 C 165.976562 136.074219 164.871094 134.964844 163.492188 134.964844 C 162.117188 134.964844 161.011719 136.074219 161.011719 137.457031 C 161.011719 138.527344 161.683594 139.433594 162.589844 139.792969 L 162.589844 147.503906 C 162.589844 147.742188 162.667969 147.976562 162.863281 148.136719 Z M 181.410156 255.003906 C 181.410156 255.398438 181.09375 255.675781 180.738281 255.675781 C 180.347656 255.675781 180.070312 255.359375 180.070312 255.003906 C 180.070312 254.605469 180.386719 254.332031 180.738281 254.332031 C 181.09375 254.332031 181.410156 254.648438 181.410156 255.003906 Z M 162.785156 137.457031 C 162.785156 137.0625 163.101562 136.785156 163.453125 136.785156 C 163.847656 136.785156 164.125 137.101562 164.125 137.457031 C 164.125 137.851562 163.808594 138.128906 163.453125 138.128906 C 163.101562 138.128906 162.785156 137.851562 162.785156 137.457031 Z M 162.785156 137.457031 " fill-opacity="1" fill-rule="nonzero"/><path fill="#000000" d="M 188.773438 220.671875 L 183.613281 220.671875 L 183.613281 202.003906 C 184.519531 201.648438 185.191406 200.738281 185.191406 199.671875 C 185.191406 198.285156 184.085938 197.179688 182.707031 197.179688 C 181.332031 197.179688 180.226562 198.285156 180.226562 199.671875 C 180.226562 200.738281 180.898438 201.648438 181.804688 202.003906 L 181.804688 221.582031 C 181.804688 222.097656 182.195312 222.492188 182.707031 222.492188 L 187.867188 222.492188 L 187.867188 264.140625 C 187.867188 264.652344 188.261719 265.046875 188.773438 265.046875 L 197.828125 265.046875 L 197.828125 303.492188 C 196.921875 303.847656 196.253906 304.757812 196.253906 305.824219 C 196.253906 307.210938 197.355469 308.316406 198.734375 308.316406 C 200.113281 308.316406 201.214844 307.210938 201.214844 305.824219 C 201.214844 304.757812 200.546875 303.847656 199.640625 303.492188 L 199.640625 264.140625 C 199.640625 263.625 199.246094 263.230469 198.734375 263.230469 L 189.679688 263.230469 L 189.679688 221.582031 C 189.640625 221.109375 189.246094 220.671875 188.773438 220.671875 Z M 182 199.671875 C 182 199.277344 182.316406 199 182.667969 199 C 183.0625 199 183.339844 199.316406 183.339844 199.671875 C 183.339844 200.066406 183.023438 200.34375 182.667969 200.34375 C 182.316406 200.382812 182 200.066406 182 199.671875 Z M 199.402344 305.785156 C 199.402344 306.179688 199.089844 306.457031 198.734375 306.457031 C 198.339844 306.457031 198.066406 306.140625 198.066406 305.785156 C 198.066406 305.390625 198.378906 305.113281 198.734375 305.113281 C 199.089844 305.113281 199.402344 305.429688 199.402344 305.785156 Z M 199.402344 305.785156 " fill-opacity="1" fill-rule="nonzero"/><g fill="#000000" fill-opacity="1"><g transform="translate(71.507812, 330.995369)"><g><path d="M 2.65625 -24.765625 L 10.625 -24.765625 L 10.625 -6.34375 L 23.328125 -6.34375 L 23.328125 0 L 2.65625 0 Z M 2.65625 -24.765625 "/></g></g></g><g fill="#000000" fill-opacity="1"><g transform="translate(95.511987, 330.995369)"><g><path d="M 11.984375 -19.4375 C 15.316406 -19.4375 17.9375 -18.585938 19.84375 -16.890625 C 21.757812 -15.203125 22.71875 -12.738281 22.71875 -9.5 C 22.71875 -6.257812 21.757812 -3.789062 19.84375 -2.09375 C 17.9375 -0.40625 15.316406 0.4375 11.984375 0.4375 C 8.648438 0.4375 6.035156 -0.398438 4.140625 -2.078125 C 2.242188 -3.765625 1.296875 -6.238281 1.296875 -9.5 C 1.296875 -12.769531 2.242188 -15.242188 4.140625 -16.921875 C 6.035156 -18.597656 8.648438 -19.4375 11.984375 -19.4375 Z M 11.984375 -14.578125 C 9.628906 -14.578125 8.453125 -13.222656 8.453125 -10.515625 L 8.453125 -8.453125 C 8.453125 -5.765625 9.628906 -4.421875 11.984375 -4.421875 C 14.359375 -4.421875 15.546875 -5.765625 15.546875 -8.453125 L 15.546875 -10.515625 C 15.546875 -13.222656 14.359375 -14.578125 11.984375 -14.578125 Z M 11.984375 -14.578125 "/></g></g></g><g fill="#000000" fill-opacity="1"><g transform="translate(119.516163, 330.995369)"><g><path d="M 23.546875 -22.578125 C 23.546875 -21.109375 23.175781 -19.976562 22.4375 -19.1875 C 21.707031 -18.394531 20.613281 -17.804688 19.15625 -17.421875 C 19.851562 -16.890625 20.398438 -16.269531 20.796875 -15.5625 C 21.191406 -14.863281 21.390625 -14.113281 21.390625 -13.3125 C 21.390625 -11.300781 20.625 -9.78125 19.09375 -8.75 C 17.570312 -7.71875 15.671875 -7.203125 13.390625 -7.203125 L 10.65625 -7.203125 C 9.144531 -7.203125 8.390625 -6.851562 8.390625 -6.15625 C 8.390625 -5.820312 8.554688 -5.550781 8.890625 -5.34375 C 9.222656 -5.144531 9.8125 -5.046875 10.65625 -5.046875 L 17.140625 -5.046875 C 19.242188 -5.046875 20.835938 -4.492188 21.921875 -3.390625 C 23.003906 -2.285156 23.546875 -0.804688 23.546875 1.046875 C 23.546875 2.410156 23.1875 3.582031 22.46875 4.5625 C 21.75 5.550781 20.773438 6.296875 19.546875 6.796875 C 18.328125 7.304688 16.992188 7.5625 15.546875 7.5625 L 4.96875 7.5625 C 4.101562 7.5625 3.300781 7.359375 2.5625 6.953125 C 1.832031 6.546875 1.253906 5.988281 0.828125 5.28125 C 0.398438 4.570312 0.1875 3.785156 0.1875 2.921875 C 0.1875 1.984375 0.472656 1.132812 1.046875 0.375 C 1.617188 -0.375 2.335938 -0.941406 3.203125 -1.328125 C 2.628906 -1.734375 2.171875 -2.222656 1.828125 -2.796875 C 1.492188 -3.378906 1.328125 -4.007812 1.328125 -4.6875 C 1.328125 -5.613281 1.675781 -6.457031 2.375 -7.21875 C 3.070312 -7.976562 3.9375 -8.488281 4.96875 -8.75 C 4.03125 -9.34375 3.285156 -10.03125 2.734375 -10.8125 C 2.179688 -11.59375 1.90625 -12.414062 1.90625 -13.28125 C 1.90625 -15.488281 2.796875 -17.066406 4.578125 -18.015625 C 6.367188 -18.960938 8.742188 -19.4375 11.703125 -19.4375 C 12.992188 -19.4375 14.035156 -19.363281 14.828125 -19.21875 C 16.003906 -19.96875 16.765625 -20.644531 17.109375 -21.25 C 17.460938 -21.863281 17.640625 -22.304688 17.640625 -22.578125 Z M 11.625 -15.703125 C 10.832031 -15.703125 10.179688 -15.492188 9.671875 -15.078125 C 9.171875 -14.671875 8.921875 -14.082031 8.921875 -13.3125 C 8.921875 -12.519531 9.15625 -11.925781 9.625 -11.53125 C 10.09375 -11.132812 10.757812 -10.9375 11.625 -10.9375 C 12.488281 -10.9375 13.164062 -11.132812 13.65625 -11.53125 C 14.15625 -11.925781 14.40625 -12.519531 14.40625 -13.3125 C 14.40625 -14.113281 14.15625 -14.710938 13.65625 -15.109375 C 13.164062 -15.503906 12.488281 -15.703125 11.625 -15.703125 Z M 8.859375 0 C 8.304688 0 7.851562 0.148438 7.5 0.453125 C 7.15625 0.753906 6.984375 1.179688 6.984375 1.734375 C 6.984375 2.285156 7.160156 2.726562 7.515625 3.0625 C 7.878906 3.394531 8.328125 3.5625 8.859375 3.5625 L 14.46875 3.5625 C 15 3.5625 15.445312 3.398438 15.8125 3.078125 C 16.1875 2.753906 16.375 2.316406 16.375 1.765625 C 16.375 1.210938 16.191406 0.78125 15.828125 0.46875 C 15.472656 0.15625 15.019531 0 14.46875 0 Z M 8.859375 0 "/></g></g></g><g fill="#000000" fill-opacity="1"><g transform="translate(143.520338, 330.995369)"><g><path d="M 2.40625 -21.234375 L 2.40625 -26.09375 L 9.578125 -26.09375 L 9.578125 -21.234375 Z M 2.40625 0 L 2.40625 -19.015625 L 9.578125 -19.015625 L 9.578125 0 Z M 2.40625 0 "/></g></g></g><g fill="#000000" fill-opacity="1"><g transform="translate(155.50443, 330.995369)"><g><path d="M 11.984375 -19.4375 C 15.109375 -19.4375 17.632812 -18.769531 19.5625 -17.4375 C 21.5 -16.101562 22.46875 -14.070312 22.46875 -11.34375 L 15.515625 -11.34375 C 15.515625 -13.5 14.335938 -14.578125 11.984375 -14.578125 C 9.628906 -14.578125 8.453125 -13.222656 8.453125 -10.515625 L 8.453125 -8.453125 C 8.453125 -5.765625 9.675781 -4.421875 12.125 -4.421875 C 14.570312 -4.421875 15.796875 -5.523438 15.796875 -7.734375 L 22.46875 -7.734375 C 22.46875 -4.972656 21.5 -2.921875 19.5625 -1.578125 C 17.632812 -0.234375 15.109375 0.4375 11.984375 0.4375 C 8.648438 0.4375 6.035156 -0.398438 4.140625 -2.078125 C 2.242188 -3.765625 1.296875 -6.238281 1.296875 -9.5 C 1.296875 -12.769531 2.242188 -15.242188 4.140625 -16.921875 C 6.035156 -18.597656 8.648438 -19.4375 11.984375 -19.4375 Z M 11.984375 -19.4375 "/></g></g></g><g fill="#000000" fill-opacity="1"><g transform="translate(179.508605, 330.995369)"><g><path d="M 11.5625 -19.4375 C 14.457031 -19.4375 16.816406 -18.953125 18.640625 -17.984375 C 20.472656 -17.015625 21.390625 -15.4375 21.390625 -13.25 L 21.390625 -5.828125 C 21.390625 -5.421875 21.484375 -5.082031 21.671875 -4.8125 C 21.859375 -4.550781 22.144531 -4.421875 22.53125 -4.421875 L 23.828125 -4.421875 L 23.828125 -0.28125 C 23.753906 -0.238281 23.566406 -0.160156 23.265625 -0.046875 C 22.972656 0.0546875 22.550781 0.160156 22 0.265625 C 21.445312 0.378906 20.8125 0.4375 20.09375 0.4375 C 18.695312 0.4375 17.546875 0.226562 16.640625 -0.1875 C 15.742188 -0.613281 15.128906 -1.195312 14.796875 -1.9375 C 13.878906 -1.21875 12.859375 -0.640625 11.734375 -0.203125 C 10.609375 0.222656 9.289062 0.4375 7.78125 0.4375 C 3.3125 0.4375 1.078125 -1.335938 1.078125 -4.890625 C 1.078125 -6.742188 1.570312 -8.15625 2.5625 -9.125 C 3.5625 -10.09375 5 -10.753906 6.875 -11.109375 C 8.75 -11.472656 11.195312 -11.65625 14.21875 -11.65625 L 14.21875 -12.59375 C 14.21875 -13.34375 13.957031 -13.910156 13.4375 -14.296875 C 12.925781 -14.679688 12.265625 -14.875 11.453125 -14.875 C 10.703125 -14.875 10.054688 -14.738281 9.515625 -14.46875 C 8.984375 -14.207031 8.71875 -13.789062 8.71875 -13.21875 L 8.71875 -13.0625 L 1.65625 -13.0625 C 1.632812 -13.1875 1.625 -13.359375 1.625 -13.578125 C 1.625 -15.367188 2.476562 -16.789062 4.1875 -17.84375 C 5.90625 -18.90625 8.363281 -19.4375 11.5625 -19.4375 Z M 14.21875 -8.28125 C 12.175781 -8.28125 10.671875 -8.054688 9.703125 -7.609375 C 8.734375 -7.171875 8.25 -6.578125 8.25 -5.828125 C 8.25 -4.628906 9.0625 -4.03125 10.6875 -4.03125 C 11.625 -4.03125 12.445312 -4.28125 13.15625 -4.78125 C 13.863281 -5.289062 14.21875 -5.914062 14.21875 -6.65625 Z M 14.21875 -8.28125 "/></g></g></g><g fill="#000000" fill-opacity="1"><g transform="translate(203.51278, 330.995369)"><g><path d="M 19.375 0 L 19.375 -9.390625 L 10.625 -9.390625 L 10.625 0 L 2.65625 0 L 2.65625 -24.765625 L 10.625 -24.765625 L 10.625 -15.734375 L 19.375 -15.734375 L 19.375 -24.765625 L 27.328125 -24.765625 L 27.328125 0 Z M 19.375 0 "/></g></g></g><g fill="#000000" fill-opacity="1"><g transform="translate(233.491011, 330.995369)"><g><path d="M 11.5625 -19.4375 C 14.457031 -19.4375 16.816406 -18.953125 18.640625 -17.984375 C 20.472656 -17.015625 21.390625 -15.4375 21.390625 -13.25 L 21.390625 -5.828125 C 21.390625 -5.421875 21.484375 -5.082031 21.671875 -4.8125 C 21.859375 -4.550781 22.144531 -4.421875 22.53125 -4.421875 L 23.828125 -4.421875 L 23.828125 -0.28125 C 23.753906 -0.238281 23.566406 -0.160156 23.265625 -0.046875 C 22.972656 0.0546875 22.550781 0.160156 22 0.265625 C 21.445312 0.378906 20.8125 0.4375 20.09375 0.4375 C 18.695312 0.4375 17.546875 0.226562 16.640625 -0.1875 C 15.742188 -0.613281 15.128906 -1.195312 14.796875 -1.9375 C 13.878906 -1.21875 12.859375 -0.640625 11.734375 -0.203125 C 10.609375 0.222656 9.289062 0.4375 7.78125 0.4375 C 3.3125 0.4375 1.078125 -1.335938 1.078125 -4.890625 C 1.078125 -6.742188 1.570312 -8.15625 2.5625 -9.125 C 3.5625 -10.09375 5 -10.753906 6.875 -11.109375 C 8.75 -11.472656 11.195312 -11.65625 14.21875 -11.65625 L 14.21875 -12.59375 C 14.21875 -13.34375 13.957031 -13.910156 13.4375 -14.296875 C 12.925781 -14.679688 12.265625 -14.875 11.453125 -14.875 C 10.703125 -14.875 10.054688 -14.738281 9.515625 -14.46875 C 8.984375 -14.207031 8.71875 -13.789062 8.71875 -13.21875 L 8.71875 -13.0625 L 1.65625 -13.0625 C 1.632812 -13.1875 1.625 -13.359375 1.625 -13.578125 C 1.625 -15.367188 2.476562 -16.789062 4.1875 -17.84375 C 5.90625 -18.90625 8.363281 -19.4375 11.5625 -19.4375 Z M 14.21875 -8.28125 C 12.175781 -8.28125 10.671875 -8.054688 9.703125 -7.609375 C 8.734375 -7.171875 8.25 -6.578125 8.25 -5.828125 C 8.25 -4.628906 9.0625 -4.03125 10.6875 -4.03125 C 11.625 -4.03125 12.445312 -4.28125 13.15625 -4.78125 C 13.863281 -5.289062 14.21875 -5.914062 14.21875 -6.65625 Z M 14.21875 -8.28125 "/></g></g></g><g fill="#000000" fill-opacity="1"><g transform="translate(257.495187, 330.995369)"><g><path d="M 15.953125 0 L 15.484375 -2.875 C 14.734375 -1.84375 13.753906 -1.03125 12.546875 -0.4375 C 11.335938 0.144531 10.0625 0.4375 8.71875 0.4375 C 6.507812 0.4375 4.851562 -0.171875 3.75 -1.390625 C 2.644531 -2.617188 2.09375 -4.390625 2.09375 -6.703125 L 2.09375 -19.015625 L 9.25 -19.015625 L 9.25 -7.5625 C 9.25 -6.75 9.457031 -6.09375 9.875 -5.59375 C 10.300781 -5.101562 10.894531 -4.859375 11.65625 -4.859375 C 12.550781 -4.859375 13.273438 -5.144531 13.828125 -5.71875 C 14.378906 -6.300781 14.65625 -7.007812 14.65625 -7.84375 L 14.65625 -19.015625 L 21.8125 -19.015625 L 21.8125 0 Z M 15.953125 0 "/></g></g></g><g fill="#000000" fill-opacity="1"><g transform="translate(281.499374, 330.995369)"><g><path d="M 11.203125 -19.4375 C 13.742188 -19.4375 15.894531 -18.9375 17.65625 -17.9375 C 19.414062 -16.945312 20.296875 -15.40625 20.296875 -13.3125 L 13.640625 -13.3125 C 13.640625 -14.007812 13.328125 -14.503906 12.703125 -14.796875 C 12.273438 -15.035156 11.738281 -15.15625 11.09375 -15.15625 C 9.363281 -15.15625 8.5 -14.75 8.5 -13.9375 C 8.5 -13.476562 8.796875 -13.148438 9.390625 -12.953125 C 9.992188 -12.765625 10.976562 -12.5625 12.34375 -12.34375 C 14.03125 -12.101562 15.4375 -11.820312 16.5625 -11.5 C 17.6875 -11.175781 18.664062 -10.597656 19.5 -9.765625 C 20.34375 -8.941406 20.765625 -7.785156 20.765625 -6.296875 C 20.765625 -3.867188 19.859375 -2.140625 18.046875 -1.109375 C 16.242188 -0.078125 13.875 0.4375 10.9375 0.4375 C 9.257812 0.4375 7.675781 0.203125 6.1875 -0.265625 C 4.695312 -0.734375 3.484375 -1.457031 2.546875 -2.4375 C 1.617188 -3.425781 1.15625 -4.675781 1.15625 -6.1875 L 7.8125 -6.1875 L 7.8125 -6.046875 C 7.832031 -5.234375 8.171875 -4.664062 8.828125 -4.34375 C 9.492188 -4.019531 10.195312 -3.859375 10.9375 -3.859375 C 12.9375 -3.859375 13.9375 -4.320312 13.9375 -5.25 C 13.9375 -5.726562 13.625 -6.078125 13 -6.296875 C 12.375 -6.515625 11.351562 -6.742188 9.9375 -6.984375 C 8.226562 -7.273438 6.828125 -7.585938 5.734375 -7.921875 C 4.648438 -8.253906 3.695312 -8.820312 2.875 -9.625 C 2.0625 -10.4375 1.65625 -11.5625 1.65625 -13 C 1.65625 -15.320312 2.535156 -16.972656 4.296875 -17.953125 C 6.066406 -18.941406 8.367188 -19.4375 11.203125 -19.4375 Z M 11.203125 -19.4375 "/></g></g></g></svg>