<svg xmlns="http://www.w3.org/2000/svg" xmlns:xlink="http://www.w3.org/1999/xlink" width="500" zoomAndPan="magnify" viewBox="0 0 375 374.999991" height="500" preserveAspectRatio="xMidYMid meet" version="1.0"><defs><g/><clipPath id="b94ed1916b"><path d="M 1 14.0625 L 374 14.0625 L 374 169 L 1 169 Z M 1 14.0625 " clip-rule="nonzero"/></clipPath><clipPath id="de11dcbc08"><path d="M 69.328125 134 L 152 134 L 152 184 L 69.328125 184 Z M 69.328125 134 " clip-rule="nonzero"/></clipPath><clipPath id="a0c2445629"><path d="M 69.328125 191 L 151 191 L 151 241 L 69.328125 241 Z M 69.328125 191 " clip-rule="nonzero"/></clipPath><clipPath id="2c15f30ffa"><path d="M 221 191 L 303.328125 191 L 303.328125 241 L 221 241 Z M 221 191 " clip-rule="nonzero"/></clipPath><clipPath id="73c44ee270"><path d="M 222 134 L 303.328125 134 L 303.328125 184 L 222 184 Z M 222 134 " clip-rule="nonzero"/></clipPath></defs><path fill="#ffffff" d="M 323.40625 360.96875 L 51.445312 360.96875 C 47.335938 360.96875 44.003906 357.636719 44.003906 353.527344 L 44.003906 184.039062 C 44.003906 179.925781 47.335938 176.582031 51.445312 176.582031 C 55.558594 176.582031 58.886719 179.925781 58.886719 184.039062 L 58.886719 346.085938 L 315.964844 346.085938 L 315.964844 184.039062 C 315.964844 179.925781 319.292969 176.582031 323.40625 176.582031 C 327.515625 176.582031 330.847656 179.925781 330.847656 184.039062 L 330.847656 353.527344 C 330.847656 357.636719 327.515625 360.96875 323.40625 360.96875 " fill-opacity="1" fill-rule="nonzero"/><g clip-path="url(#b94ed1916b)"><path fill="#ffffff" d="M 366.066406 168.167969 C 364.460938 168.167969 362.851562 167.664062 361.496094 166.605469 L 187.425781 31.488281 L 13.355469 166.605469 C 10.097656 169.125 5.425781 168.535156 2.902344 165.292969 C 0.386719 162.035156 0.976562 157.367188 4.21875 154.847656 L 182.859375 16.183594 C 185.554688 14.097656 189.296875 14.097656 191.996094 16.183594 L 370.632812 154.847656 C 373.875 157.367188 374.464844 162.035156 371.945312 165.292969 C 370.484375 167.179688 368.277344 168.167969 366.066406 168.167969 " fill-opacity="1" fill-rule="nonzero"/></g><g clip-path="url(#de11dcbc08)"><path fill="#ffffff" d="M 151.277344 183.816406 L 151.277344 173.441406 L 117.042969 173.441406 L 76.433594 134.230469 L 69.222656 141.675781 L 112.84375 183.816406 Z M 151.277344 183.816406 " fill-opacity="1" fill-rule="nonzero"/></g><g clip-path="url(#a0c2445629)"><path fill="#ffffff" d="M 116.835938 201.734375 L 150.523438 201.734375 L 150.523438 191.363281 L 112.660156 191.363281 L 69.222656 233.320312 L 76.433594 240.765625 Z M 116.835938 201.734375 " fill-opacity="1" fill-rule="nonzero"/></g><g clip-path="url(#2c15f30ffa)"><path fill="#ffffff" d="M 303.347656 233.320312 L 259.726562 191.179688 L 221.296875 191.179688 L 221.296875 201.554688 L 255.527344 201.554688 L 296.136719 240.765625 Z M 303.347656 233.320312 " fill-opacity="1" fill-rule="nonzero"/></g><g clip-path="url(#73c44ee270)"><path fill="#ffffff" d="M 222.046875 173.261719 L 222.046875 183.632812 L 259.910156 183.632812 L 303.347656 141.675781 L 296.136719 134.230469 L 255.734375 173.261719 Z M 222.046875 173.261719 " fill-opacity="1" fill-rule="nonzero"/></g><path fill="#ffffff" d="M 145.050781 223.910156 L 150.523438 223.910156 L 150.523438 213.535156 L 141.085938 213.535156 L 117.511719 234.722656 L 117.511719 310.679688 L 127.882812 310.679688 L 127.882812 239.363281 Z M 145.050781 223.910156 " fill-opacity="1" fill-rule="nonzero"/><path fill="#ffffff" d="M 253.945312 132.855469 L 253.945312 65.691406 L 243.570312 65.691406 L 243.570312 128.835938 L 215.460938 159.542969 L 223.109375 166.542969 Z M 253.945312 132.855469 " fill-opacity="1" fill-rule="nonzero"/><path fill="#ffffff" d="M 152.105469 250.050781 C 152.105469 251.152344 152.207031 252.246094 152.410156 253.328125 C 152.609375 254.410156 152.90625 255.46875 153.296875 256.5 C 153.691406 257.527344 154.175781 258.515625 154.746094 259.457031 C 155.320312 260.398438 155.972656 261.28125 156.703125 262.105469 C 157.4375 262.925781 158.238281 263.675781 159.109375 264.355469 C 159.980469 265.03125 160.902344 265.625 161.882812 266.132812 C 162.859375 266.640625 163.875 267.058594 164.929688 267.382812 C 165.980469 267.703125 167.054688 267.929688 168.152344 268.058594 C 169.246094 268.1875 170.34375 268.214844 171.441406 268.144531 C 172.542969 268.070312 173.628906 267.898438 174.695312 267.632812 C 175.765625 267.363281 176.800781 266.996094 177.804688 266.539062 C 178.804688 266.082031 179.757812 265.535156 180.660156 264.90625 C 181.566406 264.273438 182.402344 263.566406 183.179688 262.78125 C 183.953125 261.996094 184.648438 261.148438 185.269531 260.238281 C 185.890625 259.324219 186.421875 258.367188 186.867188 257.355469 C 187.3125 256.347656 187.664062 255.308594 187.917969 254.238281 C 188.171875 253.164062 188.328125 252.078125 188.386719 250.976562 C 188.445312 249.875 188.402344 248.78125 188.261719 247.6875 C 188.117188 246.59375 187.878906 245.523438 187.542969 244.472656 C 187.203125 243.421875 186.773438 242.414062 186.253906 241.441406 C 185.730469 240.472656 185.128906 239.554688 184.4375 238.695312 C 183.75 237.832031 182.992188 237.039062 182.15625 236.320312 C 181.324219 235.597656 180.433594 234.953125 179.484375 234.394531 C 178.535156 233.835938 177.542969 233.363281 176.507812 232.984375 L 176.507812 169.863281 L 141.785156 140.171875 L 141.785156 64.316406 L 131.410156 64.316406 L 131.410156 144.941406 L 166.136719 174.53125 L 166.136719 232.363281 C 165.144531 232.59375 164.179688 232.90625 163.242188 233.300781 C 162.304688 233.691406 161.40625 234.160156 160.542969 234.707031 C 159.683594 235.25 158.878906 235.863281 158.121094 236.542969 C 157.363281 237.222656 156.667969 237.960938 156.039062 238.757812 C 155.40625 239.558594 154.84375 240.402344 154.351562 241.292969 C 153.863281 242.183594 153.449219 243.109375 153.117188 244.070312 C 152.78125 245.03125 152.527344 246.015625 152.359375 247.019531 C 152.191406 248.019531 152.105469 249.03125 152.105469 250.050781 Z M 152.105469 250.050781 " fill-opacity="1" fill-rule="nonzero"/><path fill="#ffffff" d="M 237.476562 250.050781 C 237.476562 249.453125 237.449219 248.859375 237.390625 248.269531 C 237.332031 247.679688 237.246094 247.089844 237.128906 246.507812 C 237.011719 245.925781 236.867188 245.347656 236.695312 244.78125 C 236.523438 244.210938 236.324219 243.652344 236.097656 243.101562 C 235.867188 242.554688 235.613281 242.015625 235.335938 241.492188 C 235.054688 240.96875 234.75 240.457031 234.417969 239.964844 C 234.089844 239.46875 233.734375 238.992188 233.355469 238.53125 C 232.980469 238.074219 232.582031 237.632812 232.160156 237.210938 C 231.742188 236.792969 231.300781 236.394531 230.839844 236.015625 C 230.382812 235.640625 229.902344 235.285156 229.410156 234.957031 C 228.914062 234.625 228.40625 234.320312 227.882812 234.039062 C 227.359375 233.757812 226.820312 233.503906 226.269531 233.277344 C 225.722656 233.050781 225.164062 232.851562 224.59375 232.675781 C 224.023438 232.503906 223.449219 232.359375 222.867188 232.246094 C 222.28125 232.128906 221.695312 232.042969 221.105469 231.984375 C 220.511719 231.925781 219.917969 231.894531 219.324219 231.894531 C 216.59375 231.914062 214 232.519531 211.542969 233.710938 L 195.597656 220.121094 L 195.597656 175.230469 L 185.222656 175.230469 L 185.222656 224.867188 L 203.816406 240.714844 C 202.074219 243.582031 201.210938 246.695312 201.222656 250.050781 C 201.222656 250.644531 201.25 251.238281 201.308594 251.828125 C 201.367188 252.421875 201.453125 253.007812 201.570312 253.59375 C 201.6875 254.175781 201.828125 254.753906 202.003906 255.320312 C 202.175781 255.890625 202.375 256.449219 202.601562 257 C 202.828125 257.550781 203.082031 258.085938 203.363281 258.609375 C 203.644531 259.136719 203.949219 259.644531 204.277344 260.140625 C 204.609375 260.636719 204.960938 261.113281 205.339844 261.570312 C 205.714844 262.03125 206.117188 262.472656 206.535156 262.894531 C 206.957031 263.3125 207.394531 263.714844 207.855469 264.089844 C 208.316406 264.46875 208.792969 264.820312 209.289062 265.152344 C 209.78125 265.484375 210.292969 265.789062 210.816406 266.070312 C 211.339844 266.351562 211.878906 266.605469 212.425781 266.832031 C 212.976562 267.058594 213.535156 267.257812 214.105469 267.433594 C 214.671875 267.605469 215.25 267.75 215.832031 267.867188 C 216.417969 267.980469 217.003906 268.070312 217.597656 268.128906 C 218.1875 268.183594 218.78125 268.214844 219.375 268.214844 C 219.972656 268.214844 220.566406 268.183594 221.15625 268.128906 C 221.75 268.070312 222.335938 267.980469 222.917969 267.867188 C 223.503906 267.75 224.078125 267.605469 224.648438 267.433594 C 225.21875 267.257812 225.777344 267.058594 226.328125 266.832031 C 226.875 266.605469 227.414062 266.351562 227.9375 266.070312 C 228.460938 265.789062 228.972656 265.484375 229.464844 265.152344 C 229.960938 264.820312 230.4375 264.46875 230.898438 264.089844 C 231.355469 263.714844 231.796875 263.3125 232.21875 262.894531 C 232.636719 262.472656 233.035156 262.03125 233.414062 261.570312 C 233.789062 261.113281 234.144531 260.636719 234.472656 260.140625 C 234.804688 259.644531 235.109375 259.136719 235.390625 258.609375 C 235.671875 258.085938 235.925781 257.550781 236.152344 257 C 236.378906 256.449219 236.578125 255.890625 236.75 255.320312 C 236.921875 254.753906 237.066406 254.175781 237.183594 253.59375 C 237.296875 253.007812 237.386719 252.421875 237.441406 251.828125 C 237.5 251.238281 237.53125 250.644531 237.53125 250.050781 Z M 237.476562 250.050781 " fill-opacity="1" fill-rule="nonzero"/><path fill="#ffffff" d="M 178.117188 286.769531 C 178.117188 287.363281 178.144531 287.957031 178.203125 288.550781 C 178.261719 289.140625 178.351562 289.730469 178.464844 290.3125 C 178.582031 290.894531 178.726562 291.472656 178.898438 292.039062 C 179.070312 292.609375 179.269531 293.167969 179.5 293.71875 C 179.726562 294.265625 179.980469 294.804688 180.261719 295.328125 C 180.539062 295.851562 180.847656 296.359375 181.175781 296.855469 C 181.507812 297.351562 181.859375 297.828125 182.238281 298.285156 C 182.613281 298.746094 183.011719 299.1875 183.433594 299.605469 C 183.855469 300.027344 184.292969 300.425781 184.753906 300.804688 C 185.214844 301.179688 185.691406 301.535156 186.183594 301.863281 C 186.679688 302.195312 187.1875 302.5 187.710938 302.78125 C 188.238281 303.058594 188.773438 303.3125 189.324219 303.542969 C 189.871094 303.769531 190.429688 303.96875 191 304.140625 C 191.570312 304.3125 192.144531 304.457031 192.730469 304.574219 C 193.3125 304.691406 193.898438 304.777344 194.492188 304.835938 C 195.082031 304.894531 195.675781 304.921875 196.269531 304.921875 C 196.863281 304.921875 197.457031 304.894531 198.050781 304.835938 C 198.640625 304.777344 199.226562 304.691406 199.8125 304.574219 C 200.394531 304.457031 200.972656 304.3125 201.539062 304.140625 C 202.109375 303.96875 202.667969 303.769531 203.21875 303.542969 C 203.765625 303.3125 204.304688 303.058594 204.828125 302.78125 C 205.351562 302.5 205.859375 302.195312 206.355469 301.863281 C 206.851562 301.535156 207.328125 301.179688 207.785156 300.804688 C 208.246094 300.425781 208.6875 300.027344 209.105469 299.605469 C 209.527344 299.1875 209.925781 298.746094 210.300781 298.285156 C 210.679688 297.828125 211.035156 297.351562 211.363281 296.855469 C 211.695312 296.359375 212 295.851562 212.28125 295.328125 C 212.558594 294.804688 212.8125 294.265625 213.042969 293.71875 C 213.269531 293.167969 213.46875 292.609375 213.640625 292.039062 C 213.8125 291.472656 213.957031 290.894531 214.074219 290.3125 C 214.191406 289.730469 214.277344 289.140625 214.335938 288.550781 C 214.394531 287.957031 214.421875 287.363281 214.421875 286.769531 C 214.421875 286.175781 214.394531 285.582031 214.335938 284.992188 C 214.277344 284.398438 214.191406 283.8125 214.074219 283.230469 C 213.957031 282.644531 213.8125 282.070312 213.640625 281.5 C 213.46875 280.933594 213.269531 280.371094 213.042969 279.824219 C 212.8125 279.273438 212.558594 278.738281 212.28125 278.210938 C 212 277.6875 211.695312 277.179688 211.363281 276.683594 C 211.035156 276.191406 210.679688 275.714844 210.300781 275.253906 C 209.925781 274.792969 209.527344 274.355469 209.105469 273.933594 C 208.6875 273.511719 208.246094 273.113281 207.785156 272.738281 C 207.328125 272.359375 206.851562 272.007812 206.355469 271.675781 C 205.859375 271.347656 205.351562 271.039062 204.828125 270.761719 C 204.304688 270.480469 203.765625 270.226562 203.21875 270 C 202.667969 269.769531 202.109375 269.570312 201.539062 269.398438 C 200.972656 269.226562 200.394531 269.082031 199.8125 268.964844 C 199.226562 268.851562 198.640625 268.761719 198.050781 268.703125 C 197.457031 268.644531 196.863281 268.617188 196.269531 268.617188 C 195.675781 268.617188 195.082031 268.644531 194.492188 268.703125 C 193.898438 268.761719 193.3125 268.851562 192.730469 268.964844 C 192.144531 269.082031 191.570312 269.226562 191 269.398438 C 190.429688 269.570312 189.871094 269.769531 189.324219 270 C 188.773438 270.226562 188.238281 270.480469 187.710938 270.761719 C 187.1875 271.039062 186.679688 271.347656 186.183594 271.675781 C 185.691406 272.007812 185.214844 272.359375 184.753906 272.738281 C 184.292969 273.113281 183.855469 273.511719 183.433594 273.933594 C 183.011719 274.355469 182.613281 274.792969 182.238281 275.253906 C 181.859375 275.714844 181.507812 276.191406 181.175781 276.683594 C 180.847656 277.179688 180.539062 277.6875 180.261719 278.210938 C 179.980469 278.738281 179.726562 279.273438 179.5 279.824219 C 179.269531 280.371094 179.070312 280.933594 178.898438 281.5 C 178.726562 282.070312 178.582031 282.644531 178.464844 283.230469 C 178.351562 283.8125 178.261719 284.398438 178.203125 284.992188 C 178.144531 285.582031 178.117188 286.175781 178.117188 286.769531 Z M 178.117188 286.769531 " fill-opacity="1" fill-rule="nonzero"/><path fill="#ffffff" d="M 190.304688 129.667969 C 189.636719 129.671875 188.964844 129.714844 188.300781 129.796875 C 187.636719 129.875 186.976562 129.992188 186.324219 130.144531 C 185.667969 130.296875 185.027344 130.488281 184.394531 130.710938 C 183.761719 130.933594 183.144531 131.195312 182.542969 131.484375 C 181.9375 131.777344 181.351562 132.105469 180.785156 132.460938 C 180.21875 132.820312 179.671875 133.207031 179.148438 133.625 C 178.625 134.042969 178.125 134.488281 177.648438 134.960938 C 177.175781 135.433594 176.726562 135.933594 176.308594 136.457031 C 175.886719 136.980469 175.496094 137.523438 175.136719 138.089844 C 174.777344 138.65625 174.453125 139.238281 174.15625 139.84375 C 173.863281 140.445312 173.601562 141.0625 173.375 141.691406 C 173.148438 142.324219 172.957031 142.964844 172.800781 143.617188 C 172.648438 144.269531 172.527344 144.929688 172.445312 145.59375 C 172.363281 146.261719 172.320312 146.929688 172.3125 147.597656 C 172.304688 148.269531 172.332031 148.9375 172.398438 149.605469 C 172.464844 150.273438 172.566406 150.933594 172.707031 151.589844 C 172.84375 152.246094 173.019531 152.894531 173.230469 153.53125 C 173.441406 154.167969 173.6875 154.789062 173.96875 155.398438 C 174.246094 156.007812 174.558594 156.601562 174.90625 157.175781 C 175.25 157.75 175.628906 158.304688 176.035156 158.835938 C 176.441406 159.371094 176.875 159.878906 177.339844 160.363281 C 177.804688 160.847656 178.292969 161.304688 178.804688 161.734375 C 179.320312 162.167969 179.855469 162.566406 180.414062 162.9375 C 180.972656 163.308594 181.550781 163.648438 182.148438 163.957031 C 182.742188 164.265625 183.355469 164.535156 183.980469 164.777344 C 184.605469 165.015625 185.246094 165.21875 185.894531 165.390625 C 186.542969 165.558594 187.199219 165.691406 187.863281 165.785156 C 188.527344 165.882812 189.195312 165.941406 189.863281 165.964844 C 190.535156 165.984375 191.203125 165.96875 191.871094 165.917969 C 192.539062 165.867188 193.203125 165.777344 193.863281 165.652344 C 194.523438 165.527344 195.171875 165.363281 195.8125 165.167969 C 196.453125 164.96875 197.082031 164.738281 197.695312 164.46875 L 204.128906 170.902344 L 204.128906 211.847656 L 219.6875 221.988281 L 227.46875 221.988281 L 246.371094 239.363281 L 246.371094 309.382812 L 256.746094 309.382812 L 256.746094 234.773438 L 231.695312 211.617188 L 222.824219 211.617188 L 214.5 206.222656 L 214.5 166.597656 L 205.578125 157.703125 C 206.53125 156.238281 207.253906 154.671875 207.753906 153 C 208.253906 151.324219 208.503906 149.617188 208.511719 147.871094 C 208.511719 147.277344 208.484375 146.679688 208.425781 146.085938 C 208.371094 145.492188 208.285156 144.902344 208.167969 144.316406 C 208.054688 143.730469 207.910156 143.152344 207.738281 142.582031 C 207.566406 142.011719 207.367188 141.449219 207.140625 140.898438 C 206.910156 140.347656 206.65625 139.808594 206.375 139.28125 C 206.09375 138.753906 205.789062 138.242188 205.457031 137.746094 C 205.128906 137.25 204.773438 136.769531 204.394531 136.308594 C 204.015625 135.847656 203.617188 135.40625 203.195312 134.984375 C 202.773438 134.5625 202.328125 134.164062 201.867188 133.785156 C 201.40625 133.40625 200.929688 133.050781 200.433594 132.71875 C 199.9375 132.386719 199.425781 132.082031 198.898438 131.800781 C 198.371094 131.519531 197.832031 131.265625 197.28125 131.039062 C 196.730469 130.8125 196.167969 130.613281 195.597656 130.441406 C 195.023438 130.265625 194.445312 130.125 193.859375 130.007812 C 193.273438 129.894531 192.683594 129.808594 192.089844 129.75 C 191.496094 129.695312 190.902344 129.664062 190.304688 129.667969 Z M 190.304688 129.667969 " fill-opacity="1" fill-rule="nonzero"/><g fill="#ffffff" fill-opacity="1"><g transform="translate(71.507812, 330.995486)"><g><path d="M 2.65625 -24.765625 L 10.625 -24.765625 L 10.625 -6.34375 L 23.328125 -6.34375 L 23.328125 0 L 2.65625 0 Z M 2.65625 -24.765625 "/></g></g></g><g fill="#ffffff" fill-opacity="1"><g transform="translate(95.511987, 330.995486)"><g><path d="M 11.984375 -19.4375 C 15.316406 -19.4375 17.9375 -18.585938 19.84375 -16.890625 C 21.757812 -15.203125 22.71875 -12.738281 22.71875 -9.5 C 22.71875 -6.257812 21.757812 -3.789062 19.84375 -2.09375 C 17.9375 -0.40625 15.316406 0.4375 11.984375 0.4375 C 8.648438 0.4375 6.035156 -0.398438 4.140625 -2.078125 C 2.242188 -3.765625 1.296875 -6.238281 1.296875 -9.5 C 1.296875 -12.769531 2.242188 -15.242188 4.140625 -16.921875 C 6.035156 -18.597656 8.648438 -19.4375 11.984375 -19.4375 Z M 11.984375 -14.578125 C 9.628906 -14.578125 8.453125 -13.222656 8.453125 -10.515625 L 8.453125 -8.453125 C 8.453125 -5.765625 9.628906 -4.421875 11.984375 -4.421875 C 14.359375 -4.421875 15.546875 -5.765625 15.546875 -8.453125 L 15.546875 -10.515625 C 15.546875 -13.222656 14.359375 -14.578125 11.984375 -14.578125 Z M 11.984375 -14.578125 "/></g></g></g><g fill="#ffffff" fill-opacity="1"><g transform="translate(119.516163, 330.995486)"><g><path d="M 23.546875 -22.578125 C 23.546875 -21.109375 23.175781 -19.976562 22.4375 -19.1875 C 21.707031 -18.394531 20.613281 -17.804688 19.15625 -17.421875 C 19.851562 -16.890625 20.398438 -16.269531 20.796875 -15.5625 C 21.191406 -14.863281 21.390625 -14.113281 21.390625 -13.3125 C 21.390625 -11.300781 20.625 -9.78125 19.09375 -8.75 C 17.570312 -7.71875 15.671875 -7.203125 13.390625 -7.203125 L 10.65625 -7.203125 C 9.144531 -7.203125 8.390625 -6.851562 8.390625 -6.15625 C 8.390625 -5.820312 8.554688 -5.550781 8.890625 -5.34375 C 9.222656 -5.144531 9.8125 -5.046875 10.65625 -5.046875 L 17.140625 -5.046875 C 19.242188 -5.046875 20.835938 -4.492188 21.921875 -3.390625 C 23.003906 -2.285156 23.546875 -0.804688 23.546875 1.046875 C 23.546875 2.410156 23.1875 3.582031 22.46875 4.5625 C 21.75 5.550781 20.773438 6.296875 19.546875 6.796875 C 18.328125 7.304688 16.992188 7.5625 15.546875 7.5625 L 4.96875 7.5625 C 4.101562 7.5625 3.300781 7.359375 2.5625 6.953125 C 1.832031 6.546875 1.253906 5.988281 0.828125 5.28125 C 0.398438 4.570312 0.1875 3.785156 0.1875 2.921875 C 0.1875 1.984375 0.472656 1.132812 1.046875 0.375 C 1.617188 -0.375 2.335938 -0.941406 3.203125 -1.328125 C 2.628906 -1.734375 2.171875 -2.222656 1.828125 -2.796875 C 1.492188 -3.378906 1.328125 -4.007812 1.328125 -4.6875 C 1.328125 -5.613281 1.675781 -6.457031 2.375 -7.21875 C 3.070312 -7.976562 3.9375 -8.488281 4.96875 -8.75 C 4.03125 -9.34375 3.285156 -10.03125 2.734375 -10.8125 C 2.179688 -11.59375 1.90625 -12.414062 1.90625 -13.28125 C 1.90625 -15.488281 2.796875 -17.066406 4.578125 -18.015625 C 6.367188 -18.960938 8.742188 -19.4375 11.703125 -19.4375 C 12.992188 -19.4375 14.035156 -19.363281 14.828125 -19.21875 C 16.003906 -19.96875 16.765625 -20.644531 17.109375 -21.25 C 17.460938 -21.863281 17.640625 -22.304688 17.640625 -22.578125 Z M 11.625 -15.703125 C 10.832031 -15.703125 10.179688 -15.492188 9.671875 -15.078125 C 9.171875 -14.671875 8.921875 -14.082031 8.921875 -13.3125 C 8.921875 -12.519531 9.15625 -11.925781 9.625 -11.53125 C 10.09375 -11.132812 10.757812 -10.9375 11.625 -10.9375 C 12.488281 -10.9375 13.164062 -11.132812 13.65625 -11.53125 C 14.15625 -11.925781 14.40625 -12.519531 14.40625 -13.3125 C 14.40625 -14.113281 14.15625 -14.710938 13.65625 -15.109375 C 13.164062 -15.503906 12.488281 -15.703125 11.625 -15.703125 Z M 8.859375 0 C 8.304688 0 7.851562 0.148438 7.5 0.453125 C 7.15625 0.753906 6.984375 1.179688 6.984375 1.734375 C 6.984375 2.285156 7.160156 2.726562 7.515625 3.0625 C 7.878906 3.394531 8.328125 3.5625 8.859375 3.5625 L 14.46875 3.5625 C 15 3.5625 15.445312 3.398438 15.8125 3.078125 C 16.1875 2.753906 16.375 2.316406 16.375 1.765625 C 16.375 1.210938 16.191406 0.78125 15.828125 0.46875 C 15.472656 0.15625 15.019531 0 14.46875 0 Z M 8.859375 0 "/></g></g></g><g fill="#ffffff" fill-opacity="1"><g transform="translate(143.520338, 330.995486)"><g><path d="M 2.40625 -21.234375 L 2.40625 -26.09375 L 9.578125 -26.09375 L 9.578125 -21.234375 Z M 2.40625 0 L 2.40625 -19.015625 L 9.578125 -19.015625 L 9.578125 0 Z M 2.40625 0 "/></g></g></g><g fill="#ffffff" fill-opacity="1"><g transform="translate(155.50443, 330.995486)"><g><path d="M 11.984375 -19.4375 C 15.109375 -19.4375 17.632812 -18.769531 19.5625 -17.4375 C 21.5 -16.101562 22.46875 -14.070312 22.46875 -11.34375 L 15.515625 -11.34375 C 15.515625 -13.5 14.335938 -14.578125 11.984375 -14.578125 C 9.628906 -14.578125 8.453125 -13.222656 8.453125 -10.515625 L 8.453125 -8.453125 C 8.453125 -5.765625 9.675781 -4.421875 12.125 -4.421875 C 14.570312 -4.421875 15.796875 -5.523438 15.796875 -7.734375 L 22.46875 -7.734375 C 22.46875 -4.972656 21.5 -2.921875 19.5625 -1.578125 C 17.632812 -0.234375 15.109375 0.4375 11.984375 0.4375 C 8.648438 0.4375 6.035156 -0.398438 4.140625 -2.078125 C 2.242188 -3.765625 1.296875 -6.238281 1.296875 -9.5 C 1.296875 -12.769531 2.242188 -15.242188 4.140625 -16.921875 C 6.035156 -18.597656 8.648438 -19.4375 11.984375 -19.4375 Z M 11.984375 -19.4375 "/></g></g></g><g fill="#ffffff" fill-opacity="1"><g transform="translate(179.508605, 330.995486)"><g><path d="M 11.5625 -19.4375 C 14.457031 -19.4375 16.816406 -18.953125 18.640625 -17.984375 C 20.472656 -17.015625 21.390625 -15.4375 21.390625 -13.25 L 21.390625 -5.828125 C 21.390625 -5.421875 21.484375 -5.082031 21.671875 -4.8125 C 21.859375 -4.550781 22.144531 -4.421875 22.53125 -4.421875 L 23.828125 -4.421875 L 23.828125 -0.28125 C 23.753906 -0.238281 23.566406 -0.160156 23.265625 -0.046875 C 22.972656 0.0546875 22.550781 0.160156 22 0.265625 C 21.445312 0.378906 20.8125 0.4375 20.09375 0.4375 C 18.695312 0.4375 17.546875 0.226562 16.640625 -0.1875 C 15.742188 -0.613281 15.128906 -1.195312 14.796875 -1.9375 C 13.878906 -1.21875 12.859375 -0.640625 11.734375 -0.203125 C 10.609375 0.222656 9.289062 0.4375 7.78125 0.4375 C 3.3125 0.4375 1.078125 -1.335938 1.078125 -4.890625 C 1.078125 -6.742188 1.570312 -8.15625 2.5625 -9.125 C 3.5625 -10.09375 5 -10.753906 6.875 -11.109375 C 8.75 -11.472656 11.195312 -11.65625 14.21875 -11.65625 L 14.21875 -12.59375 C 14.21875 -13.34375 13.957031 -13.910156 13.4375 -14.296875 C 12.925781 -14.679688 12.265625 -14.875 11.453125 -14.875 C 10.703125 -14.875 10.054688 -14.738281 9.515625 -14.46875 C 8.984375 -14.207031 8.71875 -13.789062 8.71875 -13.21875 L 8.71875 -13.0625 L 1.65625 -13.0625 C 1.632812 -13.1875 1.625 -13.359375 1.625 -13.578125 C 1.625 -15.367188 2.476562 -16.789062 4.1875 -17.84375 C 5.90625 -18.90625 8.363281 -19.4375 11.5625 -19.4375 Z M 14.21875 -8.28125 C 12.175781 -8.28125 10.671875 -8.054688 9.703125 -7.609375 C 8.734375 -7.171875 8.25 -6.578125 8.25 -5.828125 C 8.25 -4.628906 9.0625 -4.03125 10.6875 -4.03125 C 11.625 -4.03125 12.445312 -4.28125 13.15625 -4.78125 C 13.863281 -5.289062 14.21875 -5.914062 14.21875 -6.65625 Z M 14.21875 -8.28125 "/></g></g></g><g fill="#ffffff" fill-opacity="1"><g transform="translate(203.51278, 330.995486)"><g><path d="M 19.375 0 L 19.375 -9.390625 L 10.625 -9.390625 L 10.625 0 L 2.65625 0 L 2.65625 -24.765625 L 10.625 -24.765625 L 10.625 -15.734375 L 19.375 -15.734375 L 19.375 -24.765625 L 27.328125 -24.765625 L 27.328125 0 Z M 19.375 0 "/></g></g></g><g fill="#ffffff" fill-opacity="1"><g transform="translate(233.491011, 330.995486)"><g><path d="M 11.5625 -19.4375 C 14.457031 -19.4375 16.816406 -18.953125 18.640625 -17.984375 C 20.472656 -17.015625 21.390625 -15.4375 21.390625 -13.25 L 21.390625 -5.828125 C 21.390625 -5.421875 21.484375 -5.082031 21.671875 -4.8125 C 21.859375 -4.550781 22.144531 -4.421875 22.53125 -4.421875 L 23.828125 -4.421875 L 23.828125 -0.28125 C 23.753906 -0.238281 23.566406 -0.160156 23.265625 -0.046875 C 22.972656 0.0546875 22.550781 0.160156 22 0.265625 C 21.445312 0.378906 20.8125 0.4375 20.09375 0.4375 C 18.695312 0.4375 17.546875 0.226562 16.640625 -0.1875 C 15.742188 -0.613281 15.128906 -1.195312 14.796875 -1.9375 C 13.878906 -1.21875 12.859375 -0.640625 11.734375 -0.203125 C 10.609375 0.222656 9.289062 0.4375 7.78125 0.4375 C 3.3125 0.4375 1.078125 -1.335938 1.078125 -4.890625 C 1.078125 -6.742188 1.570312 -8.15625 2.5625 -9.125 C 3.5625 -10.09375 5 -10.753906 6.875 -11.109375 C 8.75 -11.472656 11.195312 -11.65625 14.21875 -11.65625 L 14.21875 -12.59375 C 14.21875 -13.34375 13.957031 -13.910156 13.4375 -14.296875 C 12.925781 -14.679688 12.265625 -14.875 11.453125 -14.875 C 10.703125 -14.875 10.054688 -14.738281 9.515625 -14.46875 C 8.984375 -14.207031 8.71875 -13.789062 8.71875 -13.21875 L 8.71875 -13.0625 L 1.65625 -13.0625 C 1.632812 -13.1875 1.625 -13.359375 1.625 -13.578125 C 1.625 -15.367188 2.476562 -16.789062 4.1875 -17.84375 C 5.90625 -18.90625 8.363281 -19.4375 11.5625 -19.4375 Z M 14.21875 -8.28125 C 12.175781 -8.28125 10.671875 -8.054688 9.703125 -7.609375 C 8.734375 -7.171875 8.25 -6.578125 8.25 -5.828125 C 8.25 -4.628906 9.0625 -4.03125 10.6875 -4.03125 C 11.625 -4.03125 12.445312 -4.28125 13.15625 -4.78125 C 13.863281 -5.289062 14.21875 -5.914062 14.21875 -6.65625 Z M 14.21875 -8.28125 "/></g></g></g><g fill="#ffffff" fill-opacity="1"><g transform="translate(257.495187, 330.995486)"><g><path d="M 15.953125 0 L 15.484375 -2.875 C 14.734375 -1.84375 13.753906 -1.03125 12.546875 -0.4375 C 11.335938 0.144531 10.0625 0.4375 8.71875 0.4375 C 6.507812 0.4375 4.851562 -0.171875 3.75 -1.390625 C 2.644531 -2.617188 2.09375 -4.390625 2.09375 -6.703125 L 2.09375 -19.015625 L 9.25 -19.015625 L 9.25 -7.5625 C 9.25 -6.75 9.457031 -6.09375 9.875 -5.59375 C 10.300781 -5.101562 10.894531 -4.859375 11.65625 -4.859375 C 12.550781 -4.859375 13.273438 -5.144531 13.828125 -5.71875 C 14.378906 -6.300781 14.65625 -7.007812 14.65625 -7.84375 L 14.65625 -19.015625 L 21.8125 -19.015625 L 21.8125 0 Z M 15.953125 0 "/></g></g></g><g fill="#ffffff" fill-opacity="1"><g transform="translate(281.499374, 330.995486)"><g><path d="M 11.203125 -19.4375 C 13.742188 -19.4375 15.894531 -18.9375 17.65625 -17.9375 C 19.414062 -16.945312 20.296875 -15.40625 20.296875 -13.3125 L 13.640625 -13.3125 C 13.640625 -14.007812 13.328125 -14.503906 12.703125 -14.796875 C 12.273438 -15.035156 11.738281 -15.15625 11.09375 -15.15625 C 9.363281 -15.15625 8.5 -14.75 8.5 -13.9375 C 8.5 -13.476562 8.796875 -13.148438 9.390625 -12.953125 C 9.992188 -12.765625 10.976562 -12.5625 12.34375 -12.34375 C 14.03125 -12.101562 15.4375 -11.820312 16.5625 -11.5 C 17.6875 -11.175781 18.664062 -10.597656 19.5 -9.765625 C 20.34375 -8.941406 20.765625 -7.785156 20.765625 -6.296875 C 20.765625 -3.867188 19.859375 -2.140625 18.046875 -1.109375 C 16.242188 -0.078125 13.875 0.4375 10.9375 0.4375 C 9.257812 0.4375 7.675781 0.203125 6.1875 -0.265625 C 4.695312 -0.734375 3.484375 -1.457031 2.546875 -2.4375 C 1.617188 -3.425781 1.15625 -4.675781 1.15625 -6.1875 L 7.8125 -6.1875 L 7.8125 -6.046875 C 7.832031 -5.234375 8.171875 -4.664062 8.828125 -4.34375 C 9.492188 -4.019531 10.195312 -3.859375 10.9375 -3.859375 C 12.9375 -3.859375 13.9375 -4.320312 13.9375 -5.25 C 13.9375 -5.726562 13.625 -6.078125 13 -6.296875 C 12.375 -6.515625 11.351562 -6.742188 9.9375 -6.984375 C 8.226562 -7.273438 6.828125 -7.585938 5.734375 -7.921875 C 4.648438 -8.253906 3.695312 -8.820312 2.875 -9.625 C 2.0625 -10.4375 1.65625 -11.5625 1.65625 -13 C 1.65625 -15.320312 2.535156 -16.972656 4.296875 -17.953125 C 6.066406 -18.941406 8.367188 -19.4375 11.203125 -19.4375 Z M 11.203125 -19.4375 "/></g></g></g></svg>